<svg xmlns="http://www.w3.org/2000/svg" xmlns:xlink="http://www.w3.org/1999/xlink" xmlns:s="https://github.com/ajsb85/netlist2svg" width="931.5" height="725"><style>  svg {
    stroke: #000;
    fill: none;
  }
  text {
    fill: #000;
    stroke: none;
    font-size: 10px;
    font-weight: bold;
    font-family: "Courier New", monospace;
  }
  .nodelabel {
    text-anchor: middle;
  }
  .inputPortLabel {
    text-anchor: end;
  }
  .splitjoinBody {
    fill: #000;
  }
  .junction {
    fill: #000;
  }
  .labelBackground {
    fill: #fff;
    stroke: none;
  }
  .detail, .symbol {
    stroke-linejoin: round;
    stroke-linecap: round;
  }
  .symbol {
    stroke-width: 2;
  }
  .detail {
    fill: #000;
  }
  @media (prefers-color-scheme: dark) {
    svg {
      stroke: #fff !important;
    }
    text {
      fill: #fff !important;
    }
    .splitjoinBody {
      fill: #fff !important;
    }
    .junction {
      fill: #fff !important;
    }
    .labelBackground {
      fill: #0a192f !important; /* Blueprint background or transparent */
    }
    .detail {
      fill: #fff !important;
    }
    circle, path, rect, line {
      stroke: #fff;
    }
    [style*="fill:#000"], [style*="fill:#000000"] {
      fill: #fff !important;
    }
    [style*="stroke:#000"], [style*="stroke:#000000"] {
      stroke: #fff !important;
    }
    .subModuleOdd {
      fill: #0e2238 !important;
    }
    .subModuleEven {
      fill: #16365a !important;
    }
  }
  /* Forced dark theme (used by the always-dark interactive demo). Mirrors the
     prefers-color-scheme rules above but is triggered by class="dark" on the
     root svg, so it works even when the host page/OS is not in dark mode. */
  svg.dark {
    stroke: #fff !important;
  }
  svg.dark text {
    fill: #fff !important;
  }
  svg.dark .splitjoinBody {
    fill: #fff !important;
  }
  svg.dark .junction {
    fill: #fff !important;
  }
  svg.dark .labelBackground {
    fill: #0a192f !important;
  }
  svg.dark .detail {
    fill: #fff !important;
  }
  svg.dark circle, svg.dark path, svg.dark rect, svg.dark line {
    stroke: #fff;
  }
  svg.dark .subModuleOdd {
    fill: #0e2238 !important;
  }
  svg.dark .subModuleEven {
    fill: #16365a !important;
  }
  svg.dark [style*="fill:#000"], svg.dark [style*="fill:#000000"] {
    fill: #fff !important;
  }
  svg.dark [style*="stroke:#000"], svg.dark [style*="stroke:#000000"] {
    stroke: #fff !important;
  }
  /* Forced light theme: overrides the prefers-color-scheme:dark rules above so a
     light-forced render (class="light") stays light even on a dark OS. */
  svg.light {
    stroke: #000 !important;
  }
  svg.light text {
    fill: #000 !important;
  }
  svg.light .splitjoinBody {
    fill: #000 !important;
  }
  svg.light .junction {
    fill: #000 !important;
  }
  svg.light .labelBackground {
    fill: #fff !important;
  }
  svg.light .detail {
    fill: #000 !important;
  }
  svg.light circle, svg.light path, svg.light rect, svg.light line {
    stroke: #000;
  }
  svg.light .subModuleOdd {
    fill: #e9e9e9 !important;
  }
  svg.light .subModuleEven {
    fill: #ffffff !important;
  }
  svg.light [style*="fill:#000"], svg.light [style*="fill:#000000"] {
    fill: #000 !important;
  }
  svg.light [style*="stroke:#000"], svg.light [style*="stroke:#000000"] {
    stroke: #000 !important;
  }</style><g s:type="add" transform="translate(206.66666666666666,135.5)" s:width="25" s:height="25" id="cell_$add$input.v:17$3"><s:alias val="$add"/><circle r="12.5" cx="12.5" cy="12.5" class="cell_$add$input.v:17$3"/><line x1="7.5" x2="17.5" y1="12.5" y2="12.5" class="cell_$add$input.v:17$3"/><line x1="12.5" x2="12.5" y1="7.5" y2="17.5" class="cell_$add$input.v:17$3"/><g s:x="2" s:y="5" s:pid="A"/><g s:x="2" s:y="20" s:pid="B"/><g s:x="26" s:y="12.5" s:pid="Y"/></g><g s:type="and" transform="translate(710.5,19.5)" s:width="30" s:height="25" id="cell_$and$input.v:28$5"><s:alias val="$and"/><s:alias val="$logic_and"/><s:alias val="$_AND_"/><s:alias val="$reduce_and"/><path d="M0,0 L0,25 L15,25 A15 12.5 0 0 0 15,0 Z" class="cell_$and$input.v:28$5"/><g s:x="0" s:y="5" s:pid="A"/><g s:x="0" s:y="20" s:pid="B"/><g s:x="30" s:y="12.5" s:pid="Y"/></g><g s:type="and" transform="translate(710.5,94.5)" s:width="30" s:height="25" id="cell_$and$input.v:29$6"><s:alias val="$and"/><s:alias val="$logic_and"/><s:alias val="$_AND_"/><s:alias val="$reduce_and"/><path d="M0,0 L0,25 L15,25 A15 12.5 0 0 0 15,0 Z" class="cell_$and$input.v:29$6"/><g s:x="0" s:y="5" s:pid="A"/><g s:x="0" s:y="20" s:pid="B"/><g s:x="30" s:y="12.5" s:pid="Y"/></g><g s:type="dff-bus" transform="translate(93,130.5)" s:width="34" s:height="44" id="cell_$procdff$40"><s:alias val="$dff-bus"/><s:alias val="$_DFF_-bus"/><s:alias val="$_DFF_P_-bus"/><s:alias val="adff-bus"/><s:alias val="$adff-bus"/><s:alias val="$_DFF_-bus"/><s:alias val="$_DFF_P_-bus"/><s:alias val="sdff-bus"/><s:alias val="$sdff-bus"/><s:alias val="$_DFF_-bus"/><s:alias val="$_DFF_P_-bus"/><rect width="30" height="40" x="0" y="0" class="cell_$procdff$40"/><path d="M0,35 L5,30 L0,25" class="cell_$procdff$40"/><path d="M30,2 L32,2 L32,42 L2,42 L2,40" class="cell_$procdff$40"/><path d="M32,4 L34,4 L34,44 L4,44 L4,42" class="cell_$procdff$40"/><g s:x="35" s:y="10" s:pid="Q"/><g s:x="-1" s:y="30" s:pid="CLK"/><g s:x="-1" s:y="30" s:pid="C"/><g s:x="-1" s:y="10" s:pid="D"/><g s:x="17" s:y="44" s:pid="ARST"/><g s:x="17" s:y="44" s:pid="SRST"/></g><g s:type="dff" transform="translate(778.5,22)" s:width="30" s:height="40" id="cell_$procdff$41"><s:alias val="$dff"/><s:alias val="$_DFF_"/><s:alias val="$_DFF_P_"/><s:alias val="$adff"/><s:alias val="$_DFF_"/><s:alias val="$_DFF_P_"/><s:alias val="$sdff"/><s:alias val="$_DFF_"/><s:alias val="$_DFF_P_"/><rect width="30" height="40" x="0" y="0" class="cell_$procdff$41"/><path d="M0,35 L5,30 L0,25" class="cell_$procdff$41"/><g s:x="31" s:y="10" s:pid="Q"/><g s:x="-1" s:y="30" s:pid="CLK"/><g s:x="-1" s:y="30" s:pid="C"/><g s:x="-1" s:y="10" s:pid="D"/><g s:x="15" s:y="40" s:pid="ARST"/><g s:x="15" s:y="40" s:pid="SRST"/></g><g s:type="dff" transform="translate(778.5,97)" s:width="30" s:height="40" id="cell_$procdff$42"><s:alias val="$dff"/><s:alias val="$_DFF_"/><s:alias val="$_DFF_P_"/><s:alias val="$adff"/><s:alias val="$_DFF_"/><s:alias val="$_DFF_P_"/><s:alias val="$sdff"/><s:alias val="$_DFF_"/><s:alias val="$_DFF_P_"/><rect width="30" height="40" x="0" y="0" class="cell_$procdff$42"/><path d="M0,35 L5,30 L0,25" class="cell_$procdff$42"/><g s:x="31" s:y="10" s:pid="Q"/><g s:x="-1" s:y="30" s:pid="CLK"/><g s:x="-1" s:y="30" s:pid="C"/><g s:x="-1" s:y="10" s:pid="D"/><g s:x="15" s:y="40" s:pid="ARST"/><g s:x="15" s:y="40" s:pid="SRST"/></g><g s:type="dff" transform="translate(778.5,628)" s:width="30" s:height="40" id="cell_$procdff$43"><s:alias val="$dff"/><s:alias val="$_DFF_"/><s:alias val="$_DFF_P_"/><s:alias val="$adff"/><s:alias val="$_DFF_"/><s:alias val="$_DFF_P_"/><s:alias val="$sdff"/><s:alias val="$_DFF_"/><s:alias val="$_DFF_P_"/><rect width="30" height="40" x="0" y="0" class="cell_$procdff$43"/><path d="M0,35 L5,30 L0,25" class="cell_$procdff$43"/><g s:x="31" s:y="10" s:pid="Q"/><g s:x="-1" s:y="30" s:pid="CLK"/><g s:x="-1" s:y="30" s:pid="C"/><g s:x="-1" s:y="10" s:pid="D"/><g s:x="15" s:y="40" s:pid="ARST"/><g s:x="15" s:y="40" s:pid="SRST"/></g><g s:type="mux-bus" transform="translate(611,326)" s:width="24" s:height="40" id="cell_$procmux$36"><s:alias val="$pmux-bus"/><s:alias val="$mux-bus"/><s:alias val="$_MUX_-bus"/><path d="M0,0 L20,10 L20,30 L0,40 Z" class="cell_$procmux$36"/><path d="M4,2 L4,0 L22,9 L22,31 L4,40 L4,38" class="cell_$procmux$36"/><path d="M8,2 L8,0 L24,8 L24,32 L8,40 L8,38" class="cell_$procmux$36"/><text x="5" y="32" class="nodelabel cell_$procmux$36" s:attribute="">1</text><text x="5" y="13" class="nodelabel cell_$procmux$36" s:attribute="">0</text><g s:x="-1" s:y="10" s:pid="A"/><g s:x="-1" s:y="30" s:pid="B"/><g s:x="12" s:y="38" s:pid="S"/><g s:x="24.5" s:y="20" s:pid="Y"/></g><g s:type="eq" transform="translate(439,446.5)" s:width="25" s:height="25" id="cell_$procmux$37_CMP0"><s:alias val="$eq"/><s:alias val="$eqx"/><circle r="12.5" cx="12.5" cy="12.5" class="cell_$procmux$37_CMP0"/><line x1="7.5" x2="17.5" y1="10" y2="10" class="cell_$procmux$37_CMP0"/><line x1="7.5" x2="17.5" y1="15" y2="15" class="cell_$procmux$37_CMP0"/><g s:x="2" s:y="5" s:pid="A"/><g s:x="2" s:y="20" s:pid="B"/><g s:x="25" s:y="12.5" s:pid="Y"/></g><g s:type="eq" transform="translate(439,506.5)" s:width="25" s:height="25" id="cell_$procmux$38_CMP0"><s:alias val="$eq"/><s:alias val="$eqx"/><circle r="12.5" cx="12.5" cy="12.5" class="cell_$procmux$38_CMP0"/><line x1="7.5" x2="17.5" y1="10" y2="10" class="cell_$procmux$38_CMP0"/><line x1="7.5" x2="17.5" y1="15" y2="15" class="cell_$procmux$38_CMP0"/><g s:x="2" s:y="5" s:pid="A"/><g s:x="2" s:y="20" s:pid="B"/><g s:x="25" s:y="12.5" s:pid="Y"/></g><g s:type="eq" transform="translate(439,566.5)" s:width="25" s:height="25" id="cell_$procmux$39_CMP0"><s:alias val="$eq"/><s:alias val="$eqx"/><circle r="12.5" cx="12.5" cy="12.5" class="cell_$procmux$39_CMP0"/><line x1="7.5" x2="17.5" y1="10" y2="10" class="cell_$procmux$39_CMP0"/><line x1="7.5" x2="17.5" y1="15" y2="15" class="cell_$procmux$39_CMP0"/><g s:x="2" s:y="5" s:pid="A"/><g s:x="2" s:y="20" s:pid="B"/><g s:x="25" s:y="12.5" s:pid="Y"/></g><g s:type="reduce_xor" transform="translate(709.5,625.5)" s:width="33" s:height="25" id="cell_$reduce_xor$input.v:27$4"><s:alias val="$xor"/><s:alias val="$reduce_xor"/><s:alias val="$_XOR_"/><path d="M3,0 A30 25 0 0 1 3,25 A30 25 0 0 0 33,12.5 A30 25 0 0 0 3,0" class="cell_$reduce_xor$input.v:27$4"/><path d="M0,0 A30 25 0 0 1 0,25" class="cell_$reduce_xor$input.v:27$4"/><g s:x="2" s:y="5" s:pid="A"/><g s:x="2" s:y="20" s:pid="B"/><g s:x="33" s:y="12.5" s:pid="Y"/></g><g s:type="sub" transform="translate(206.66666666666666,312.5)" s:width="25" s:height="25" id="cell_$sub$input.v:16$2"><s:alias val="$sub"/><circle r="12.5" cx="12.5" cy="12.5" class="cell_$sub$input.v:16$2"/><line x1="7.5" x2="17.5" y1="12.5" y2="12.5" class="cell_$sub$input.v:16$2"/><g s:x="2" s:y="5" s:pid="A"/><g s:x="2" s:y="20" s:pid="B"/><g s:x="25" s:y="12.5" s:pid="Y"/></g><g s:type="inputExt" transform="translate(12,44.5)" s:width="30" s:height="20" id="cell_clock"><text x="15" y="-4" class="nodelabel cell_clock" s:attribute="ref">clock</text><s:alias val="$_inputExt_"/><path d="M0,0 L0,20 L15,20 L30,10 L15,0 Z" class="cell_clock"/><g s:x="30" s:y="10" s:pid="Y"/></g><g s:type="inputExt" transform="translate(342,392.5)" s:width="30" s:height="20" id="cell_data_in"><text x="15" y="-4" class="nodelabel cell_data_in" s:attribute="ref">data_in</text><s:alias val="$_inputExt_"/><path d="M0,0 L0,20 L15,20 L30,10 L15,0 Z" class="cell_data_in"/><g s:x="30" s:y="10" s:pid="Y"/></g><g s:type="inputExt" transform="translate(202,205.5)" s:width="30" s:height="20" id="cell_up"><text x="15" y="-4" class="nodelabel cell_up" s:attribute="ref">up</text><s:alias val="$_inputExt_"/><path d="M0,0 L0,20 L15,20 L30,10 L15,0 Z" class="cell_up"/><g s:x="30" s:y="10" s:pid="Y"/></g><g s:type="inputExt" transform="translate(202,257.5)" s:width="30" s:height="20" id="cell_down"><text x="15" y="-4" class="nodelabel cell_down" s:attribute="ref">down</text><s:alias val="$_inputExt_"/><path d="M0,0 L0,20 L15,20 L30,10 L15,0 Z" class="cell_down"/><g s:x="30" s:y="10" s:pid="Y"/></g><g s:type="outputExt" transform="translate(844.5,22)" s:width="30" s:height="20" id="cell_carry_out"><text x="15" y="-4" class="nodelabel cell_carry_out" s:attribute="ref">carry_out</text><s:alias val="$_outputExt_"/><path d="M30,0 L30,20 L15,20 L0,10 L15,0 Z" class="cell_carry_out"/><g s:x="0" s:y="10" s:pid="A"/></g><g s:type="outputExt" transform="translate(844.5,97)" s:width="30" s:height="20" id="cell_borrow_out"><text x="15" y="-4" class="nodelabel cell_borrow_out" s:attribute="ref">borrow_out</text><s:alias val="$_outputExt_"/><path d="M30,0 L30,20 L15,20 L0,10 L15,0 Z" class="cell_borrow_out"/><g s:x="0" s:y="10" s:pid="A"/></g><g s:type="outputExt" transform="translate(844.5,693)" s:width="30" s:height="20" id="cell_count_out"><text x="15" y="-4" class="nodelabel cell_count_out" s:attribute="ref">count_out</text><s:alias val="$_outputExt_"/><path d="M30,0 L30,20 L15,20 L0,10 L15,0 Z" class="cell_count_out"/><g s:x="0" s:y="10" s:pid="A"/></g><g s:type="outputExt" transform="translate(844.5,628)" s:width="30" s:height="20" id="cell_parity_out"><text x="15" y="-4" class="nodelabel cell_parity_out" s:attribute="ref">parity_out</text><s:alias val="$_outputExt_"/><path d="M30,0 L30,20 L15,20 L0,10 L15,0 Z" class="cell_parity_out"/><g s:x="0" s:y="10" s:pid="A"/></g><g s:type="constant" transform="translate(95,75.5)" s:width="30" s:height="20" id="cell_11"><text x="15" y="-4" class="nodelabel cell_11" s:attribute="ref">11</text><s:alias val="$_constant_"/><rect width="30" height="20" class="cell_11"/><g s:x="31" s:y="10" s:pid="Y"/></g><g s:type="constant" transform="translate(276,374)" s:width="30" s:height="20" id="cell_10"><text x="15" y="-4" class="nodelabel cell_10" s:attribute="ref">10</text><s:alias val="$_constant_"/><rect width="30" height="20" class="cell_10"/><g s:x="31" s:y="10" s:pid="Y"/></g><g s:type="constant" transform="translate(276,519.5)" s:width="30" s:height="20" id="cell_01"><text x="15" y="-4" class="nodelabel cell_01" s:attribute="ref">01</text><s:alias val="$_constant_"/><rect width="30" height="20" class="cell_01"/><g s:x="31" s:y="10" s:pid="Y"/></g><g s:type="constant" transform="translate(276,584.5)" s:width="30" s:height="20" id="cell_00"><text x="15" y="-4" class="nodelabel cell_00" s:attribute="ref">00</text><s:alias val="$_constant_"/><rect width="30" height="20" class="cell_00"/><g s:x="31" s:y="10" s:pid="Y"/></g><g s:type="constant" transform="translate(95,325.5)" s:width="30" s:height="20" id="cell_101"><text x="15" y="-4" class="nodelabel cell_101" s:attribute="ref">101</text><s:alias val="$_constant_"/><rect width="30" height="20" class="cell_101"/><g s:x="31" s:y="10" s:pid="Y"/></g><g s:type="join" transform="translate(530,347)" s:width="4" s:height="40" id="cell_$join$,26,27,28,29,30,31,32,33,34,49,50,51,52,53,54,55,56,57,3,4,5,6,7,8,9,10,11,"><rect width="5" height="60" class="splitjoinBody" s:generic="body"/><s:alias val="$_join_"/><g s:x="5" s:y="20" s:pid="out"/><g transform="translate(0,10)" s:x="0" s:y="10" s:pid="in0"><text x="-3" y="-4" class="inputPortLabel">0:8</text></g><g transform="translate(0,30)" s:x="0" s:y="10" s:pid="in0"><text x="-3" y="-4" class="inputPortLabel">9:17</text></g><g transform="translate(0,50)" s:x="0" s:y="10" s:pid="in0"><text x="-3" y="-4" class="inputPortLabel">18:26</text></g></g><g s:type="join" transform="translate(522.75,488.5)" s:width="4" s:height="40" id="cell_$join$,58,59,60,"><rect width="5" height="60" class="splitjoinBody" s:generic="body"/><s:alias val="$_join_"/><g s:x="5" s:y="20" s:pid="out"/><g transform="translate(0,10)" s:x="0" s:y="10" s:pid="in0"><text x="-3" y="-4" class="inputPortLabel">0</text></g><g transform="translate(0,30)" s:x="0" s:y="10" s:pid="in0"><text x="-3" y="-4" class="inputPortLabel">1</text></g><g transform="translate(0,50)" s:x="0" s:y="10" s:pid="in0"><text x="-3" y="-4" class="inputPortLabel">2</text></g></g><g s:type="join" transform="translate(287.3333333333333,431)" s:width="4" s:height="40" id="cell_$join$,13,12,"><rect width="5" height="40" class="splitjoinBody" s:generic="body"/><s:alias val="$_join_"/><g s:x="5" s:y="20" s:pid="out"/><g transform="translate(0,10)" s:x="0" s:y="10" s:pid="in0"><text x="-3" y="-4" class="inputPortLabel">0</text></g><g transform="translate(0,30)" s:x="0" s:y="10" s:pid="in0"><text x="-3" y="-4" class="inputPortLabel">1</text></g></g><g s:type="split" transform="translate(367.6666666666667,127.5)" s:width="5" s:height="40" id="cell_$split$,26,27,28,29,30,31,32,33,34,35,"><rect width="5" height="40" class="splitjoinBody" s:generic="body"/><s:alias val="$_split_"/><g s:x="0" s:y="20" s:pid="in"/><g transform="translate(4,10)" s:x="4" s:y="10" s:pid="out0"><text x="5" y="-4">9</text></g><g transform="translate(4,30)" s:x="4" s:y="10" s:pid="out0"><text x="5" y="-4">0:8</text></g></g><g s:type="split" transform="translate(367.6666666666667,304.5)" s:width="5" s:height="40" id="cell_$split$,49,50,51,52,53,54,55,56,57,37,"><rect width="5" height="40" class="splitjoinBody" s:generic="body"/><s:alias val="$_split_"/><g s:x="0" s:y="20" s:pid="in"/><g transform="translate(4,10)" s:x="4" s:y="10" s:pid="out0"><text x="5" y="-4">9</text></g><g transform="translate(4,30)" s:x="4" s:y="10" s:pid="out0"><text x="5" y="-4">0:8</text></g></g><line x1="128" y1="140.5" x2="208.66666666666666" y2="140.5" class="net_16,17,18,19,20,21,22,23,24 width_9" style="stroke-width: 2"/><line x1="128" y1="140.5" x2="138" y2="140.5" class="net_16,17,18,19,20,21,22,23,24 width_9" style="stroke-width: 2"/><line x1="138" y1="140.5" x2="138" y2="236.5" class="net_16,17,18,19,20,21,22,23,24 width_9" style="stroke-width: 2"/><line x1="138" y1="236.5" x2="419" y2="236.5" class="net_16,17,18,19,20,21,22,23,24 width_9" style="stroke-width: 2"/><line x1="419" y1="236.5" x2="419" y2="336" class="net_16,17,18,19,20,21,22,23,24 width_9" style="stroke-width: 2"/><line x1="419" y1="336" x2="610" y2="336" class="net_16,17,18,19,20,21,22,23,24 width_9" style="stroke-width: 2"/><circle cx="138" cy="140.5" r="3" class="net_16,17,18,19,20,21,22,23,24 width_9 junction"/><circle cx="138" cy="236.5" r="3" class="net_16,17,18,19,20,21,22,23,24 width_9 junction"/><line x1="128" y1="140.5" x2="138" y2="140.5" class="net_16,17,18,19,20,21,22,23,24 width_9" style="stroke-width: 2"/><line x1="138" y1="140.5" x2="138" y2="317.5" class="net_16,17,18,19,20,21,22,23,24 width_9" style="stroke-width: 2"/><line x1="138" y1="317.5" x2="208.66666666666666" y2="317.5" class="net_16,17,18,19,20,21,22,23,24 width_9" style="stroke-width: 2"/><circle cx="138" cy="317.5" r="3" class="net_16,17,18,19,20,21,22,23,24 width_9 junction"/><line x1="128" y1="140.5" x2="138" y2="140.5" class="net_16,17,18,19,20,21,22,23,24 width_9" style="stroke-width: 2"/><line x1="138" y1="140.5" x2="138" y2="703" class="net_16,17,18,19,20,21,22,23,24 width_9" style="stroke-width: 2"/><line x1="138" y1="703" x2="844.5" y2="703" class="net_16,17,18,19,20,21,22,23,24 width_9" style="stroke-width: 2"/><line x1="126" y1="85.5" x2="148" y2="85.5" class="net_61,62 width_2" style="stroke-width: 2"/><line x1="148" y1="85.5" x2="148" y2="158.5" class="net_61,62 width_2" style="stroke-width: 2"/><line x1="148" y1="158.5" x2="177" y2="158.5" class="net_61,62 width_2" style="stroke-width: 2"/><line x1="177" y1="158.5" x2="177" y2="155.5" class="net_61,62 width_2" style="stroke-width: 2"/><line x1="177" y1="155.5" x2="208.66666666666666" y2="155.5" class="net_61,62 width_2" style="stroke-width: 2"/><line x1="232" y1="215.5" x2="251" y2="215.5" class="net_12 width_1" style="stroke-width: 1"/><line x1="251" y1="215.5" x2="251" y2="24.5" class="net_12 width_1" style="stroke-width: 1"/><line x1="251" y1="24.5" x2="710.5" y2="24.5" class="net_12 width_1" style="stroke-width: 1"/><circle cx="251" cy="215.5" r="2" class="net_12 width_1 junction"/><line x1="232" y1="215.5" x2="251" y2="215.5" class="net_12 width_1" style="stroke-width: 1"/><line x1="251" y1="215.5" x2="251" y2="461.5" class="net_12 width_1" style="stroke-width: 1"/><line x1="251" y1="461.5" x2="287.3333333333333" y2="461.5" class="net_12 width_1" style="stroke-width: 1"/><line x1="372.6666666666667" y1="138" x2="409" y2="138" class="net_35 width_1" style="stroke-width: 1"/><line x1="409" y1="138" x2="409" y2="39.5" class="net_35 width_1" style="stroke-width: 1"/><line x1="409" y1="39.5" x2="710.5" y2="39.5" class="net_35 width_1" style="stroke-width: 1"/><line x1="232" y1="267.5" x2="261" y2="267.5" class="net_13 width_1" style="stroke-width: 1"/><line x1="261" y1="267.5" x2="261" y2="99.5" class="net_13 width_1" style="stroke-width: 1"/><line x1="261" y1="99.5" x2="710.5" y2="99.5" class="net_13 width_1" style="stroke-width: 1"/><circle cx="261" cy="267.5" r="2" class="net_13 width_1 junction"/><line x1="232" y1="267.5" x2="261" y2="267.5" class="net_13 width_1" style="stroke-width: 1"/><line x1="261" y1="267.5" x2="261" y2="441.5" class="net_13 width_1" style="stroke-width: 1"/><line x1="261" y1="441.5" x2="287.3333333333333" y2="441.5" class="net_13 width_1" style="stroke-width: 1"/><line x1="372.6666666666667" y1="315" x2="684.5" y2="315" class="net_37 width_1" style="stroke-width: 1"/><line x1="684.5" y1="315" x2="684.5" y2="114.5" class="net_37 width_1" style="stroke-width: 1"/><line x1="684.5" y1="114.5" x2="710.5" y2="114.5" class="net_37 width_1" style="stroke-width: 1"/><line x1="42" y1="54.5" x2="77" y2="54.5" class="net_2 width_1" style="stroke-width: 1"/><line x1="77" y1="54.5" x2="77" y2="160.5" class="net_2 width_1" style="stroke-width: 1"/><line x1="77" y1="160.5" x2="92" y2="160.5" class="net_2 width_1" style="stroke-width: 1"/><circle cx="77" cy="54.5" r="2" class="net_2 width_1 junction"/><circle cx="77" cy="160.5" r="2" class="net_2 width_1 junction"/><line x1="42" y1="54.5" x2="752.5" y2="54.5" class="net_2 width_1" style="stroke-width: 1"/><line x1="752.5" y1="54.5" x2="752.5" y2="52" class="net_2 width_1" style="stroke-width: 1"/><line x1="752.5" y1="52" x2="777.5" y2="52" class="net_2 width_1" style="stroke-width: 1"/><line x1="42" y1="54.5" x2="77" y2="54.5" class="net_2 width_1" style="stroke-width: 1"/><line x1="77" y1="54.5" x2="77" y2="614.5" class="net_2 width_1" style="stroke-width: 1"/><line x1="77" y1="614.5" x2="752.5" y2="614.5" class="net_2 width_1" style="stroke-width: 1"/><line x1="752.5" y1="614.5" x2="752.5" y2="127" class="net_2 width_1" style="stroke-width: 1"/><line x1="752.5" y1="127" x2="777.5" y2="127" class="net_2 width_1" style="stroke-width: 1"/><circle cx="77" cy="614.5" r="2" class="net_2 width_1 junction"/><line x1="42" y1="54.5" x2="77" y2="54.5" class="net_2 width_1" style="stroke-width: 1"/><line x1="77" y1="54.5" x2="77" y2="660.5" class="net_2 width_1" style="stroke-width: 1"/><line x1="77" y1="660.5" x2="752.5" y2="660.5" class="net_2 width_1" style="stroke-width: 1"/><line x1="752.5" y1="660.5" x2="752.5" y2="658" class="net_2 width_1" style="stroke-width: 1"/><line x1="752.5" y1="658" x2="777.5" y2="658" class="net_2 width_1" style="stroke-width: 1"/><line x1="635.5" y1="346" x2="645.5" y2="346" class="net_39,40,41,42,43,44,45,46,47 width_9" style="stroke-width: 2"/><line x1="645.5" y1="346" x2="645.5" y2="629.5" class="net_39,40,41,42,43,44,45,46,47 width_9" style="stroke-width: 2"/><line x1="645.5" y1="629.5" x2="67" y2="629.5" class="net_39,40,41,42,43,44,45,46,47 width_9" style="stroke-width: 2"/><line x1="67" y1="629.5" x2="67" y2="140.5" class="net_39,40,41,42,43,44,45,46,47 width_9" style="stroke-width: 2"/><line x1="67" y1="140.5" x2="92" y2="140.5" class="net_39,40,41,42,43,44,45,46,47 width_9" style="stroke-width: 2"/><circle cx="645.5" cy="629.5" r="3" class="net_39,40,41,42,43,44,45,46,47 width_9 junction"/><line x1="635.5" y1="346" x2="645.5" y2="346" class="net_39,40,41,42,43,44,45,46,47 width_9" style="stroke-width: 2"/><line x1="645.5" y1="346" x2="645.5" y2="630.5" class="net_39,40,41,42,43,44,45,46,47 width_9" style="stroke-width: 2"/><line x1="645.5" y1="630.5" x2="711.5" y2="630.5" class="net_39,40,41,42,43,44,45,46,47 width_9" style="stroke-width: 2"/><line x1="740.5" y1="32" x2="777.5" y2="32" class="net_36 width_1" style="stroke-width: 1"/><line x1="740.5" y1="107" x2="777.5" y2="107" class="net_38 width_1" style="stroke-width: 1"/><line x1="742.5" y1="638" x2="777.5" y2="638" class="net_48 width_1" style="stroke-width: 1"/><line x1="536" y1="377.5" x2="585" y2="377.5" class="net_26,27,28,29,30,31,32,33,34,49,50,51,52,53,54,55,56,57,3,4,5,6,7,8,9,10,11 width_27" style="stroke-width: 2"/><line x1="585" y1="377.5" x2="585" y2="356" class="net_26,27,28,29,30,31,32,33,34,49,50,51,52,53,54,55,56,57,3,4,5,6,7,8,9,10,11 width_27" style="stroke-width: 2"/><line x1="585" y1="356" x2="610" y2="356" class="net_26,27,28,29,30,31,32,33,34,49,50,51,52,53,54,55,56,57,3,4,5,6,7,8,9,10,11 width_27" style="stroke-width: 2"/><line x1="528.75" y1="519" x2="623" y2="519" class="net_58,59,60 width_3" style="stroke-width: 2"/><line x1="623" y1="519" x2="623" y2="364" class="net_58,59,60 width_3" style="stroke-width: 2"/><line x1="293.3333333333333" y1="451.5" x2="441" y2="451.5" class="net_13,12 width_2" style="stroke-width: 2"/><line x1="293.3333333333333" y1="451.5" x2="317" y2="451.5" class="net_13,12 width_2" style="stroke-width: 2"/><line x1="317" y1="451.5" x2="317" y2="511.5" class="net_13,12 width_2" style="stroke-width: 2"/><line x1="317" y1="511.5" x2="441" y2="511.5" class="net_13,12 width_2" style="stroke-width: 2"/><circle cx="317" cy="451.5" r="3" class="net_13,12 width_2 junction"/><circle cx="317" cy="511.5" r="3" class="net_13,12 width_2 junction"/><line x1="293.3333333333333" y1="451.5" x2="317" y2="451.5" class="net_13,12 width_2" style="stroke-width: 2"/><line x1="317" y1="451.5" x2="317" y2="571.5" class="net_13,12 width_2" style="stroke-width: 2"/><line x1="317" y1="571.5" x2="441" y2="571.5" class="net_13,12 width_2" style="stroke-width: 2"/><line x1="307" y1="384" x2="327" y2="384" class="net_63,64 width_2" style="stroke-width: 2"/><line x1="327" y1="384" x2="327" y2="469.5" class="net_63,64 width_2" style="stroke-width: 2"/><line x1="327" y1="469.5" x2="409" y2="469.5" class="net_63,64 width_2" style="stroke-width: 2"/><line x1="409" y1="469.5" x2="409" y2="466.5" class="net_63,64 width_2" style="stroke-width: 2"/><line x1="409" y1="466.5" x2="441" y2="466.5" class="net_63,64 width_2" style="stroke-width: 2"/><line x1="307" y1="529.5" x2="409" y2="529.5" class="net_65,66 width_2" style="stroke-width: 2"/><line x1="409" y1="529.5" x2="409" y2="526.5" class="net_65,66 width_2" style="stroke-width: 2"/><line x1="409" y1="526.5" x2="441" y2="526.5" class="net_65,66 width_2" style="stroke-width: 2"/><line x1="307" y1="594.5" x2="409" y2="594.5" class="net_67,68 width_2" style="stroke-width: 2"/><line x1="409" y1="594.5" x2="409" y2="586.5" class="net_67,68 width_2" style="stroke-width: 2"/><line x1="409" y1="586.5" x2="441" y2="586.5" class="net_67,68 width_2" style="stroke-width: 2"/><line x1="126" y1="335.5" x2="177" y2="335.5" class="net_69,70,71 width_3" style="stroke-width: 2"/><line x1="177" y1="335.5" x2="177" y2="332.5" class="net_69,70,71 width_3" style="stroke-width: 2"/><line x1="177" y1="332.5" x2="208.66666666666666" y2="332.5" class="net_69,70,71 width_3" style="stroke-width: 2"/><line x1="809.5" y1="32" x2="844.5" y2="32" class="net_14 width_1" style="stroke-width: 1"/><line x1="809.5" y1="107" x2="844.5" y2="107" class="net_15 width_1" style="stroke-width: 1"/><line x1="809.5" y1="638" x2="844.5" y2="638" class="net_25 width_1" style="stroke-width: 1"/><line x1="372.6666666666667" y1="158" x2="429" y2="158" class="net_26,27,28,29,30,31,32,33,34 width_9" style="stroke-width: 2"/><line x1="429" y1="158" x2="429" y2="351" class="net_26,27,28,29,30,31,32,33,34 width_9" style="stroke-width: 2"/><line x1="429" y1="351" x2="474" y2="351" class="net_26,27,28,29,30,31,32,33,34 width_9" style="stroke-width: 2"/><line x1="474" y1="351" x2="474" y2="357.5" class="net_26,27,28,29,30,31,32,33,34 width_9" style="stroke-width: 2"/><line x1="474" y1="357.5" x2="530" y2="357.5" class="net_26,27,28,29,30,31,32,33,34 width_9" style="stroke-width: 2"/><line x1="372.6666666666667" y1="335" x2="409" y2="335" class="net_49,50,51,52,53,54,55,56,57 width_9" style="stroke-width: 2"/><line x1="409" y1="335" x2="409" y2="377.5" class="net_49,50,51,52,53,54,55,56,57 width_9" style="stroke-width: 2"/><line x1="409" y1="377.5" x2="530" y2="377.5" class="net_49,50,51,52,53,54,55,56,57 width_9" style="stroke-width: 2"/><line x1="372" y1="402.5" x2="474" y2="402.5" class="net_3,4,5,6,7,8,9,10,11 width_9" style="stroke-width: 2"/><line x1="474" y1="402.5" x2="474" y2="397.5" class="net_3,4,5,6,7,8,9,10,11 width_9" style="stroke-width: 2"/><line x1="474" y1="397.5" x2="530" y2="397.5" class="net_3,4,5,6,7,8,9,10,11 width_9" style="stroke-width: 2"/><line x1="464" y1="459" x2="474" y2="459" class="net_58 width_1" style="stroke-width: 1"/><line x1="474" y1="459" x2="474" y2="499" class="net_58 width_1" style="stroke-width: 1"/><line x1="474" y1="499" x2="522.75" y2="499" class="net_58 width_1" style="stroke-width: 1"/><line x1="464" y1="519" x2="522.75" y2="519" class="net_59 width_1" style="stroke-width: 1"/><line x1="464" y1="579" x2="474" y2="579" class="net_60 width_1" style="stroke-width: 1"/><line x1="474" y1="579" x2="474" y2="539" class="net_60 width_1" style="stroke-width: 1"/><line x1="474" y1="539" x2="522.75" y2="539" class="net_60 width_1" style="stroke-width: 1"/><line x1="232.66666666666666" y1="148" x2="367.6666666666667" y2="148" class="net_26,27,28,29,30,31,32,33,34,35 width_10" style="stroke-width: 2"/><line x1="231.66666666666666" y1="325" x2="367.6666666666667" y2="325" class="net_49,50,51,52,53,54,55,56,57,37 width_10" style="stroke-width: 2"/><rect x="516.5" y="698" width="16" height="9" class="net_16,17,18,19,20,21,22,23,24 width_9 busLabel_9 labelBackground"/><text x="515.5" y="706" class="net_16,17,18,19,20,21,22,23,24 width_9 busLabel_9">/9/</text><rect x="516.5" y="698" width="16" height="9" class="net_16,17,18,19,20,21,22,23,24 width_9 busLabel_9 labelBackground"/><text x="515.5" y="706" class="net_16,17,18,19,20,21,22,23,24 width_9 busLabel_9">/9/</text><rect x="516.5" y="698" width="16" height="9" class="net_16,17,18,19,20,21,22,23,24 width_9 busLabel_9 labelBackground"/><text x="515.5" y="706" class="net_16,17,18,19,20,21,22,23,24 width_9 busLabel_9">/9/</text><rect x="516.5" y="698" width="16" height="9" class="net_16,17,18,19,20,21,22,23,24 width_9 busLabel_9 labelBackground"/><text x="515.5" y="706" class="net_16,17,18,19,20,21,22,23,24 width_9 busLabel_9">/9/</text><rect x="164" y="153.5" width="16" height="9" class="net_61,62 width_2 busLabel_2 labelBackground"/><text x="163" y="161.5" class="net_61,62 width_2 busLabel_2">/2/</text><rect x="671.5" y="625.5" width="16" height="9" class="net_39,40,41,42,43,44,45,46,47 width_9 busLabel_9 labelBackground"/><text x="670.5" y="633.5" class="net_39,40,41,42,43,44,45,46,47 width_9 busLabel_9">/9/</text><rect x="671.5" y="625.5" width="16" height="9" class="net_39,40,41,42,43,44,45,46,47 width_9 busLabel_9 labelBackground"/><text x="670.5" y="633.5" class="net_39,40,41,42,43,44,45,46,47 width_9 busLabel_9">/9/</text><rect x="572" y="372.5" width="22" height="9" class="net_26,27,28,29,30,31,32,33,34,49,50,51,52,53,54,55,56,57,3,4,5,6,7,8,9,10,11 width_27 busLabel_27 labelBackground"/><text x="571" y="380.5" class="net_26,27,28,29,30,31,32,33,34,49,50,51,52,53,54,55,56,57,3,4,5,6,7,8,9,10,11 width_27 busLabel_27">/27/</text><rect x="572" y="514" width="16" height="9" class="net_58,59,60 width_3 busLabel_3 labelBackground"/><text x="571" y="522" class="net_58,59,60 width_3 busLabel_3">/3/</text><rect x="369.5" y="566.5" width="16" height="9" class="net_13,12 width_2 busLabel_2 labelBackground"/><text x="368.5" y="574.5" class="net_13,12 width_2 busLabel_2">/2/</text><rect x="369.5" y="566.5" width="16" height="9" class="net_13,12 width_2 busLabel_2 labelBackground"/><text x="368.5" y="574.5" class="net_13,12 width_2 busLabel_2">/2/</text><rect x="369.5" y="566.5" width="16" height="9" class="net_13,12 width_2 busLabel_2 labelBackground"/><text x="368.5" y="574.5" class="net_13,12 width_2 busLabel_2">/2/</text><rect x="369.5" y="464.5" width="16" height="9" class="net_63,64 width_2 busLabel_2 labelBackground"/><text x="368.5" y="472.5" class="net_63,64 width_2 busLabel_2">/2/</text><rect x="369.5" y="524.5" width="16" height="9" class="net_65,66 width_2 busLabel_2 labelBackground"/><text x="368.5" y="532.5" class="net_65,66 width_2 busLabel_2">/2/</text><rect x="369.5" y="589.5" width="16" height="9" class="net_67,68 width_2 busLabel_2 labelBackground"/><text x="368.5" y="597.5" class="net_67,68 width_2 busLabel_2">/2/</text><rect x="164" y="330.5" width="16" height="9" class="net_69,70,71 width_3 busLabel_3 labelBackground"/><text x="163" y="338.5" class="net_69,70,71 width_3 busLabel_3">/3/</text><rect x="450.5" y="346" width="16" height="9" class="net_26,27,28,29,30,31,32,33,34 width_9 busLabel_9 labelBackground"/><text x="449.5" y="354" class="net_26,27,28,29,30,31,32,33,34 width_9 busLabel_9">/9/</text><rect x="450.5" y="372.5" width="16" height="9" class="net_49,50,51,52,53,54,55,56,57 width_9 busLabel_9 labelBackground"/><text x="449.5" y="380.5" class="net_49,50,51,52,53,54,55,56,57 width_9 busLabel_9">/9/</text><rect x="450.5" y="397.5" width="16" height="9" class="net_3,4,5,6,7,8,9,10,11 width_9 busLabel_9 labelBackground"/><text x="449.5" y="405.5" class="net_3,4,5,6,7,8,9,10,11 width_9 busLabel_9">/9/</text><rect x="290.5" y="143" width="22" height="9" class="net_26,27,28,29,30,31,32,33,34,35 width_10 busLabel_10 labelBackground"/><text x="289.5" y="151" class="net_26,27,28,29,30,31,32,33,34,35 width_10 busLabel_10">/10/</text><rect x="290.5" y="320" width="22" height="9" class="net_49,50,51,52,53,54,55,56,57,37 width_10 busLabel_10 labelBackground"/><text x="289.5" y="328" class="net_49,50,51,52,53,54,55,56,57,37 width_10 busLabel_10">/10/</text></svg>