<svg xmlns="http://www.w3.org/2000/svg" xmlns:xlink="http://www.w3.org/1999/xlink" xmlns:s="https://github.com/ajsb85/netlist2svg" width="1035" height="560"><style>  svg {
    stroke: #000;
    fill: none;
  }
  text {
    fill: #000;
    stroke: none;
    font-size: 10px;
    font-weight: bold;
    font-family: "Courier New", monospace;
  }
  .nodelabel {
    text-anchor: middle;
  }
  .inputPortLabel {
    text-anchor: end;
  }
  .splitjoinBody {
    fill: #000;
  }
  .junction {
    fill: #000;
  }
  .labelBackground {
    fill: #fff;
    stroke: none;
  }
  .detail, .symbol {
    stroke-linejoin: round;
    stroke-linecap: round;
  }
  .symbol {
    stroke-width: 2;
  }
  .detail {
    fill: #000;
  }
  @media (prefers-color-scheme: dark) {
    svg {
      stroke: #fff !important;
    }
    text {
      fill: #fff !important;
    }
    .splitjoinBody {
      fill: #fff !important;
    }
    .junction {
      fill: #fff !important;
    }
    .labelBackground {
      fill: #0a192f !important; /* Blueprint background or transparent */
    }
    .detail {
      fill: #fff !important;
    }
    circle, path, rect, line {
      stroke: #fff;
    }
    [style*="fill:#000"], [style*="fill:#000000"] {
      fill: #fff !important;
    }
    [style*="stroke:#000"], [style*="stroke:#000000"] {
      stroke: #fff !important;
    }
    .subModuleOdd {
      fill: #0e2238 !important;
    }
    .subModuleEven {
      fill: #16365a !important;
    }
  }
  /* Forced dark theme (used by the always-dark interactive demo). Mirrors the
     prefers-color-scheme rules above but is triggered by class="dark" on the
     root svg, so it works even when the host page/OS is not in dark mode. */
  svg.dark {
    stroke: #fff !important;
  }
  svg.dark text {
    fill: #fff !important;
  }
  svg.dark .splitjoinBody {
    fill: #fff !important;
  }
  svg.dark .junction {
    fill: #fff !important;
  }
  svg.dark .labelBackground {
    fill: #0a192f !important;
  }
  svg.dark .detail {
    fill: #fff !important;
  }
  svg.dark circle, svg.dark path, svg.dark rect, svg.dark line {
    stroke: #fff;
  }
  svg.dark .subModuleOdd {
    fill: #0e2238 !important;
  }
  svg.dark .subModuleEven {
    fill: #16365a !important;
  }
  svg.dark [style*="fill:#000"], svg.dark [style*="fill:#000000"] {
    fill: #fff !important;
  }
  svg.dark [style*="stroke:#000"], svg.dark [style*="stroke:#000000"] {
    stroke: #fff !important;
  }
  /* Forced light theme: overrides the prefers-color-scheme:dark rules above so a
     light-forced render (class="light") stays light even on a dark OS. */
  svg.light {
    stroke: #000 !important;
  }
  svg.light text {
    fill: #000 !important;
  }
  svg.light .splitjoinBody {
    fill: #000 !important;
  }
  svg.light .junction {
    fill: #000 !important;
  }
  svg.light .labelBackground {
    fill: #fff !important;
  }
  svg.light .detail {
    fill: #000 !important;
  }
  svg.light circle, svg.light path, svg.light rect, svg.light line {
    stroke: #000;
  }
  svg.light .subModuleOdd {
    fill: #e9e9e9 !important;
  }
  svg.light .subModuleEven {
    fill: #ffffff !important;
  }
  svg.light [style*="fill:#000"], svg.light [style*="fill:#000000"] {
    fill: #000 !important;
  }
  svg.light [style*="stroke:#000"], svg.light [style*="stroke:#000000"] {
    stroke: #000 !important;
  }</style><g s:type="add" transform="translate(273,65)" s:width="25" s:height="25" id="cell_$add$input.v:17$3"><s:alias val="$add"/><circle r="12.5" cx="12.5" cy="12.5" class="cell_$add$input.v:17$3"/><line x1="7.5" x2="17.5" y1="12.5" y2="12.5" class="cell_$add$input.v:17$3"/><line x1="12.5" x2="12.5" y1="7.5" y2="17.5" class="cell_$add$input.v:17$3"/><g s:x="2" s:y="5" s:pid="A"/><g s:x="2" s:y="20" s:pid="B"/><g s:x="26" s:y="12.5" s:pid="Y"/></g><g s:type="and" transform="translate(814,292)" s:width="30" s:height="25" id="cell_$and$input.v:28$5"><s:alias val="$and"/><s:alias val="$logic_and"/><s:alias val="$_AND_"/><s:alias val="$reduce_and"/><path d="M0,0 L0,25 L15,25 A15 12.5 0 0 0 15,0 Z" class="cell_$and$input.v:28$5"/><g s:x="0" s:y="5" s:pid="A"/><g s:x="0" s:y="20" s:pid="B"/><g s:x="30" s:y="12.5" s:pid="Y"/></g><g s:type="and" transform="translate(814,503)" s:width="30" s:height="25" id="cell_$and$input.v:29$6"><s:alias val="$and"/><s:alias val="$logic_and"/><s:alias val="$_AND_"/><s:alias val="$reduce_and"/><path d="M0,0 L0,25 L15,25 A15 12.5 0 0 0 15,0 Z" class="cell_$and$input.v:29$6"/><g s:x="0" s:y="5" s:pid="A"/><g s:x="0" s:y="20" s:pid="B"/><g s:x="30" s:y="12.5" s:pid="Y"/></g><g s:type="generic" transform="translate(111,207.5)" s:width="30" s:height="40" id="cell_$procdff$40"><text x="15" y="-4" class="nodelabel cell_$procdff$40" s:attribute="ref">$dff-bus-bus-bus</text><rect width="30" height="40" s:generic="body" class="cell_$procdff$40"/><g transform="translate(0,10)" s:x="0" s:y="10" s:pid="in0" id="port_$procdff$40~CLK"><text x="-3" y="-4" class="inputPortLabel cell_$procdff$40">CLK</text></g><g transform="translate(0,30)" s:x="0" s:y="10" s:pid="in0" id="port_$procdff$40~D"><text x="-3" y="-4" class="inputPortLabel cell_$procdff$40">D</text></g><g transform="translate(30,10)" s:x="30" s:y="10" s:pid="out0" id="port_$procdff$40~Q"><text x="5" y="-4" style="fill:#000; stroke:none" class="cell_$procdff$40">Q</text></g></g><g s:type="dff" transform="translate(882,294.5)" s:width="30" s:height="40" id="cell_$procdff$41"><s:alias val="$dff"/><s:alias val="$_DFF_"/><s:alias val="$_DFF_P_"/><s:alias val="$adff"/><s:alias val="$_DFF_"/><s:alias val="$_DFF_P_"/><s:alias val="$sdff"/><s:alias val="$_DFF_"/><s:alias val="$_DFF_P_"/><rect width="30" height="40" x="0" y="0" class="cell_$procdff$41"/><path d="M0,35 L5,30 L0,25" class="cell_$procdff$41"/><g s:x="31" s:y="10" s:pid="Q"/><g s:x="-1" s:y="30" s:pid="CLK"/><g s:x="-1" s:y="30" s:pid="C"/><g s:x="-1" s:y="10" s:pid="D"/><g s:x="15" s:y="40" s:pid="ARST"/><g s:x="15" s:y="40" s:pid="SRST"/></g><g s:type="dff" transform="translate(882,508)" s:width="30" s:height="40" id="cell_$procdff$42"><s:alias val="$dff"/><s:alias val="$_DFF_"/><s:alias val="$_DFF_P_"/><s:alias val="$adff"/><s:alias val="$_DFF_"/><s:alias val="$_DFF_P_"/><s:alias val="$sdff"/><s:alias val="$_DFF_"/><s:alias val="$_DFF_P_"/><rect width="30" height="40" x="0" y="0" class="cell_$procdff$42"/><path d="M0,35 L5,30 L0,25" class="cell_$procdff$42"/><g s:x="31" s:y="10" s:pid="Q"/><g s:x="-1" s:y="30" s:pid="CLK"/><g s:x="-1" s:y="30" s:pid="C"/><g s:x="-1" s:y="10" s:pid="D"/><g s:x="15" s:y="40" s:pid="ARST"/><g s:x="15" s:y="40" s:pid="SRST"/></g><g s:type="dff" transform="translate(882,215.5)" s:width="30" s:height="40" id="cell_$procdff$43"><s:alias val="$dff"/><s:alias val="$_DFF_"/><s:alias val="$_DFF_P_"/><s:alias val="$adff"/><s:alias val="$_DFF_"/><s:alias val="$_DFF_P_"/><s:alias val="$sdff"/><s:alias val="$_DFF_"/><s:alias val="$_DFF_P_"/><rect width="30" height="40" x="0" y="0" class="cell_$procdff$43"/><path d="M0,35 L5,30 L0,25" class="cell_$procdff$43"/><g s:x="31" s:y="10" s:pid="Q"/><g s:x="-1" s:y="30" s:pid="CLK"/><g s:x="-1" s:y="30" s:pid="C"/><g s:x="-1" s:y="10" s:pid="D"/><g s:x="15" s:y="40" s:pid="ARST"/><g s:x="15" s:y="40" s:pid="SRST"/></g><g s:type="generic" transform="translate(658,207.5)" s:width="30" s:height="40" id="cell_$procmux$36"><text x="15" y="-4" class="nodelabel cell_$procmux$36" s:attribute="ref">$pmux-bus-bus-bus</text><rect width="30" height="60" s:generic="body" class="cell_$procmux$36"/><g transform="translate(0,10)" s:x="0" s:y="10" s:pid="in0" id="port_$procmux$36~A"><text x="-3" y="-4" class="inputPortLabel cell_$procmux$36">A</text></g><g transform="translate(0,30)" s:x="0" s:y="10" s:pid="in0" id="port_$procmux$36~B"><text x="-3" y="-4" class="inputPortLabel cell_$procmux$36">B</text></g><g transform="translate(0,50)" s:x="0" s:y="10" s:pid="in0" id="port_$procmux$36~S"><text x="-3" y="-4" class="inputPortLabel cell_$procmux$36">S</text></g><g transform="translate(30,10)" s:x="30" s:y="10" s:pid="out0" id="port_$procmux$36~Y"><text x="5" y="-4" style="fill:#000; stroke:none" class="cell_$procmux$36">Y</text></g></g><g s:type="eq" transform="translate(480,308)" s:width="25" s:height="25" id="cell_$procmux$37_CMP0"><s:alias val="$eq"/><s:alias val="$eqx"/><circle r="12.5" cx="12.5" cy="12.5" class="cell_$procmux$37_CMP0"/><line x1="7.5" x2="17.5" y1="10" y2="10" class="cell_$procmux$37_CMP0"/><line x1="7.5" x2="17.5" y1="15" y2="15" class="cell_$procmux$37_CMP0"/><g s:x="2" s:y="5" s:pid="A"/><g s:x="2" s:y="20" s:pid="B"/><g s:x="25" s:y="12.5" s:pid="Y"/></g><g s:type="eq" transform="translate(480,428)" s:width="25" s:height="25" id="cell_$procmux$38_CMP0"><s:alias val="$eq"/><s:alias val="$eqx"/><circle r="12.5" cx="12.5" cy="12.5" class="cell_$procmux$38_CMP0"/><line x1="7.5" x2="17.5" y1="10" y2="10" class="cell_$procmux$38_CMP0"/><line x1="7.5" x2="17.5" y1="15" y2="15" class="cell_$procmux$38_CMP0"/><g s:x="2" s:y="5" s:pid="A"/><g s:x="2" s:y="20" s:pid="B"/><g s:x="25" s:y="12.5" s:pid="Y"/></g><g s:type="eq" transform="translate(480,368)" s:width="25" s:height="25" id="cell_$procmux$39_CMP0"><s:alias val="$eq"/><s:alias val="$eqx"/><circle r="12.5" cx="12.5" cy="12.5" class="cell_$procmux$39_CMP0"/><line x1="7.5" x2="17.5" y1="10" y2="10" class="cell_$procmux$39_CMP0"/><line x1="7.5" x2="17.5" y1="15" y2="15" class="cell_$procmux$39_CMP0"/><g s:x="2" s:y="5" s:pid="A"/><g s:x="2" s:y="20" s:pid="B"/><g s:x="25" s:y="12.5" s:pid="Y"/></g><g s:type="reduce_xor" transform="translate(813,213)" s:width="33" s:height="25" id="cell_$reduce_xor$input.v:27$4"><s:alias val="$xor"/><s:alias val="$reduce_xor"/><s:alias val="$_XOR_"/><path d="M3,0 A30 25 0 0 1 3,25 A30 25 0 0 0 33,12.5 A30 25 0 0 0 3,0" class="cell_$reduce_xor$input.v:27$4"/><path d="M0,0 A30 25 0 0 1 0,25" class="cell_$reduce_xor$input.v:27$4"/><g s:x="2" s:y="5" s:pid="A"/><g s:x="2" s:y="20" s:pid="B"/><g s:x="33" s:y="12.5" s:pid="Y"/></g><g s:type="sub" transform="translate(273,144)" s:width="25" s:height="25" id="cell_$sub$input.v:16$2"><s:alias val="$sub"/><circle r="12.5" cx="12.5" cy="12.5" class="cell_$sub$input.v:16$2"/><line x1="7.5" x2="17.5" y1="12.5" y2="12.5" class="cell_$sub$input.v:16$2"/><g s:x="2" s:y="5" s:pid="A"/><g s:x="2" s:y="20" s:pid="B"/><g s:x="25" s:y="12.5" s:pid="Y"/></g><g s:type="inputExt" transform="translate(12,528)" s:width="30" s:height="20" id="cell_clock"><text x="15" y="-4" class="nodelabel cell_clock" s:attribute="ref">clock</text><s:alias val="$_inputExt_"/><path d="M0,0 L0,20 L15,20 L30,10 L15,0 Z" class="cell_clock"/><g s:x="30" s:y="10" s:pid="Y"/></g><g s:type="inputExt" transform="translate(388,267)" s:width="30" s:height="20" id="cell_data_in"><text x="15" y="-4" class="nodelabel cell_data_in" s:attribute="ref">data_in</text><s:alias val="$_inputExt_"/><path d="M0,0 L0,20 L15,20 L30,10 L15,0 Z" class="cell_data_in"/><g s:x="30" s:y="10" s:pid="Y"/></g><g s:type="inputExt" transform="translate(266,433)" s:width="30" s:height="20" id="cell_up"><text x="15" y="-4" class="nodelabel cell_up" s:attribute="ref">up</text><s:alias val="$_inputExt_"/><path d="M0,0 L0,20 L15,20 L30,10 L15,0 Z" class="cell_up"/><g s:x="30" s:y="10" s:pid="Y"/></g><g s:type="inputExt" transform="translate(266,498)" s:width="30" s:height="20" id="cell_down"><text x="15" y="-4" class="nodelabel cell_down" s:attribute="ref">down</text><s:alias val="$_inputExt_"/><path d="M0,0 L0,20 L15,20 L30,10 L15,0 Z" class="cell_down"/><g s:x="30" s:y="10" s:pid="Y"/></g><g s:type="outputExt" transform="translate(948,294.5)" s:width="30" s:height="20" id="cell_carry_out"><text x="15" y="-4" class="nodelabel cell_carry_out" s:attribute="ref">carry_out</text><s:alias val="$_outputExt_"/><path d="M30,0 L30,20 L15,20 L0,10 L15,0 Z" class="cell_carry_out"/><g s:x="0" s:y="10" s:pid="A"/></g><g s:type="outputExt" transform="translate(948,508)" s:width="30" s:height="20" id="cell_borrow_out"><text x="15" y="-4" class="nodelabel cell_borrow_out" s:attribute="ref">borrow_out</text><s:alias val="$_outputExt_"/><path d="M30,0 L30,20 L15,20 L0,10 L15,0 Z" class="cell_borrow_out"/><g s:x="0" s:y="10" s:pid="A"/></g><g s:type="outputExt" transform="translate(948,101)" s:width="30" s:height="20" id="cell_count_out"><text x="15" y="-4" class="nodelabel cell_count_out" s:attribute="ref">count_out</text><s:alias val="$_outputExt_"/><path d="M30,0 L30,20 L15,20 L0,10 L15,0 Z" class="cell_count_out"/><g s:x="0" s:y="10" s:pid="A"/></g><g s:type="outputExt" transform="translate(948,215.5)" s:width="30" s:height="20" id="cell_parity_out"><text x="15" y="-4" class="nodelabel cell_parity_out" s:attribute="ref">parity_out</text><s:alias val="$_outputExt_"/><path d="M30,0 L30,20 L15,20 L0,10 L15,0 Z" class="cell_parity_out"/><g s:x="0" s:y="10" s:pid="A"/></g><g s:type="join" transform="translate(571,136)" s:width="4" s:height="40" id="cell_$join$,26,27,28,29,30,31,32,33,34,49,50,51,52,53,54,55,56,57,3,4,5,6,7,8,9,10,11,"><rect width="5" height="60" class="splitjoinBody" s:generic="body"/><s:alias val="$_join_"/><g s:x="5" s:y="20" s:pid="out"/><g transform="translate(0,10)" s:x="0" s:y="10" s:pid="in0"><text x="-3" y="-4" class="inputPortLabel">0:8</text></g><g transform="translate(0,30)" s:x="0" s:y="10" s:pid="in0"><text x="-3" y="-4" class="inputPortLabel">9:17</text></g><g transform="translate(0,50)" s:x="0" s:y="10" s:pid="in0"><text x="-3" y="-4" class="inputPortLabel">18:26</text></g></g><g s:type="join" transform="translate(563.75,330)" s:width="4" s:height="40" id="cell_$join$,58,59,60,"><rect width="5" height="60" class="splitjoinBody" s:generic="body"/><s:alias val="$_join_"/><g s:x="5" s:y="20" s:pid="out"/><g transform="translate(0,10)" s:x="0" s:y="10" s:pid="in0"><text x="-3" y="-4" class="inputPortLabel">0</text></g><g transform="translate(0,30)" s:x="0" s:y="10" s:pid="in0"><text x="-3" y="-4" class="inputPortLabel">1</text></g><g transform="translate(0,50)" s:x="0" s:y="10" s:pid="in0"><text x="-3" y="-4" class="inputPortLabel">2</text></g></g><g s:type="join" transform="translate(347,412.5)" s:width="4" s:height="40" id="cell_$join$,13,12,"><rect width="5" height="40" class="splitjoinBody" s:generic="body"/><s:alias val="$_join_"/><g s:x="5" s:y="20" s:pid="out"/><g transform="translate(0,10)" s:x="0" s:y="10" s:pid="in0"><text x="-3" y="-4" class="inputPortLabel">0</text></g><g transform="translate(0,30)" s:x="0" s:y="10" s:pid="in0"><text x="-3" y="-4" class="inputPortLabel">1</text></g></g><g s:type="split" transform="translate(413.6666666666667,57)" s:width="5" s:height="40" id="cell_$split$,26,27,28,29,30,31,32,33,34,35,"><rect width="5" height="40" class="splitjoinBody" s:generic="body"/><s:alias val="$_split_"/><g s:x="0" s:y="20" s:pid="in"/><g transform="translate(4,10)" s:x="4" s:y="10" s:pid="out0"><text x="5" y="-4">9</text></g><g transform="translate(4,30)" s:x="4" s:y="10" s:pid="out0"><text x="5" y="-4">0:8</text></g></g><g s:type="split" transform="translate(413.6666666666667,136)" s:width="5" s:height="40" id="cell_$split$,49,50,51,52,53,54,55,56,57,37,"><rect width="5" height="40" class="splitjoinBody" s:generic="body"/><s:alias val="$_split_"/><g s:x="0" s:y="20" s:pid="in"/><g transform="translate(4,10)" s:x="4" s:y="10" s:pid="out0"><text x="5" y="-4">9</text></g><g transform="translate(4,30)" s:x="4" s:y="10" s:pid="out0"><text x="5" y="-4">0:8</text></g></g><line x1="142" y1="218" x2="202" y2="218" class="net_16,17,18,19,20,21,22,23,24 width_9" style="stroke-width: 2"/><line x1="202" y1="218" x2="202" y2="70" class="net_16,17,18,19,20,21,22,23,24 width_9" style="stroke-width: 2"/><line x1="202" y1="70" x2="275" y2="70" class="net_16,17,18,19,20,21,22,23,24 width_9" style="stroke-width: 2"/><circle cx="202" cy="218" r="3" class="net_16,17,18,19,20,21,22,23,24 width_9 junction"/><line x1="142" y1="218" x2="658" y2="218" class="net_16,17,18,19,20,21,22,23,24 width_9" style="stroke-width: 2"/><line x1="142" y1="218" x2="202" y2="218" class="net_16,17,18,19,20,21,22,23,24 width_9" style="stroke-width: 2"/><line x1="202" y1="218" x2="202" y2="149" class="net_16,17,18,19,20,21,22,23,24 width_9" style="stroke-width: 2"/><line x1="202" y1="149" x2="275" y2="149" class="net_16,17,18,19,20,21,22,23,24 width_9" style="stroke-width: 2"/><circle cx="202" cy="149" r="3" class="net_16,17,18,19,20,21,22,23,24 width_9 junction"/><line x1="142" y1="218" x2="202" y2="218" class="net_16,17,18,19,20,21,22,23,24 width_9" style="stroke-width: 2"/><line x1="202" y1="218" x2="202" y2="111" class="net_16,17,18,19,20,21,22,23,24 width_9" style="stroke-width: 2"/><line x1="202" y1="111" x2="948" y2="111" class="net_16,17,18,19,20,21,22,23,24 width_9" style="stroke-width: 2"/><circle cx="202" cy="111" r="3" class="net_16,17,18,19,20,21,22,23,24 width_9 junction"/><line x1="296" y1="443" x2="315" y2="443" class="net_12 width_1" style="stroke-width: 1"/><line x1="315" y1="443" x2="315" y2="297" class="net_12 width_1" style="stroke-width: 1"/><line x1="315" y1="297" x2="814" y2="297" class="net_12 width_1" style="stroke-width: 1"/><circle cx="315" cy="443" r="2" class="net_12 width_1 junction"/><line x1="296" y1="443" x2="347" y2="443" class="net_12 width_1" style="stroke-width: 1"/><line x1="418.6666666666667" y1="67.5" x2="798" y2="67.5" class="net_35 width_1" style="stroke-width: 1"/><line x1="798" y1="67.5" x2="798" y2="312" class="net_35 width_1" style="stroke-width: 1"/><line x1="798" y1="312" x2="814" y2="312" class="net_35 width_1" style="stroke-width: 1"/><line x1="296" y1="508" x2="814" y2="508" class="net_13 width_1" style="stroke-width: 1"/><line x1="296" y1="508" x2="325" y2="508" class="net_13 width_1" style="stroke-width: 1"/><line x1="325" y1="508" x2="325" y2="423" class="net_13 width_1" style="stroke-width: 1"/><line x1="325" y1="423" x2="347" y2="423" class="net_13 width_1" style="stroke-width: 1"/><circle cx="325" cy="508" r="2" class="net_13 width_1 junction"/><line x1="418.6666666666667" y1="146.5" x2="455" y2="146.5" class="net_37 width_1" style="stroke-width: 1"/><line x1="455" y1="146.5" x2="455" y2="125" class="net_37 width_1" style="stroke-width: 1"/><line x1="455" y1="125" x2="788" y2="125" class="net_37 width_1" style="stroke-width: 1"/><line x1="788" y1="125" x2="788" y2="523" class="net_37 width_1" style="stroke-width: 1"/><line x1="788" y1="523" x2="814" y2="523" class="net_37 width_1" style="stroke-width: 1"/><line x1="42" y1="538" x2="77" y2="538" class="net_2 width_1" style="stroke-width: 1"/><line x1="77" y1="538" x2="77" y2="218" class="net_2 width_1" style="stroke-width: 1"/><line x1="77" y1="218" x2="111" y2="218" class="net_2 width_1" style="stroke-width: 1"/><circle cx="77" cy="538" r="2" class="net_2 width_1 junction"/><line x1="42" y1="538" x2="856" y2="538" class="net_2 width_1" style="stroke-width: 1"/><line x1="856" y1="538" x2="856" y2="324.5" class="net_2 width_1" style="stroke-width: 1"/><line x1="856" y1="324.5" x2="881" y2="324.5" class="net_2 width_1" style="stroke-width: 1"/><circle cx="856" cy="324.5" r="2" class="net_2 width_1 junction"/><line x1="42" y1="538" x2="881" y2="538" class="net_2 width_1" style="stroke-width: 1"/><line x1="42" y1="538" x2="856" y2="538" class="net_2 width_1" style="stroke-width: 1"/><line x1="856" y1="538" x2="856" y2="245.5" class="net_2 width_1" style="stroke-width: 1"/><line x1="856" y1="245.5" x2="881" y2="245.5" class="net_2 width_1" style="stroke-width: 1"/><circle cx="856" cy="538" r="2" class="net_2 width_1 junction"/><line x1="689" y1="218" x2="749" y2="218" class="net_39,40,41,42,43,44,45,46,47 width_9" style="stroke-width: 2"/><line x1="749" y1="218" x2="749" y2="16" class="net_39,40,41,42,43,44,45,46,47 width_9" style="stroke-width: 2"/><line x1="749" y1="16" x2="67" y2="16" class="net_39,40,41,42,43,44,45,46,47 width_9" style="stroke-width: 2"/><line x1="67" y1="16" x2="67" y2="238" class="net_39,40,41,42,43,44,45,46,47 width_9" style="stroke-width: 2"/><line x1="67" y1="238" x2="111" y2="238" class="net_39,40,41,42,43,44,45,46,47 width_9" style="stroke-width: 2"/><circle cx="749" cy="218" r="3" class="net_39,40,41,42,43,44,45,46,47 width_9 junction"/><line x1="689" y1="218" x2="815" y2="218" class="net_39,40,41,42,43,44,45,46,47 width_9" style="stroke-width: 2"/><line x1="844" y1="304.5" x2="881" y2="304.5" class="net_36 width_1" style="stroke-width: 1"/><line x1="844" y1="515.5" x2="866" y2="515.5" class="net_38 width_1" style="stroke-width: 1"/><line x1="866" y1="515.5" x2="866" y2="518" class="net_38 width_1" style="stroke-width: 1"/><line x1="866" y1="518" x2="881" y2="518" class="net_38 width_1" style="stroke-width: 1"/><line x1="846" y1="225.5" x2="881" y2="225.5" class="net_48 width_1" style="stroke-width: 1"/><line x1="577" y1="166.5" x2="626" y2="166.5" class="net_26,27,28,29,30,31,32,33,34,49,50,51,52,53,54,55,56,57,3,4,5,6,7,8,9,10,11 width_27" style="stroke-width: 2"/><line x1="626" y1="166.5" x2="626" y2="238" class="net_26,27,28,29,30,31,32,33,34,49,50,51,52,53,54,55,56,57,3,4,5,6,7,8,9,10,11 width_27" style="stroke-width: 2"/><line x1="626" y1="238" x2="658" y2="238" class="net_26,27,28,29,30,31,32,33,34,49,50,51,52,53,54,55,56,57,3,4,5,6,7,8,9,10,11 width_27" style="stroke-width: 2"/><line x1="569.75" y1="360.5" x2="626" y2="360.5" class="net_58,59,60 width_3" style="stroke-width: 2"/><line x1="626" y1="360.5" x2="626" y2="258" class="net_58,59,60 width_3" style="stroke-width: 2"/><line x1="626" y1="258" x2="658" y2="258" class="net_58,59,60 width_3" style="stroke-width: 2"/><line x1="353" y1="433" x2="363" y2="433" class="net_13,12 width_2" style="stroke-width: 2"/><line x1="363" y1="433" x2="363" y2="313" class="net_13,12 width_2" style="stroke-width: 2"/><line x1="363" y1="313" x2="482" y2="313" class="net_13,12 width_2" style="stroke-width: 2"/><circle cx="363" cy="433" r="3" class="net_13,12 width_2 junction"/><line x1="353" y1="433" x2="482" y2="433" class="net_13,12 width_2" style="stroke-width: 2"/><line x1="353" y1="433" x2="363" y2="433" class="net_13,12 width_2" style="stroke-width: 2"/><line x1="363" y1="433" x2="363" y2="373" class="net_13,12 width_2" style="stroke-width: 2"/><line x1="363" y1="373" x2="482" y2="373" class="net_13,12 width_2" style="stroke-width: 2"/><circle cx="363" cy="373" r="3" class="net_13,12 width_2 junction"/><line x1="913" y1="304.5" x2="948" y2="304.5" class="net_14 width_1" style="stroke-width: 1"/><line x1="913" y1="518" x2="948" y2="518" class="net_15 width_1" style="stroke-width: 1"/><line x1="913" y1="225.5" x2="948" y2="225.5" class="net_25 width_1" style="stroke-width: 1"/><line x1="418.6666666666667" y1="87.5" x2="515" y2="87.5" class="net_26,27,28,29,30,31,32,33,34 width_9" style="stroke-width: 2"/><line x1="515" y1="87.5" x2="515" y2="146.5" class="net_26,27,28,29,30,31,32,33,34 width_9" style="stroke-width: 2"/><line x1="515" y1="146.5" x2="571" y2="146.5" class="net_26,27,28,29,30,31,32,33,34 width_9" style="stroke-width: 2"/><line x1="418.6666666666667" y1="166.5" x2="571" y2="166.5" class="net_49,50,51,52,53,54,55,56,57 width_9" style="stroke-width: 2"/><line x1="418" y1="277" x2="515" y2="277" class="net_3,4,5,6,7,8,9,10,11 width_9" style="stroke-width: 2"/><line x1="515" y1="277" x2="515" y2="186.5" class="net_3,4,5,6,7,8,9,10,11 width_9" style="stroke-width: 2"/><line x1="515" y1="186.5" x2="571" y2="186.5" class="net_3,4,5,6,7,8,9,10,11 width_9" style="stroke-width: 2"/><line x1="505" y1="320.5" x2="515" y2="320.5" class="net_58 width_1" style="stroke-width: 1"/><line x1="515" y1="320.5" x2="515" y2="340.5" class="net_58 width_1" style="stroke-width: 1"/><line x1="515" y1="340.5" x2="563.75" y2="340.5" class="net_58 width_1" style="stroke-width: 1"/><line x1="505" y1="440.5" x2="515" y2="440.5" class="net_59 width_1" style="stroke-width: 1"/><line x1="515" y1="440.5" x2="515" y2="360.5" class="net_59 width_1" style="stroke-width: 1"/><line x1="515" y1="360.5" x2="563.75" y2="360.5" class="net_59 width_1" style="stroke-width: 1"/><line x1="505" y1="380.5" x2="563.75" y2="380.5" class="net_60 width_1" style="stroke-width: 1"/><line x1="299" y1="77.5" x2="413.6666666666667" y2="77.5" class="net_26,27,28,29,30,31,32,33,34,35 width_10" style="stroke-width: 2"/><line x1="298" y1="156.5" x2="413.6666666666667" y2="156.5" class="net_49,50,51,52,53,54,55,56,57,37 width_10" style="stroke-width: 2"/><rect x="228" y="65" width="16" height="9" class="net_16,17,18,19,20,21,22,23,24 width_9 busLabel_9 labelBackground"/><text x="227" y="73" class="net_16,17,18,19,20,21,22,23,24 width_9 busLabel_9">/9/</text><rect x="415.5" y="213" width="16" height="9" class="net_16,17,18,19,20,21,22,23,24 width_9 busLabel_9 labelBackground"/><text x="414.5" y="221" class="net_16,17,18,19,20,21,22,23,24 width_9 busLabel_9">/9/</text><rect x="228" y="144" width="16" height="9" class="net_16,17,18,19,20,21,22,23,24 width_9 busLabel_9 labelBackground"/><text x="227" y="152" class="net_16,17,18,19,20,21,22,23,24 width_9 busLabel_9">/9/</text><rect x="557.5" y="106" width="16" height="9" class="net_16,17,18,19,20,21,22,23,24 width_9 busLabel_9 labelBackground"/><text x="556.5" y="114" class="net_16,17,18,19,20,21,22,23,24 width_9 busLabel_9">/9/</text><rect x="415.5" y="11" width="16" height="9" class="net_39,40,41,42,43,44,45,46,47 width_9 busLabel_9 labelBackground"/><text x="414.5" y="19" class="net_39,40,41,42,43,44,45,46,47 width_9 busLabel_9">/9/</text><rect x="775" y="213" width="16" height="9" class="net_39,40,41,42,43,44,45,46,47 width_9 busLabel_9 labelBackground"/><text x="774" y="221" class="net_39,40,41,42,43,44,45,46,47 width_9 busLabel_9">/9/</text><rect x="613" y="161.5" width="22" height="9" class="net_26,27,28,29,30,31,32,33,34,49,50,51,52,53,54,55,56,57,3,4,5,6,7,8,9,10,11 width_27 busLabel_27 labelBackground"/><text x="612" y="169.5" class="net_26,27,28,29,30,31,32,33,34,49,50,51,52,53,54,55,56,57,3,4,5,6,7,8,9,10,11 width_27 busLabel_27">/27/</text><rect x="613" y="355.5" width="16" height="9" class="net_58,59,60 width_3 busLabel_3 labelBackground"/><text x="612" y="363.5" class="net_58,59,60 width_3 busLabel_3">/3/</text><rect x="415.5" y="308" width="16" height="9" class="net_13,12 width_2 busLabel_2 labelBackground"/><text x="414.5" y="316" class="net_13,12 width_2 busLabel_2">/2/</text><rect x="415.5" y="428" width="16" height="9" class="net_13,12 width_2 busLabel_2 labelBackground"/><text x="414.5" y="436" class="net_13,12 width_2 busLabel_2">/2/</text><rect x="415.5" y="368" width="16" height="9" class="net_13,12 width_2 busLabel_2 labelBackground"/><text x="414.5" y="376" class="net_13,12 width_2 busLabel_2">/2/</text><rect x="491.5" y="82.5" width="16" height="9" class="net_26,27,28,29,30,31,32,33,34 width_9 busLabel_9 labelBackground"/><text x="490.5" y="90.5" class="net_26,27,28,29,30,31,32,33,34 width_9 busLabel_9">/9/</text><rect x="491.5" y="161.5" width="16" height="9" class="net_49,50,51,52,53,54,55,56,57 width_9 busLabel_9 labelBackground"/><text x="490.5" y="169.5" class="net_49,50,51,52,53,54,55,56,57 width_9 busLabel_9">/9/</text><rect x="491.5" y="272" width="16" height="9" class="net_3,4,5,6,7,8,9,10,11 width_9 busLabel_9 labelBackground"/><text x="490.5" y="280" class="net_3,4,5,6,7,8,9,10,11 width_9 busLabel_9">/9/</text><rect x="345.5" y="72.5" width="22" height="9" class="net_26,27,28,29,30,31,32,33,34,35 width_10 busLabel_10 labelBackground"/><text x="344.5" y="80.5" class="net_26,27,28,29,30,31,32,33,34,35 width_10 busLabel_10">/10/</text><rect x="345.5" y="151.5" width="22" height="9" class="net_49,50,51,52,53,54,55,56,57,37 width_10 busLabel_10 labelBackground"/><text x="344.5" y="159.5" class="net_49,50,51,52,53,54,55,56,57,37 width_10 busLabel_10">/10/</text></svg>