<svg xmlns="http://www.w3.org/2000/svg" xmlns:s="https://github.com/nturley/netlistsvg" xmlns:xlink="http://www.w3.org/1999/xlink"><defs id="patterns"><pattern id="gridPattern2" width="10" height="10" x="0" y="0" patternUnits="userSpaceOnUse"><path id="gridCell2" fill="none" stroke="#CCC" stroke-opacity=".8" stroke-width=".144" d="M10 0V10H0"/></pattern></defs><rect id="grid1" width="52.625" height="52.625" x="-15.262" y="-5.262" fill="url(#gridPattern2)" fill-opacity=".8" stroke="none" pointer-events="none" shape-rendering="crispEdges"/><line id="gridOH" x1="-15.262" x2="37.362" y1="180" y2="180" stroke="#666" stroke-opacity="0" stroke-width=".144" pointer-events="none"/><line id="gridOV" x1="180" x2="180" y1="-5.262" y2="47.362" stroke="#666" stroke-opacity="0" stroke-width=".144" pointer-events="none"/><g id="g1" c_para="Prefix Start`1`" c_spicecmd="TRAN`1u`1m`0`{AC`dec`10`1Hz`1Meg`{DC`0``0`0`{TF```"><g><rect width="42.1" height="62.1" x="-10" y="-10" fill="none" stroke="none"/><g c_origin="11.1,21.1" c_para="pre`Q?`name`BC548CTA`package`TO-92-3_L4.8-W3.7-P2.54-L`Contributor`LCSC`Supplier`LCSC`Supplier Part`C900802`Manufacturer`onsemi(安森美)`Manufacturer Part`BC548CTA`JLCPCB Part Class`Extended Part`"><g id="gge3" c_elec="1" c_etype="pinpart" c_origin="1.1,21.1" c_partid="part_pin" c_rotation="180" c_shapetype="group" c_show="show" c_spicepin="2"><circle cx="1.1" cy="21.1" r="2" fill="#4F4F4F" stroke="none" c_pindot="true" class="pindot"/><path fill="none" stroke="#800" stroke-width="1" d="M 1.1 21.1 h 10"/><text x="16.1" y="24.1" fill="#00F" font-family="Verdana" font-size="4pt" text-anchor="start">B</text><text x="11.1" y="20.1" fill="#00F" font-family="Verdana" font-size="4pt" text-anchor="end">2</text><circle cx="8.1" cy="21.1" r="3" fill="none" stroke="#800" stroke-width="1" display="none"/><path fill="none" stroke="#800" stroke-width="1" d="M 11.1 24.1 L 14.1 21.1 L 11.1 18.1" display="none"/></g><g id="gge10" c_elec="1" c_etype="pinpart" c_origin="21.1,1.1" c_partid="part_pin" c_rotation="90" c_shapetype="group" c_show="show" c_spicepin="1"><circle cx="21.1" cy="1.1" r="2" fill="#4F4F4F" stroke="none" c_pindot="true" class="pindot"/><path fill="none" stroke="#800" stroke-width="1" d="M 21.1 1.1 v 10"/><text x="24.1" y="16.1" fill="#00F" font-family="Verdana" font-size="4pt" text-anchor="end" transform="rotate(270,24.100000000000023,16.100000000000023)">C</text><text x="20.1" y="11.1" fill="#00F" font-family="Verdana" font-size="4pt" text-anchor="start" transform="rotate(270,20.100000000000023,11.100000000000023)">1</text><circle cx="21.1" cy="8.1" r="3" fill="none" stroke="#800" stroke-width="1" display="none"/><path fill="none" stroke="#800" stroke-width="1" d="M 18.1 11.1 L 21.1 14.1 L 24.1 11.1" display="none"/></g><g id="gge17" c_elec="1" c_etype="pinpart" c_origin="21.1,41.1" c_partid="part_pin" c_rotation="270" c_shapetype="group" c_show="show" c_spicepin="3"><circle cx="21.1" cy="41.1" r="2" fill="#4F4F4F" stroke="none" c_pindot="true" class="pindot"/><path fill="none" stroke="#800" stroke-width="1" d="M 21.1 41.1 v -10"/><text x="24.1" y="26.1" fill="#00F" font-family="Verdana" font-size="4pt" text-anchor="start" transform="rotate(270,24.100000000000023,26.100000000000023)">E</text><text x="20.1" y="31.1" fill="#00F" font-family="Verdana" font-size="4pt" text-anchor="end" transform="rotate(270,20.100000000000023,31.100000000000023)">3</text><circle cx="21.1" cy="34.1" r="3" fill="none" stroke="#800" stroke-width="1" display="none"/><path fill="none" stroke="#800" stroke-width="1" d="M 24.1 31.1 L 21.1 28.1 L 18.1 31.1" display="none"/></g><polyline id="gge24" fill="none" stroke="#800" stroke-linecap="round" stroke-width="1" points="21.1 11.1 11.1 18.1" c_shapetype="line"/><polyline id="gge25" fill="none" stroke="#800" stroke-linecap="round" stroke-width="1" points="11.1 24.1 21.1 31.1" c_shapetype="line"/><polyline id="gge26" fill="none" stroke="#800" stroke-linecap="round" stroke-width="1" points="11.1 12.1 11.1 30.1" c_shapetype="line"/><polygon id="gge27" fill="#800" stroke="#800" stroke-linecap="round" stroke-width="1" points="21.1 31.1 18.1 26.1 15.1 30.1" c_shapetype="line"/></g></g></g></svg>