<svg xmlns="http://www.w3.org/2000/svg" xmlns:s="https://github.com/nturley/netlistsvg" xmlns:xlink="http://www.w3.org/1999/xlink" width="800" height="500"><s:properties><s:layoutEngine org.eclipse.elk.layered.layering.strategy="LONGEST_PATH" org.eclipse.elk.layered.spacing.nodeNodeBetweenLayers="35" org.eclipse.elk.spacing.nodeNode="35"/><s:low_priority_alias val="$dff"/></s:properties><style>svg{stroke:#000;fill:none}text{fill:#000;stroke:none;font-size:10px;font-weight:700;font-family:&quot;Courier New&quot;,monospace}line{stroke-linecap:round}.nodelabel{text-anchor:middle}.inputPortLabel{text-anchor:end}.splitjoinBody{fill:#000}</style><g transform="translate(50, 50)" s:height="40" s:type="mux" s:width="20"><s:alias val="$pmux"/><s:alias val="$mux"/><s:alias val="$_MUX_"/><path d="M0,0 L20,10 L20,30 L0,40 Z" class="$cell_id"/><text x="5" y="32" class="nodelabel $cell_id">1</text><text x="5" y="13" class="nodelabel $cell_id">0</text></g><g transform="translate(100, 50)" s:height="40" s:type="mux-bus" s:width="24"><s:alias val="$pmux-bus"/><s:alias val="$mux-bus"/><s:alias val="$_MUX_-bus"/><path d="M0,0 L20,10 L20,30 L0,40 Z" class="$cell_id"/><path d="M4,2 L4,0 L22,9 L22,31 L4,40 L4,38" class="$cell_id"/><path d="M8,2 L8,0 L24,8 L24,32 L8,40 L8,38" class="$cell_id"/><text x="5" y="32" class="nodelabel $cell_id">1</text><text x="5" y="13" class="nodelabel $cell_id">0</text></g><g transform="translate(150,50)" s:height="25" s:type="and" s:width="30"><s:alias val="$and"/><s:alias val="$logic_and"/><s:alias val="$_AND_"/><s:alias val="$reduce_and"/><path d="M0,0 L0,25 L15,25 A15 12.5 0 0 0 15,0 Z" class="$cell_id"/></g><g transform="translate(150,100)" s:height="25" s:type="nand" s:width="30"><s:alias val="$nand"/><s:alias val="$logic_nand"/><s:alias val="$_NAND_"/><path d="M0,0 L0,25 L15,25 A15 12.5 0 0 0 15,0 Z" class="$cell_id"/><circle cx="34" cy="12.5" r="3" class="$cell_id"/></g><g transform="translate(200,50)" s:height="25" s:type="andnot" s:width="30"><s:alias val="$_ANDNOT_"/><path d="M0,0 L0,25 L15,25 A15 12.5 0 0 0 15,0 Z" class="$cell_id"/><circle cx="-3" cy="20" r="3"/></g><g transform="translate(250,50)" s:height="25" s:type="or" s:width="30"><s:alias val="$or"/><s:alias val="$logic_or"/><s:alias val="$_OR_"/><s:alias val="$reduce_or"/><s:alias val="$reduce_bool"/><path d="M0,0 A30 25 0 0 1 0,25 A30 25 0 0 0 30,12.5 A30 25 0 0 0 0,0" class="$cell_id"/></g><g transform="translate(250, 100)" s:height="25" s:type="reduce_nor" s:width="33"><s:alias val="$nor"/><s:alias val="$reduce_nor"/><s:alias val="$_NOR_"/><s:alias val="$_ORNOT_"/><path d="M0,0 A30 25 0 0 1 0,25 A30 25 0 0 0 30,12.5 A30 25 0 0 0 0,0" class="$cell_id"/><circle cx="33" cy="12.5" r="3" class="$cell_id"/></g><g transform="translate(300,50)" s:height="25" s:type="ornot" s:width="30"><s:alias val="$_ORNOT_"/><path d="M0,0 A30 25 0 0 1 0,25 A30 25 0 0 0 30,12.5 A30 25 0 0 0 0,0" class="$cell_id"/><circle cx="-1" cy="20" r="3"/></g><g transform="translate(350, 50)" s:height="25" s:type="reduce_xor" s:width="33"><s:alias val="$xor"/><s:alias val="$reduce_xor"/><s:alias val="$_XOR_"/><path d="M3,0 A30 25 0 0 1 3,25 A30 25 0 0 0 33,12.5 A30 25 0 0 0 3,0" class="$cell_id"/><path d="M0,0 A30 25 0 0 1 0,25" class="$cell_id"/></g><g transform="translate(350, 100)" s:height="25" s:type="reduce_nxor" s:width="33"><s:alias val="$xnor"/><s:alias val="$reduce_xnor"/><s:alias val="$_XNOR_"/><path d="M3,0 A30 25 0 0 1 3,25 A30 25 0 0 0 33,12.5 A30 25 0 0 0 3,0" class="$cell_id"/><path d="M0,0 A30 25 0 0 1 0,25" class="$cell_id"/><circle cx="36" cy="12.5" r="3" class="$cell_id"/></g><g transform="translate(550, 50)" s:height="30" s:type="tribuf" s:width="15"><s:alias val="$tribuf"/><s:alias val="$_TRIBUF_"/><s:alias val="tribuf-bus"/><s:alias val="$tribuf-bus"/><s:alias val="$_TRIBUF_-bus"/><path d="M0,0 L25,15 L0,30 Z" class="$cell_id"/></g><g transform="translate(450,100)" s:height="20" s:type="not" s:width="30"><s:alias val="$_NOT_"/><s:alias val="$not"/><s:alias val="$logic_not"/><path d="M0,0 L0,20 L20,10 Z" class="$cell_id"/><circle cx="24" cy="10" r="3" class="$cell_id"/></g><g transform="translate(450,50)" s:height="20" s:type="buf" s:width="30"><s:alias val="$_BUF_"/><path d="M0,0 L0,20 L20,10 Z" class="$cell_id"/></g><g transform="translate(50, 150)" s:height="25" s:type="add" s:width="25"><s:alias val="$add"/><circle cx="12.5" cy="12.5" r="12.5" class="$cell_id"/><line x1="7.5" x2="17.5" y1="12.5" y2="12.5" class="$cell_id"/><line x1="12.5" x2="12.5" y1="7.5" y2="17.5" class="$cell_id"/></g><g transform="translate(100, 150)" s:height="25" s:type="pos" s:width="25"><s:alias val="$pos"/><circle cx="12.5" cy="12.5" r="12.5" class="$cell_id"/><line x1="7.5" x2="17.5" y1="12.5" y2="12.5" class="$cell_id"/><line x1="12.5" x2="12.5" y1="7.5" y2="17.5" class="$cell_id"/></g><g transform="translate(150,150)" s:height="25" s:type="sub" s:width="25"><s:alias val="$sub"/><circle cx="12.5" cy="12.5" r="12.5" class="$cell_id"/><line x1="7.5" x2="17.5" y1="12.5" y2="12.5" class="$cell_id"/></g><g transform="translate(200,150)" s:height="25" s:type="neg" s:width="25"><s:alias val="$neg"/><circle cx="12.5" cy="12.5" r="12.5" class="$cell_id"/><line x1="7.5" x2="17.5" y1="12.5" y2="12.5" class="$cell_id"/></g><g transform="translate(250,150)" s:height="25" s:type="eq" s:width="25"><s:alias val="$eq"/><s:alias val="$eqx"/><circle cx="12.5" cy="12.5" r="12.5" class="$cell_id"/><line x1="7.5" x2="17.5" y1="10" y2="10" class="$cell_id"/><line x1="7.5" x2="17.5" y1="15" y2="15" class="$cell_id"/></g><g transform="translate(300, 150)" s:height="25" s:type="mul" s:width="25"><s:alias val="$mul"/><circle cx="12.5" cy="12.5" r="12.5" class="$cell_id"/><line x1="7.5" x2="17.5" y1="7.5" y2="17.5" class="$cell_id"/><line x1="17.5" x2="7.5" y1="7.5" y2="17.5" class="$cell_id"/></g><g transform="translate(350, 150)" s:height="25" s:type="div" s:width="25"><s:alias val="$div"/><circle cx="12.5" cy="12.5" r="12.5" class="$cell_id"/><line x1="15" x2="10" y1="7.5" y2="17.5" class="$cell_id"/></g><g transform="translate(400, 150)" s:height="25" s:type="mod" s:width="25"><s:alias val="$mod"/><circle cx="12.5" cy="12.5" r="12.5" class="$cell_id"/><line x1="15" x2="10" y1="7.5" y2="17.5" class="$cell_id"/><circle cx="8" cy="9" r="2" class="$cell_id"/><circle cx="17" cy="16" r="2" class="$cell_id"/></g><g transform="translate(450, 150)" s:height="25" s:type="pow" s:width="25"><s:alias val="$pow"/><circle cx="12.5" cy="12.5" r="12.5" class="$cell_id"/><line x1="10" x2="12.5" y1="12" y2="6" class="$cell_id"/><line x1="15" x2="12.5" y1="12" y2="6" class="$cell_id"/></g><g transform="translate(500,150)" s:height="25" s:type="ne" s:width="25"><s:alias val="$ne"/><s:alias val="$nex"/><circle cx="12.5" cy="12.5" r="12.5" class="$cell_id"/><line x1="7.5" x2="17.5" y1="10" y2="10" class="$cell_id"/><line x1="7.5" x2="17.5" y1="15" y2="15" class="$cell_id"/><line x1="9" x2="16" y1="18" y2="7" class="$cell_id"/></g><g transform="translate(50,200)" s:height="25" s:type="lt" s:width="25"><s:alias val="$lt"/><circle cx="12.5" cy="12.5" r="12.5" class="$cell_id"/><line x1="6" x2="17" y1="12" y2="7" class="$cell_id"/><line x1="6" x2="17" y1="12" y2="17" class="$cell_id"/></g><g transform="translate(100,200)" s:height="25" s:type="le" s:width="25"><s:alias val="$le"/><circle cx="12.5" cy="12.5" r="12.5" class="$cell_id"/><line x1="6" x2="17" y1="11" y2="6" class="$cell_id"/><line x1="6" x2="17" y1="11" y2="16" class="$cell_id"/><line x1="6" x2="17" y1="14" y2="19" class="$cell_id"/></g><g transform="translate(150,200)" s:height="25" s:type="ge" s:width="25"><s:alias val="$ge"/><circle cx="12" cy="12" r="12" class="$cell_id"/><line x1="8" x2="19" y1="6" y2="11" class="$cell_id"/><line x1="8" x2="19" y1="16" y2="11" class="$cell_id"/><line x1="8" x2="19" y1="19" y2="14" class="$cell_id"/></g><g transform="translate(200,200)" s:height="25" s:type="gt" s:width="25"><s:alias val="$gt"/><circle cx="12" cy="12" r="12" class="$cell_id"/><line x1="8" x2="19" y1="7" y2="12" class="$cell_id"/><line x1="8" x2="19" y1="17" y2="12" class="$cell_id"/></g><g transform="translate(250,200)" s:height="25" s:type="shr" s:width="25"><s:alias val="$shr"/><circle cx="12" cy="12" r="12" class="$cell_id"/><line x1="8" x2="13" y1="7" y2="12" class="$cell_id"/><line x1="8" x2="13" y1="17" y2="12" class="$cell_id"/><line x1="14" x2="19" y1="7" y2="12" class="$cell_id"/><line x1="14" x2="19" y1="17" y2="12" class="$cell_id"/></g><g transform="translate(300,200)" s:height="25" s:type="shl" s:width="25"><s:alias val="$shl"/><circle cx="12" cy="12" r="12" class="$cell_id"/><line x1="6" x2="11" y1="12" y2="7" class="$cell_id"/><line x1="6" x2="11" y1="12" y2="17" class="$cell_id"/><line x1="12" x2="17" y1="12" y2="7" class="$cell_id"/><line x1="12" x2="17" y1="12" y2="17" class="$cell_id"/></g><g transform="translate(350,200)" s:height="25" s:type="sshr" s:width="25"><s:alias val="$sshr"/><circle cx="12" cy="12" r="12" class="$cell_id"/><line x1="5" x2="10" y1="7" y2="12" class="$cell_id"/><line x1="5" x2="10" y1="17" y2="12" class="$cell_id"/><line x1="11" x2="16" y1="7" y2="12" class="$cell_id"/><line x1="11" x2="16" y1="17" y2="12" class="$cell_id"/><line x1="17" x2="22" y1="7" y2="12" class="$cell_id"/><line x1="17" x2="22" y1="17" y2="12" class="$cell_id"/></g><g transform="translate(400,200)" s:height="25" s:type="sshl" s:width="25"><s:alias val="$sshl"/><circle cx="12" cy="12" r="12" class="$cell_id"/><line x1="3" x2="8" y1="12" y2="7" class="$cell_id"/><line x1="3" x2="8" y1="12" y2="17" class="$cell_id"/><line x1="9" x2="14" y1="12" y2="7" class="$cell_id"/><line x1="9" x2="14" y1="12" y2="17" class="$cell_id"/><line x1="15" x2="20" y1="12" y2="7" class="$cell_id"/><line x1="15" x2="20" y1="12" y2="17" class="$cell_id"/></g><g transform="translate(50,250)" s:height="20" s:type="inputExt" s:width="30"><text x="15" y="-4" class="nodelabel $cell_id" s:attribute="ref">input</text><s:alias val="$_inputExt_"/><path d="M0,0 L0,20 L15,20 L30,10 L15,0 Z" class="$cell_id"/></g><g transform="translate(150,250)" s:height="20" s:type="constant" s:width="30"><text x="15" y="-4" class="nodelabel $cell_id" s:attribute="ref">constant</text><s:alias val="$_constant_"/><rect width="30" height="20" class="$cell_id"/></g><g transform="translate(250,250)" s:height="20" s:type="outputExt" s:width="30"><text x="15" y="-4" class="nodelabel $cell_id" s:attribute="ref">output</text><s:alias val="$_outputExt_"/><path d="M30,0 L30,20 L15,20 L0,10 L15,0 Z" class="$cell_id"/></g><g transform="translate(350,250)" s:height="40" s:type="split" s:width="5"><rect width="5" height="40" class="splitjoinBody" s:generic="body"/><s:alias val="$_split_"/><g s:pid="out0" s:x="4" s:y="10"><text x="5" y="-4" transform="translate(5, 10)">hi:lo</text></g><g s:pid="out1" s:x="4" s:y="30"><text x="5" y="-4" transform="translate(5, 30)">hi:lo</text></g></g><g transform="translate(450,250)" s:height="40" s:type="join" s:width="4"><rect width="5" height="40" class="splitjoinBody" s:generic="body"/><s:alias val="$_join_"/><g s:pid="in0" s:x="0" s:y="10"><text x="-3" y="-4" class="inputPortLabel" transform="translate(0, 10)">hi:lo</text></g><g s:pid="in1" s:x="0" s:y="30"><text x="-3" y="-4" class="inputPortLabel" transform="translate(0, 30)">hi:lo</text></g></g><g transform="translate(50,300)" s:height="40" s:type="dff" s:width="30"><s:alias val="$dff"/><s:alias val="$_DFF_"/><s:alias val="$_DFF_P_"/><s:alias val="$adff"/><s:alias val="$_DFF_"/><s:alias val="$_DFF_P_"/><s:alias val="$sdff"/><s:alias val="$_DFF_"/><s:alias val="$_DFF_P_"/><rect width="30" height="40" x="0" y="0" class="$cell_id"/><path d="M0,35 L5,30 L0,25" class="$cell_id"/></g><g transform="translate(100,300)" s:height="44" s:type="dff-bus" s:width="34"><s:alias val="$dff-bus"/><s:alias val="$_DFF_-bus"/><s:alias val="$_DFF_P_-bus"/><s:alias val="adff-bus"/><s:alias val="$adff-bus"/><s:alias val="$_DFF_-bus"/><s:alias val="$_DFF_P_-bus"/><s:alias val="sdff-bus"/><s:alias val="$sdff-bus"/><s:alias val="$_DFF_-bus"/><s:alias val="$_DFF_P_-bus"/><rect width="30" height="40" x="0" y="0" class="$cell_id"/><path d="M0,35 L5,30 L0,25" class="$cell_id"/><path d="M30,2 L32,2 L32,42 L2,42 L2,40" class="$cell_id"/><path d="M32,4 L34,4 L34,44 L4,44 L4,42" class="$cell_id"/></g><g transform="translate(150,300)" s:height="40" s:type="dffn" s:width="30"><s:alias val="$dffn"/><s:alias val="$_DFF_N_"/><rect width="30" height="40" x="0" y="0" class="$cell_id"/><path d="M0,35 L5,30 L0,25" class="$cell_id"/><circle cx="-3" cy="30" r="3" class="$cell_id"/></g><g transform="translate(200,300)" s:height="40" s:type="dffn-bus" s:width="30"><s:alias val="$dffn-bus"/><s:alias val="$_DFF_N_-bus"/><rect width="30" height="40" x="0" y="0" class="$cell_id"/><path d="M0,35 L5,30 L0,25" class="$cell_id"/><circle cx="-3" cy="30" r="3" class="$cell_id"/><path d="M30,2 L32,2 L32,42 L2,42 L2,40" class="$cell_id"/><path d="M32,4 L34,4 L34,44 L4,44 L4,42" class="$cell_id"/></g><g transform="translate(250,300)" s:height="40" s:type="dlatch" s:width="30"><s:alias val="$dlatch"/><s:alias val="$_DLATCH_"/><s:alias val="adlatch"/><s:alias val="$adlatch"/><rect width="30" height="40" x="0" y="0" class="$cell_id"/><path d="M 1,35 H 4 V 25 h 5 v 10 h 3" class="$cell_id"/></g><g transform="translate(300,300)" s:height="40" s:type="dlatch-bus" s:width="30"><s:alias val="$dlatch-bus"/><s:alias val="$_DLATCH_-bus"/><s:alias val="adlatch-bus"/><s:alias val="$adlatch-bus"/><rect width="30" height="40" x="0" y="0" class="$cell_id"/><path d="M 1,35 H 4 V 25 h 5 v 10 h 3" class="$cell_id"/><path d="M30,2 L32,2 L32,42 L2,42 L2,40" class="$cell_id"/><path d="M32,4 L34,4 L34,44 L4,44 L4,42" class="$cell_id"/></g><g transform="translate(350,300)" s:height="40" s:type="dlatchn" s:width="30"><s:alias val="$dlatchn"/><s:alias val="$_DLATCH_N_"/><rect width="30" height="40" x="0" y="0" class="$cell_id"/><path d="M 1,25 H 4 V 35 H 9 V 25 h 3" class="$cell_id"/></g><g transform="translate(400,300)" s:height="40" s:type="dlatchn-bus" s:width="30"><s:alias val="$dlatchn-bus"/><s:alias val="$_DLATCH_N_-bus"/><rect width="30" height="40" x="0" y="0" class="$cell_id"/><path d="M 1,25 H 4 V 35 H 9 V 25 h 3" class="$cell_id"/><path d="M30,2 L32,2 L32,42 L2,42 L2,40" class="$cell_id"/><path d="M32,4 L34,4 L34,44 L4,44 L4,42" class="$cell_id"/></g><g transform="translate(50, 400)" s:height="40" s:type="_AOI3_" s:width="66"><s:alias val="$_AOI3_"/><path d="M0,0 L0,25 L15,25 A15 12.5 0 0 0 15,0 Z" class="$cell_id"/><path d="M30,13 A30 25 0 0 1 30,38 A30 25 0 0 0 60,25.5 A30 25 0 0 0 30,13" class="$cell_id"/><circle cx="63" cy="25.5" r="3" class="$cell_id"/><path d="M0,32 L33,32"/></g><g transform="translate(150, 400)" s:height="40" s:type="_OAI3_" s:width="66"><s:alias val="$_OAI3_"/><path d="M30,13 L30,38 L45,38 A15 12.5 0 0 0 45,13 Z" class="$cell_id"/><path d="M0,0 A30 25 0 0 1 0,25 A30 25 0 0 0 30,12.5 A30 25 0 0 0 0,0" class="$cell_id"/><circle cx="63" cy="25.5" r="3" class="$cell_id"/><path d="M0,32 L30,32"/></g><g transform="translate(250, 400)" s:height="40" s:type="_AOI4_" s:width="66"><s:alias val="$_AOI4_"/><path d="M0,0 L0,25 L15,25 A15 12.5 0 0 0 15,0 Z" class="$cell_id"/><path d="M0,25 L0,50 L15,50 A15 12.5 0 0 0 15,25 Z" class="$cell_id"/><path d="M30,12.5 A30 25 0 0 1 30,37.5 A30 25 0 0 0 60,25.5 A30 25 0 0 0 30,12.5" class="$cell_id"/><circle cx="63" cy="25.5" r="3" class="$cell_id"/></g><g transform="translate(350, 400)" s:height="40" s:type="_OAI4_" s:width="66"><s:alias val="$_OAI4_"/><path d="M30,13 L30,38 L45,38 A15 12.5 0 0 0 45,13 Z" class="$cell_id"/><path d="M0,0 A30 25 0 0 1 0,25 A30 25 0 0 0 30,12.5 A30 25 0 0 0 0,0" class="$cell_id"/><path d="M0,25 A30 25 0 0 1 0,50 A30 25 0 0 0 30,37.5 A30 25 0 0 0 0,25" class="$cell_id"/><circle cx="63" cy="25.5" r="3" class="$cell_id"/></g><g transform="translate(550,250)" s:height="40" s:type="generic" s:width="30"><text x="15" y="-4" class="nodelabel $cell_id" s:attribute="ref">generic</text><rect width="30" height="40" class="$cell_id" s:generic="body"/><g s:pid="out0" s:x="30" s:y="10"><text x="5" y="-4" style="fill:#000;stroke:none" class="$cell_id" transform="translate(30, 10)">out0</text></g><g s:pid="out1" s:x="30" s:y="30"><text x="5" y="-4" style="fill:#000;stroke:none" class="$cell_id" transform="translate(30, 30)">out1</text></g><g s:pid="in0" s:x="0" s:y="10"><text x="-3" y="-4" class="inputPortLabel $cell_id" transform="translate(0, 10)">in0</text></g><g s:pid="in1" s:x="0" s:y="30"><text x="-3" y="-4" class="inputPortLabel $cell_id" transform="translate(0, 30)">in1</text></g></g></svg>