<svg xmlns="http://www.w3.org/2000/svg" xmlns:s="https://github.com/ajsb85/netlistsvg" xmlns:xlink="http://www.w3.org/1999/xlink"><s:properties constants="false" genericsLaterals="true" splitsAndJoins="false"><s:layoutEngine org.eclipse.elk.direction="DOWN" org.eclipse.elk.layered.compaction.postCompaction.strategy="4" org.eclipse.elk.layered.spacing.nodeNodeBetweenLayers="5" org.eclipse.elk.spacing.nodeNode="35"/></s:properties><style>svg{stroke:#000;fill:none}text{fill:#000;stroke:none;font-size:10px;font-weight:700;font-family:&quot;Courier New&quot;,monospace}.nodelabel{text-anchor:middle}.inputPortLabel{text-anchor:end}.detail,.symbol{stroke-linejoin:round;stroke-linecap:round}.symbol{stroke-width:2}.detail{fill:#000}@media (prefers-color-scheme:dark){svg{stroke:#fff}[style*=&quot;fill:#000&quot;],[style*=&quot;fill:#000000&quot;],text{fill:#fff!important}}</style><g transform="translate(5,20)" s:height="30" s:type="vcc" s:width="20"><s:alias val="vcc"/><text x="10" y="-4" class="nodelabel $cell_id" s:attribute="name">name</text><path d="M0,0 H20 L10,15 Z M10,15 V30" class="$cell_id"/></g><g transform="translate(40,35)" s:height="30" s:type="vee" s:width="20"><s:alias val="vee"/><text x="10" y="10" class="nodelabel $cell_id" s:attribute="name">name</text><path d="M0,0 H20 L10,-15 Z M10,-15 V-30" class="$cell_id"/></g><g transform="translate(80,35)" s:height="30" s:type="gnd" s:width="20"><s:alias val="gnd"/><text x="30" y="20" class="nodelabel $cell_id" s:attribute="name">name</text><path d="M0,0 H20 M3,5 H17 M7,10 H13 M10,0 V-15" class="$cell_id"/></g><g transform="translate(5,70)" s:height="20" s:type="inputExt" s:width="30"><text x="15" y="-4" class="$cell_id" s:attribute="ref">input</text><s:alias val="$_inputExt_"/><path d="M0,0 V20 H15 L30,10 15,0 Z" class="$cell_id"/></g><g transform="translate(60,70)" s:height="20" s:type="outputExt" s:width="30"><text x="15" y="-4" class="$cell_id" s:attribute="ref">output</text><s:alias val="$_outputExt_"/><path d="M30,0 V20 H15 L0,10 15,0 Z" class="$cell_id"/></g><g transform="translate(5,110)" s:height="10" s:type="resistor_h" s:width="50"><s:alias val="r_h"/><text x="25" y="-5" class="nodelabel $cell_id" s:attribute="ref">X1</text><text x="25" y="20" class="nodelabel $cell_id" s:attribute="value">Xk</text><path d="M10,0 H40 V10 H10 Z" class="symbol $cell_id"/><path d="M0,5 H10 M40,5 H50" class="connect $cell_id"/></g><g transform="translate(25,130)" s:height="50" s:type="resistor_v" s:width="10"><s:alias val="r_v"/><text x="15" y="15" class="$cell_id" s:attribute="ref">X1</text><text x="15" y="30" class="$cell_id" s:attribute="value">Xk</text><path d="M0,10 V40 H10 V10 Z" class="symbol $cell_id"/><path d="M5,0 V10 M5,40 V50" class="connect $cell_id"/></g><g transform="translate(60,100)" s:height="30" s:type="capacitor_h" s:width="50"><s:alias val="c_h"/><text x="35" y="5" class="$cell_id" s:attribute="ref">X1</text><text x="35" y="30" class="$cell_id" s:attribute="value">Xu</text><path d="M20,0 V30 M30,0 V30" class="symbol $cell_id"/><path d="M0,15 H20 M30,15 H50" class="connect $cell_id"/></g><g transform="translate(70,130)" s:height="50" s:type="capacitor_v" s:width="30"><s:alias val="c_v"/><text x="25" y="10" class="$cell_id" s:attribute="ref">X1</text><text x="25" y="45" class="$cell_id" s:attribute="value">Xu</text><path d="M0,20 H30 M0,30 H30" class="symbol $cell_id"/><path d="M15,0 V20 M15,30 V50" class="connect $cell_id"/></g><g transform="translate(115,110)" s:height="10" s:type="inductor_h" s:width="50"><s:alias val="l_h"/><text x="25" y="-5" class="nodelabel $cell_id" s:attribute="ref">X1</text><text x="25" y="20" class="nodelabel $cell_id" s:attribute="value">XpF</text><path d="M5,5 A5,5 0 0 1 15,5 A5,5 0 0 1 25,5 A5,5 0 0 1 35,5 A5,5 0 0 1 45,5" class="$cell_id"/><path d="M0,5 H5 M45,5 H50" class="connect $cell_id"/></g><g transform="translate(135,130)" s:height="50" s:type="inductor_v" s:width="10"><s:alias val="l_v"/><text x="15" y="15" class="$cell_id" s:attribute="ref">X1</text><text x="15" y="35" class="$cell_id" s:attribute="value">XpF</text><path d="M5,5 A5,5 0 0 1 5,15 A5,5 0 0 1 5,25 A5,5 0 0 1 5,35 A5,5 0 0 1 5,45" class="$cell_id"/><path d="M5,0 V5 M5,45 V50" class="connect $cell_id"/></g><g transform="translate(20,180)" s:height="52" s:type="voltage_source" s:width="32"><s:alias val="v"/><text x="35" y="20" class="$cell_id" s:attribute="ref">X1</text><text x="35" y="35" class="$cell_id" s:attribute="value">XV</text><circle cx="16" cy="26" r="16" class="symbol $cell_id"/><path d="M16,10 V42" class="detail $cell_id"/><path d="M16,0 V10 M16,42 V52" class="connect $cell_id"/></g><g transform="translate(75,180)" s:height="52" s:type="current_source" s:width="32"><s:alias val="i"/><text x="35" y="20" class="$cell_id" s:attribute="ref">X1</text><text x="35" y="35" class="$cell_id" s:attribute="value">XA</text><circle cx="16" cy="26" r="16" class="symbol $cell_id"/><path d="M0,26 H32" class="detail $cell_id"/><path d="M16,0 V10 M16,42 V52" class="connect $cell_id"/></g><g transform="translate(5,250)" s:height="20" s:type="diode_h" s:width="50"><s:alias val="d_h"/><text x="25" y="-5" class="nodelabel $cell_id" s:attribute="ref">X1</text><path d="M15,0 V20 L35,10 Z M35,0 V20" class="symbol $cell_id"/><path d="M0,10 H15 M35,10 H50" class="connect $cell_id"/></g><g transform="translate(20,280)" s:height="50" s:type="diode_v" s:width="20"><s:alias val="d_v"/><text x="25" y="25" class="$cell_id" s:attribute="ref">X1</text><path d="M0,15 H20 L10,35 Z M0,35 H20" class="symbol $cell_id"/><path d="M10,0 V15 M10,35 V50" class="connect $cell_id"/></g><g transform="translate(60,250)" s:height="20" s:type="diode_schottky_h" s:width="50"><s:alias val="d_sk_h"/><text x="25" y="-5" class="nodelabel $cell_id" s:attribute="ref">X1</text><path d="M15,0 V20 L35,10 Z M35,0 V20" class="symbol $cell_id"/><path d="M0,10 H15 M35,10 H50" class="connect $cell_id"/><path d="M35,0 H40 M35,20 H30" class="symbol $cell_id"/></g><g transform="translate(75,280)" s:height="50" s:type="diode_schottky_v" s:width="20"><s:alias val="d_sk_v"/><text x="25" y="25" class="$cell_id" s:attribute="ref">X1</text><path d="M0,15 H20 L10,35 Z M0,35 H20" class="symbol $cell_id"/><path d="M10,0 V15 M10,35 V50" class="connect $cell_id"/><path d="M0,35 V40 M20,35 V30" class="symbol $cell_id"/></g><g transform="translate(115,250)" s:height="20" s:type="diode_led_h" s:width="50"><s:alias val="d_led_h"/><text x="10" y="-5" class="nodelabel $cell_id" s:attribute="ref">X1</text><path d="M15,0 V20 L35,10 Z M35,0 V20" class="symbol $cell_id"/><path d="M0,10 H15 M35,10 H50" class="connect $cell_id"/><path d="m20,-5 7,-7" class="detail $cell_id"/><path d="m24,-12 6,-3 -3,6 z" class="detail $cell_id"/><path d="m25,0 7,-7" class="detail $cell_id"/><path d="m29,-7 6,-3 -3,6 z" class="detail $cell_id"/></g><g transform="translate(130,280)" s:height="50" s:type="diode_led_v" s:width="20"><s:alias val="d_led_v"/><text x="25" y="25" class="$cell_id" s:attribute="ref">X1</text><path d="M0,15 H20 L10,35 Z M0,35 H20" class="symbol $cell_id"/><path d="M10,0 V15 M10,35 V50" class="connect $cell_id"/><path d="m-5,20 -7,7" class="detail $cell_id"/><path d="m-12,24 -3,6 6,-3 z" class="detail $cell_id"/><path d="m0,25 -7,7" class="detail $cell_id"/><path d="m-7,29 -3,6 6,-3 z" class="detail $cell_id"/></g><g transform="translate(15,350)" s:height="32" s:type="transistor_npn" s:width="32"><s:alias val="q_npn"/><text x="35" y="20" class="$cell_id" s:attribute="ref">X1</text><circle cx="16" cy="16" r="16" class="symbol $cell_id"/><path d="M0,16 H12 M12,6 V26" class="detail $cell_id"/><path d="m12,10 11,-8" class="detail $cell_id"/><path d="m12,21 11,8" class="detail $cell_id"/><path d="m23,29 -6,-1 3,-5 z" class="$cell_id" style="fill:#000"/></g><g transform="translate(85,350)" s:height="32" s:type="transistor_pnp" s:width="32"><s:alias val="q_pnp"/><text x="35" y="20" class="$cell_id" s:attribute="ref">X1</text><circle cx="16" cy="16" r="16" class="symbol $cell_id"/><path d="M0,16 H12 M12,6 V26" class="detail $cell_id"/><path d="m12,10 11,-8" class="detail $cell_id"/><path d="m12,21 11,8" class="detail $cell_id"/><path d="m14,9 6,-1 -3,-5 z" class="$cell_id" style="fill:#000"/></g><g transform="translate(150, 400)" s:height="40" s:type="generic" s:width="30"><text x="15" y="-4" class="nodelabel $cell_id" s:attribute="ref">generic</text><rect width="30" height="40" x="0" y="0" class="$cell_id" s:generic="body"/><g s:pid="out0" s:position="right" s:x="30" s:y="10"><text x="5" y="-4" class="$cell_id" transform="translate(30,10)">out0</text></g><g s:pid="out1" s:position="right" s:x="30" s:y="30"><text x="5" y="-4" class="$cell_id" transform="translate(30,30)">out1</text></g><g s:pid="in0" s:position="left" s:x="0" s:y="10"><text x="-3" y="-4" class="inputPortLabel $cell_id" transform="translate(0,10)">in0</text></g><g s:pid="in1" s:position="left" s:x="0" s:y="30"><text x="-3" y="-4" class="inputPortLabel $cell_id" transform="translate(0,30)">in1</text></g></g><g transform="translate(20,450)" s:height="40" s:type="opamp" s:width="60"><s:alias val="op"/><text x="40" y="35" class="$cell_id" s:attribute="ref">X1</text><path d="M10,0 V40 L50,20 Z" class="symbol $cell_id"/><path d="M0,10 H10 M0,30 H10 M50,20 H60 M30,0 V10 M30,40 V30" class="connect $cell_id"/><path d="m15,10 5,0 m-2.5,-2.5 0,5" class="detail $cell_id"/><path d="m15,30 5,0" class="detail $cell_id"/></g><g transform="translate(90,450)" s:height="30" s:type="xtal" s:width="40"><s:alias val="xtal"/><text x="20" y="45" class="nodelabel $cell_id" s:attribute="ref">X1</text><rect width="10" height="30" x="15" y="0" class="symbol $cell_id"/><path d="M0,15 H10 M10,5 V25 M30,5 V25 M30,15 H40" class="$cell_id"/></g><g transform="translate(140,450)" s:height="45" s:type="transformer_1p_1s" s:width="35"><s:alias val="transformer_1p_1s"/><text x="25" y="55" class="nodelabel $cell_id" s:attribute="ref">X1</text><path d="M10,0 A5,5 0 0 1 10,10 A5,5 0 0 1 10,20 A5,5 0 0 1 10,30 A5,5 0 0 1 10,40" class="$cell_id"/><path d="M35,0 A5,5 0 0 0 35,10 A5,5 0 0 0 35,20 A5,5 0 0 0 35,30 A5,5 0 0 0 35,40" class="$cell_id"/><path d="M20,0 V40 M25,0 V40" class="symbol $cell_id"/><path d="M0,0 H10 M0,40 H10 M35,0 H45 M35,40 H45" class="connect $cell_id"/></g><g s:height="62.1" s:type="BC548CTA" s:width="42.1"><s:alias val="BC548CTA"/><text x="35" y="20" class="$cell_id" s:attribute="ref">X1</text><text x="35" y="35" class="$cell_id" s:attribute="value">X</text><rect width="42.1" height="62.1" x="-10" y="-10" fill="none" stroke="none" class="symbol $cell_id"/><g id="gge3" c_elec="1" c_etype="pinpart" c_origin="1.1,21.1" c_partid="part_pin" c_rotation="180" c_shapetype="group" c_show="show" c_spicepin="2" s:pid="B" s:x="1.1" s:y="21.1"><circle cx="1.1" cy="21.1" r="2" c_pindot="true" class="pindot"/><path fill="none" d="M 1.1 21.1 h 10" class="connect $cell_id"/><circle cx="8.1" cy="21.1" r="3" fill="none" stroke-width="1" display="none"/><path fill="none" stroke-width="1" d="M 11.1 24.1 L 14.1 21.1 L 11.1 18.1" display="none"/></g><g id="gge10" c_elec="1" c_etype="pinpart" c_origin="21.1,1.1" c_partid="part_pin" c_rotation="90" c_shapetype="group" c_show="show" c_spicepin="1" s:pid="C" s:x="21.1" s:y="1.1"><circle cx="21.1" cy="1.1" r="2" c_pindot="true" class="pindot"/><path fill="none" d="M 21.1 1.1 v 10" class="connect $cell_id"/><circle cx="21.1" cy="8.1" r="3" fill="none" stroke-width="1" display="none"/><path fill="none" stroke-width="1" d="M 18.1 11.1 L 21.1 14.1 L 24.1 11.1" display="none"/></g><g id="gge17" c_elec="1" c_etype="pinpart" c_origin="21.1,41.1" c_partid="part_pin" c_rotation="270" c_shapetype="group" c_show="show" c_spicepin="3" s:pid="E" s:x="21.1" s:y="41.1"><circle cx="21.1" cy="41.1" r="2" c_pindot="true" class="pindot"/><path fill="none" d="M 21.1 41.1 v -10" class="connect $cell_id"/><circle cx="21.1" cy="34.1" r="3" fill="none" stroke-width="1" display="none"/><path fill="none" stroke-width="1" d="M 24.1 31.1 L 21.1 28.1 L 18.1 31.1" display="none"/></g><polyline id="gge24" fill="none" stroke-linecap="round" stroke-width="1" points="21.1 11.1 11.1 18.1" class="detail $cell_id"/><polyline id="gge25" fill="none" stroke-linecap="round" stroke-width="1" points="11.1 24.1 21.1 31.1" class="detail $cell_id"/><polyline id="gge26" fill="none" stroke-linecap="round" stroke-width="1" points="11.1 12.1 11.1 30.1" class="detail $cell_id"/><polygon id="gge27" fill="#800" stroke-linecap="round" stroke-width="1" points="21.1 31.1 18.1 26.1 15.1 30.1" class="symbol $cell_id"/></g></svg>