<svg xmlns="http://www.w3.org/2000/svg" xmlns:s="https://github.com/nturley/netlistsvg" xmlns:xlink="http://www.w3.org/1999/xlink" width="307" height="314.5"><style>svg{stroke:#000;fill:none}text{fill:#000;stroke:none;font-size:10px;font-weight:700;font-family:&quot;Courier New&quot;,monospace}.nodelabel{text-anchor:middle}.inputPortLabel{text-anchor:end}@media (prefers-color-scheme:dark){svg{stroke:#fff}[style*=&quot;fill:#000&quot;],[style*=&quot;fill:#000000&quot;],text{fill:#fff!important}}</style><g id="cell_mux0" transform="translate(101,22)" s:height="40" s:type="generic" s:width="30"><text x="15" y="-4" class="nodelabel cell_mux0" s:attribute="ref">MUX2</text><rect width="30" height="60" class="cell_mux0" s:generic="body"/><g id="mux0~I0" s:pid="in0" s:x="0" s:y="10"><text x="-3" y="-4" class="inputPortLabel cell_mux0" transform="translate(0,10)">I0</text></g><g id="mux0~I1" s:pid="in0" s:x="0" s:y="10"><text x="-3" y="-4" class="inputPortLabel cell_mux0" transform="translate(0,30)">I1</text></g><g id="mux0~S0" s:pid="in0" s:x="0" s:y="10"><text x="-3" y="-4" class="inputPortLabel cell_mux0" transform="translate(0,50)">S0</text></g><g id="mux0~O" s:pid="out0" s:x="30" s:y="10"><text x="5" y="-4" style="fill:#000;stroke:none" class="cell_mux0" transform="translate(30,10)">O</text></g></g><g id="cell_mux1" transform="translate(101,152)" s:height="40" s:type="generic" s:width="30"><text x="15" y="-4" class="nodelabel cell_mux1" s:attribute="ref">MUX2</text><rect width="30" height="60" class="cell_mux1" s:generic="body"/><g id="mux1~I0" s:pid="in0" s:x="0" s:y="10"><text x="-3" y="-4" class="inputPortLabel cell_mux1" transform="translate(0,10)">I0</text></g><g id="mux1~I1" s:pid="in0" s:x="0" s:y="10"><text x="-3" y="-4" class="inputPortLabel cell_mux1" transform="translate(0,30)">I1</text></g><g id="mux1~S0" s:pid="in0" s:x="0" s:y="10"><text x="-3" y="-4" class="inputPortLabel cell_mux1" transform="translate(0,50)">S0</text></g><g id="mux1~O" s:pid="out0" s:x="30" s:y="10"><text x="5" y="-4" style="fill:#000;stroke:none" class="cell_mux1" transform="translate(30,10)">O</text></g></g><g id="cell_mux_out" transform="translate(188,22)" s:height="40" s:type="generic" s:width="30"><text x="15" y="-4" class="nodelabel cell_mux_out" s:attribute="ref">MUX2</text><rect width="30" height="60" class="cell_mux_out" s:generic="body"/><g id="mux_out~I0" s:pid="in0" s:x="0" s:y="10"><text x="-3" y="-4" class="inputPortLabel cell_mux_out" transform="translate(0,10)">I0</text></g><g id="mux_out~I1" s:pid="in0" s:x="0" s:y="10"><text x="-3" y="-4" class="inputPortLabel cell_mux_out" transform="translate(0,30)">I1</text></g><g id="mux_out~S0" s:pid="in0" s:x="0" s:y="10"><text x="-3" y="-4" class="inputPortLabel cell_mux_out" transform="translate(0,50)">S0</text></g><g id="mux_out~O" s:pid="out0" s:x="30" s:y="10"><text x="5" y="-4" style="fill:#000;stroke:none" class="cell_mux_out" transform="translate(30,10)">O</text></g></g><g id="cell_I0" transform="translate(12,22.5)" s:height="20" s:type="inputExt" s:width="30"><text x="15" y="-4" class="nodelabel cell_I0" s:attribute="ref">I0</text><s:alias val="$_inputExt_"/><path d="M0,0 L0,20 L15,20 L30,10 L15,0 Z" class="cell_I0"/></g><g id="cell_I1" transform="translate(12,87.5)" s:height="20" s:type="inputExt" s:width="30"><text x="15" y="-4" class="nodelabel cell_I1" s:attribute="ref">I1</text><s:alias val="$_inputExt_"/><path d="M0,0 L0,20 L15,20 L30,10 L15,0 Z" class="cell_I1"/></g><g id="cell_I2" transform="translate(12,152.5)" s:height="20" s:type="inputExt" s:width="30"><text x="15" y="-4" class="nodelabel cell_I2" s:attribute="ref">I2</text><s:alias val="$_inputExt_"/><path d="M0,0 L0,20 L15,20 L30,10 L15,0 Z" class="cell_I2"/></g><g id="cell_I3" transform="translate(12,282.5)" s:height="20" s:type="inputExt" s:width="30"><text x="15" y="-4" class="nodelabel cell_I3" s:attribute="ref">I3</text><s:alias val="$_inputExt_"/><path d="M0,0 L0,20 L15,20 L30,10 L15,0 Z" class="cell_I3"/></g><g id="cell_S0" transform="translate(12,217.5)" s:height="20" s:type="inputExt" s:width="30"><text x="15" y="-4" class="nodelabel cell_S0" s:attribute="ref">S0</text><s:alias val="$_inputExt_"/><path d="M0,0 L0,20 L15,20 L30,10 L15,0 Z" class="cell_S0"/></g><g id="cell_S1" transform="translate(101,260)" s:height="20" s:type="inputExt" s:width="30"><text x="15" y="-4" class="nodelabel cell_S1" s:attribute="ref">S1</text><s:alias val="$_inputExt_"/><path d="M0,0 L0,20 L15,20 L30,10 L15,0 Z" class="cell_S1"/></g><g id="cell_O" transform="translate(262,22.5)" s:height="20" s:type="outputExt" s:width="30"><text x="15" y="-4" class="nodelabel cell_O" s:attribute="ref">O</text><s:alias val="$_outputExt_"/><path d="M30,0 L30,20 L15,20 L0,10 L15,0 Z" class="cell_O"/></g><line x1="40" x2="101" y1="32.5" y2="32.5" class="net_16,17,18,19,20,21,22,23,24"/><line x1="40" x2="58" y1="97.5" y2="97.5" class="net_16,17,18,19,20,21,22,23,24"/><line x1="58" x2="58" y1="97.5" y2="52.5" class="net_16,17,18,19,20,21,22,23,24"/><line x1="58" x2="101" y1="52.5" y2="52.5" class="net_16,17,18,19,20,21,22,23,24"/><line x1="40" x2="68" y1="227.5" y2="227.5" class="net_16,17,18,19,20,21,22,23,24"/><line x1="68" x2="68" y1="227.5" y2="72.5" class="net_16,17,18,19,20,21,22,23,24"/><line x1="68" x2="101" y1="72.5" y2="72.5" class="net_16,17,18,19,20,21,22,23,24"/><line x1="40" x2="68" y1="227.5" y2="227.5" class="net_16,17,18,19,20,21,22,23,24"/><line x1="68" x2="68" y1="227.5" y2="202.5" class="net_16,17,18,19,20,21,22,23,24"/><circle cx="68" cy="202.5" r="2" style="fill:#000" class="net_16,17,18,19,20,21,22,23,24"/><line x1="68" x2="101" y1="202.5" y2="202.5" class="net_16,17,18,19,20,21,22,23,24"/><line x1="40" x2="101" y1="162.5" y2="162.5" class="net_61,62"/><line x1="40" x2="78" y1="292.5" y2="292.5" class="net_12"/><line x1="78" x2="78" y1="292.5" y2="182.5" class="net_12"/><line x1="78" x2="101" y1="182.5" y2="182.5" class="net_12"/><line x1="132" x2="188" y1="32.5" y2="32.5" class="net_12"/><line x1="132" x2="150" y1="162.5" y2="162.5" class="net_35"/><line x1="150" x2="150" y1="162.5" y2="52.5" class="net_35"/><line x1="150" x2="188" y1="52.5" y2="52.5" class="net_35"/><line x1="129" x2="160" y1="270" y2="270" class="net_13"/><line x1="160" x2="160" y1="270" y2="72.5" class="net_13"/><line x1="160" x2="188" y1="72.5" y2="72.5" class="net_13"/><line x1="219" x2="262" y1="32.5" y2="32.5" class="net_13"/></svg>