<svg xmlns="http://www.w3.org/2000/svg" xmlns:s="https://github.com/ajsb85/netlistsvg" xmlns:xlink="http://www.w3.org/1999/xlink" width="347" height="371"><style>svg{stroke:#000;fill:none}text{fill:#000;stroke:none;font-size:10px;font-weight:700;font-family:&quot;Courier New&quot;,monospace}line{stroke-linecap:round}.nodelabel{text-anchor:middle}.inputPortLabel{text-anchor:end}@media (prefers-color-scheme:dark){svg{stroke:#fff}[style*=&quot;fill:#000&quot;],[style*=&quot;fill:#000000&quot;],text{fill:#fff!important}}</style><g id="cell_A" transform="translate(12,22)" s:height="20" s:type="inputExt" s:width="30"><text x="15" y="-4" class="nodelabel cell_A" s:attribute="ref">A</text><s:alias val="$_inputExt_"/><path d="M0,0 L0,20 L15,20 L30,10 L15,0 Z" class="cell_A"/></g><g id="cell_B" transform="translate(80,22)" s:height="20" s:type="inputExt" s:width="30"><text x="15" y="-4" class="nodelabel cell_B" s:attribute="ref">B</text><s:alias val="$_inputExt_"/><path d="M0,0 L0,20 L15,20 L30,10 L15,0 Z" class="cell_B"/></g><g id="cell_A AND B" transform="translate(278,234)" s:height="20" s:type="outputExt" s:width="30"><text x="15" y="-4" class="nodelabel cell_A AND B" s:attribute="ref">A AND B</text><s:alias val="$_outputExt_"/><path d="M30,0 L30,20 L15,20 L0,10 L15,0 Z" class="cell_A AND B"/></g><g id="cell_R1" transform="translate(47,47)" s:height="40" s:type="generic" s:width="30"><text x="15" y="-4" class="nodelabel cell_R1" s:attribute="ref">r_v</text><rect width="30" height="20" class="cell_R1" s:generic="body"/><g id="port_R1~A" s:pid="in0" s:x="0" s:y="10"><text x="-3" y="-4" class="inputPortLabel cell_R1" transform="translate(0,10)">A</text></g><g id="port_R1~B" s:pid="out0" s:x="30" s:y="10"><text x="5" y="-4" class="cell_R1" transform="translate(30,10)" style="fill:#000;stroke:none">B</text></g></g><g id="cell_R2" transform="translate(115,47)" s:height="40" s:type="generic" s:width="30"><text x="15" y="-4" class="nodelabel cell_R2" s:attribute="ref">r_v</text><rect width="30" height="20" class="cell_R2" s:generic="body"/><g id="port_R2~A" s:pid="in0" s:x="0" s:y="10"><text x="-3" y="-4" class="inputPortLabel cell_R2" transform="translate(0,10)">A</text></g><g id="port_R2~B" s:pid="out0" s:x="30" s:y="10"><text x="5" y="-4" class="cell_R2" transform="translate(30,10)" style="fill:#000;stroke:none">B</text></g></g><g id="cell_Q1" transform="translate(171,91)" s:height="40" s:type="generic" s:width="30"><text x="15" y="-4" class="nodelabel cell_Q1" s:attribute="ref">q_pnp</text><rect width="30" height="40" class="cell_Q1" s:generic="body"/><g id="port_Q1~C" s:pid="in0" s:x="0" s:y="10"><text x="-3" y="-4" class="inputPortLabel cell_Q1" transform="translate(0,10)">C</text></g><g id="port_Q1~B" s:pid="in0" s:x="0" s:y="10"><text x="-3" y="-4" class="inputPortLabel cell_Q1" transform="translate(0,30)">B</text></g><g id="port_Q1~E" s:pid="out0" s:x="30" s:y="10"><text x="5" y="-4" class="cell_Q1" transform="translate(30,10)" style="fill:#000;stroke:none">E</text></g></g><g id="cell_R3" transform="translate(121,143)" s:height="40" s:type="generic" s:width="30"><text x="15" y="-4" class="nodelabel cell_R3" s:attribute="ref">r_v</text><rect width="30" height="20" class="cell_R3" s:generic="body"/><g id="port_R3~A" s:pid="in0" s:x="0" s:y="10"><text x="-3" y="-4" class="inputPortLabel cell_R3" transform="translate(0,10)">A</text></g><g id="port_R3~B" s:pid="out0" s:x="30" s:y="10"><text x="5" y="-4" class="cell_R3" transform="translate(30,10)" style="fill:#000;stroke:none">B</text></g></g><g id="cell_R4" transform="translate(189,143)" s:height="40" s:type="generic" s:width="30"><text x="15" y="-4" class="nodelabel cell_R4" s:attribute="ref">r_v</text><rect width="30" height="20" class="cell_R4" s:generic="body"/><g id="port_R4~A" s:pid="in0" s:x="0" s:y="10"><text x="-3" y="-4" class="inputPortLabel cell_R4" transform="translate(0,10)">A</text></g><g id="port_R4~B" s:pid="out0" s:x="30" s:y="10"><text x="5" y="-4" class="cell_R4" transform="translate(30,10)" style="fill:#000;stroke:none">B</text></g></g><g id="cell_R5" transform="translate(263,259)" s:height="40" s:type="generic" s:width="30"><text x="15" y="-4" class="nodelabel cell_R5" s:attribute="ref">r_v</text><rect width="30" height="20" class="cell_R5" s:generic="body"/><g id="port_R5~A" s:pid="in0" s:x="0" s:y="10"><text x="-3" y="-4" class="inputPortLabel cell_R5" transform="translate(0,10)">A</text></g><g id="port_R5~B" s:pid="out0" s:x="30" s:y="10"><text x="5" y="-4" class="cell_R5" transform="translate(30,10)" style="fill:#000;stroke:none">B</text></g></g><g id="cell_Q2" transform="translate(245,187)" s:height="40" s:type="generic" s:width="30"><text x="15" y="-4" class="nodelabel cell_Q2" s:attribute="ref">q_pnp</text><rect width="30" height="40" class="cell_Q2" s:generic="body"/><g id="port_Q2~C" s:pid="in0" s:x="0" s:y="10"><text x="-3" y="-4" class="inputPortLabel cell_Q2" transform="translate(0,10)">C</text></g><g id="port_Q2~B" s:pid="in0" s:x="0" s:y="10"><text x="-3" y="-4" class="inputPortLabel cell_Q2" transform="translate(0,30)">B</text></g><g id="port_Q2~E" s:pid="out0" s:x="30" s:y="10"><text x="5" y="-4" class="cell_Q2" transform="translate(30,10)" style="fill:#000;stroke:none">E</text></g></g><g id="cell_vcc" transform="translate(183,56)" s:height="40" s:type="generic" s:width="30"><text x="15" y="-4" class="nodelabel cell_vcc" s:attribute="ref">vcc</text><rect width="30" height="20" class="cell_vcc" s:generic="body"/><g id="port_vcc~A" s:pid="out0" s:x="30" s:y="10"><text x="5" y="-4" class="cell_vcc" transform="translate(30,10)" style="fill:#000;stroke:none">A</text></g></g><g id="cell_vcc2" transform="translate(257,152)" s:height="40" s:type="generic" s:width="30"><text x="15" y="-4" class="nodelabel cell_vcc2" s:attribute="ref">vcc</text><rect width="30" height="20" class="cell_vcc2" s:generic="body"/><g id="port_vcc2~A" s:pid="out0" s:x="30" s:y="10"><text x="5" y="-4" class="cell_vcc2" transform="translate(30,10)" style="fill:#000;stroke:none">A</text></g></g><g id="cell_gnd" transform="translate(116,213)" s:height="40" s:type="generic" s:width="30"><text x="15" y="-4" class="nodelabel cell_gnd" s:attribute="ref">gnd</text><rect width="30" height="20" class="cell_gnd" s:generic="body"/><g id="port_gnd~A" s:pid="in0" s:x="0" s:y="10"><text x="-3" y="-4" class="inputPortLabel cell_gnd" transform="translate(0,10)">A</text></g></g><g id="cell_gnd2" transform="translate(258,329)" s:height="40" s:type="generic" s:width="30"><text x="15" y="-4" class="nodelabel cell_gnd2" s:attribute="ref">gnd</text><rect width="30" height="20" class="cell_gnd2" s:generic="body"/><g id="port_gnd2~A" s:pid="in0" s:x="0" s:y="10"><text x="-3" y="-4" class="inputPortLabel cell_gnd2" transform="translate(0,10)">A</text></g></g><line x1="42" x2="52" y1="32" y2="32" class="net_2,3,2,3 width_4" style="stroke-width:2"/><line x1="52" x2="52" y1="32" y2="47" class="net_2,3,2,3 width_4" style="stroke-width:2"/><line x1="110" x2="120" y1="32" y2="32" class="net_2,3,5 width_3" style="stroke-width:2"/><line x1="120" x2="120" y1="32" y2="47" class="net_2,3,5 width_3" style="stroke-width:2"/><line x1="193" x2="193" y1="86" y2="93" class="net_2,3,5 width_3" style="stroke-width:2"/><line x1="194" x2="194" y1="120" y2="133" class="net_2 width_1" style="stroke-width:1"/><line x1="194" x2="126" y1="133" y2="133" class="net_2 width_1" style="stroke-width:1"/><line x1="126" x2="126" y1="133" y2="143" class="net_2 width_1" style="stroke-width:1"/><circle cx="194" cy="133" r="2" class="net_2 width_1" style="fill:#000"/><line x1="194" x2="194" y1="120" y2="143" class="net_2,3 width_2" style="stroke-width:2"/><line x1="268" x2="268" y1="216" y2="244" class="net_2,3 width_2" style="stroke-width:2"/><line x1="268" x2="278" y1="244" y2="244" class="net_2,3 width_2" style="stroke-width:2"/><circle cx="268" cy="244" r="3" class="net_2,3 width_2" style="fill:#000"/><line x1="278" x2="268" y1="244" y2="244" class="net_2,3 width_2" style="stroke-width:2"/><line x1="268" x2="268" y1="244" y2="259" class="net_2,3 width_2" style="stroke-width:2"/><circle cx="268" cy="244" r="3" class="net_2,3 width_2" style="fill:#000"/><line x1="267" x2="267" y1="182" y2="189" class="net_5 width_1" style="stroke-width:1"/><line x1="126" x2="126" y1="193" y2="198" class="net_2,3,4,5 width_4" style="stroke-width:2"/><line x1="268" x2="268" y1="309" y2="314" class="net_10 width_1" style="stroke-width:1"/><line x1="52" x2="52" y1="97" y2="107" class="net_83 width_1" style="stroke-width:1"/><line x1="52" x2="120" y1="107" y2="107" class="net_83 width_1" style="stroke-width:1"/><line x1="120" x2="120" y1="107" y2="107" class="net_83 width_1" style="stroke-width:1"/><line x1="120" x2="171" y1="107" y2="107" class="net_83 width_1" style="stroke-width:1"/><circle cx="120" cy="107" r="2" class="net_83 width_1" style="fill:#000"/><line x1="120" x2="120" y1="97" y2="107" class="net_85 width_1" style="stroke-width:1"/><line x1="120" x2="171" y1="107" y2="107" class="net_85 width_1" style="stroke-width:1"/><line x1="194" x2="194" y1="193" y2="203" class="net_89 width_1" style="stroke-width:1"/><line x1="194" x2="245" y1="203" y2="203" class="net_89 width_1" style="stroke-width:1"/></svg>