<svg xmlns="http://www.w3.org/2000/svg" xmlns:xlink="http://www.w3.org/1999/xlink" xmlns:s="https://github.com/ajsb85/netlist2svg" width="347" height="371"><style>
  svg {
    stroke: #000;
    fill: none;
  }
  text {
    fill: #000;
    stroke: none;
    font-size: 10px;
    font-weight: bold;
    font-family: "Courier New", monospace;
  }
  .nodelabel {
    text-anchor: middle;
  }
  .inputPortLabel {
    text-anchor: end;
  }
  .splitjoinBody {
    fill: #000;
  }
  .junction {
    fill: #000;
  }
  .labelBackground {
    fill: #fff;
    stroke: none;
  }
  .detail, .symbol {
    stroke-linejoin: round;
    stroke-linecap: round;
  }
  .symbol {
    stroke-width: 2;
  }
  .detail {
    fill: #000;
  }

  @media (prefers-color-scheme: dark) {
    svg {
      stroke: #fff !important;
    }
    text {
      fill: #fff !important;
    }
    .splitjoinBody {
      fill: #fff !important;
    }
    .junction {
      fill: #fff !important;
    }
    .labelBackground {
      fill: #0a192f !important; /* Blueprint background or transparent */
    }
    .detail {
      fill: #fff !important;
    }
    circle, path, rect, line {
      stroke: #fff;
    }
    [style*="fill:#000"], [style*="fill:#000000"] {
      fill: #fff !important;
    }
    [style*="stroke:#000"], [style*="stroke:#000000"] {
      stroke: #fff !important;
    }
  }
</style><g s:type="inputExt" transform="translate(12,22)" s:width="30" s:height="20" id="cell_A"><text x="15" y="-4" class="nodelabel cell_A" s:attribute="ref">A</text><s:alias val="$_inputExt_"/><path d="M0,0 L0,20 L15,20 L30,10 L15,0 Z" class="cell_A"/><g s:x="30" s:y="10" s:pid="Y"/></g><g s:type="inputExt" transform="translate(80,22)" s:width="30" s:height="20" id="cell_B"><text x="15" y="-4" class="nodelabel cell_B" s:attribute="ref">B</text><s:alias val="$_inputExt_"/><path d="M0,0 L0,20 L15,20 L30,10 L15,0 Z" class="cell_B"/><g s:x="30" s:y="10" s:pid="Y"/></g><g s:type="outputExt" transform="translate(278,234)" s:width="30" s:height="20" id="cell_A AND B"><text x="15" y="-4" class="nodelabel cell_A AND B" s:attribute="ref">A AND B</text><s:alias val="$_outputExt_"/><path d="M30,0 L30,20 L15,20 L0,10 L15,0 Z" class="cell_A AND B"/><g s:x="0" s:y="10" s:pid="A"/></g><g s:type="generic" transform="translate(47,47)" s:width="30" s:height="40" id="cell_R1"><text x="15" y="-4" class="nodelabel cell_R1" s:attribute="ref">r_v</text><rect width="30" height="20" s:generic="body" class="cell_R1"/><g transform="translate(0,10)" s:x="0" s:y="10" s:pid="in0" id="port_R1~A"><text x="-3" y="-4" class="inputPortLabel cell_R1">A</text></g><g transform="translate(30,10)" s:x="30" s:y="10" s:pid="out0" id="port_R1~B"><text x="5" y="-4" style="fill:#000; stroke:none" class="cell_R1">B</text></g></g><g s:type="generic" transform="translate(115,47)" s:width="30" s:height="40" id="cell_R2"><text x="15" y="-4" class="nodelabel cell_R2" s:attribute="ref">r_v</text><rect width="30" height="20" s:generic="body" class="cell_R2"/><g transform="translate(0,10)" s:x="0" s:y="10" s:pid="in0" id="port_R2~A"><text x="-3" y="-4" class="inputPortLabel cell_R2">A</text></g><g transform="translate(30,10)" s:x="30" s:y="10" s:pid="out0" id="port_R2~B"><text x="5" y="-4" style="fill:#000; stroke:none" class="cell_R2">B</text></g></g><g s:type="generic" transform="translate(171,91)" s:width="30" s:height="40" id="cell_Q1"><text x="15" y="-4" class="nodelabel cell_Q1" s:attribute="ref">q_pnp</text><rect width="30" height="40" s:generic="body" class="cell_Q1"/><g transform="translate(0,10)" s:x="0" s:y="10" s:pid="in0" id="port_Q1~C"><text x="-3" y="-4" class="inputPortLabel cell_Q1">C</text></g><g transform="translate(0,30)" s:x="0" s:y="10" s:pid="in0" id="port_Q1~B"><text x="-3" y="-4" class="inputPortLabel cell_Q1">B</text></g><g transform="translate(30,10)" s:x="30" s:y="10" s:pid="out0" id="port_Q1~E"><text x="5" y="-4" style="fill:#000; stroke:none" class="cell_Q1">E</text></g></g><g s:type="generic" transform="translate(121,143)" s:width="30" s:height="40" id="cell_R3"><text x="15" y="-4" class="nodelabel cell_R3" s:attribute="ref">r_v</text><rect width="30" height="20" s:generic="body" class="cell_R3"/><g transform="translate(0,10)" s:x="0" s:y="10" s:pid="in0" id="port_R3~A"><text x="-3" y="-4" class="inputPortLabel cell_R3">A</text></g><g transform="translate(30,10)" s:x="30" s:y="10" s:pid="out0" id="port_R3~B"><text x="5" y="-4" style="fill:#000; stroke:none" class="cell_R3">B</text></g></g><g s:type="generic" transform="translate(189,143)" s:width="30" s:height="40" id="cell_R4"><text x="15" y="-4" class="nodelabel cell_R4" s:attribute="ref">r_v</text><rect width="30" height="20" s:generic="body" class="cell_R4"/><g transform="translate(0,10)" s:x="0" s:y="10" s:pid="in0" id="port_R4~A"><text x="-3" y="-4" class="inputPortLabel cell_R4">A</text></g><g transform="translate(30,10)" s:x="30" s:y="10" s:pid="out0" id="port_R4~B"><text x="5" y="-4" style="fill:#000; stroke:none" class="cell_R4">B</text></g></g><g s:type="generic" transform="translate(263,259)" s:width="30" s:height="40" id="cell_R5"><text x="15" y="-4" class="nodelabel cell_R5" s:attribute="ref">r_v</text><rect width="30" height="20" s:generic="body" class="cell_R5"/><g transform="translate(0,10)" s:x="0" s:y="10" s:pid="in0" id="port_R5~A"><text x="-3" y="-4" class="inputPortLabel cell_R5">A</text></g><g transform="translate(30,10)" s:x="30" s:y="10" s:pid="out0" id="port_R5~B"><text x="5" y="-4" style="fill:#000; stroke:none" class="cell_R5">B</text></g></g><g s:type="generic" transform="translate(245,187)" s:width="30" s:height="40" id="cell_Q2"><text x="15" y="-4" class="nodelabel cell_Q2" s:attribute="ref">q_pnp</text><rect width="30" height="40" s:generic="body" class="cell_Q2"/><g transform="translate(0,10)" s:x="0" s:y="10" s:pid="in0" id="port_Q2~C"><text x="-3" y="-4" class="inputPortLabel cell_Q2">C</text></g><g transform="translate(0,30)" s:x="0" s:y="10" s:pid="in0" id="port_Q2~B"><text x="-3" y="-4" class="inputPortLabel cell_Q2">B</text></g><g transform="translate(30,10)" s:x="30" s:y="10" s:pid="out0" id="port_Q2~E"><text x="5" y="-4" style="fill:#000; stroke:none" class="cell_Q2">E</text></g></g><g s:type="generic" transform="translate(183,56)" s:width="30" s:height="40" id="cell_vcc"><text x="15" y="-4" class="nodelabel cell_vcc" s:attribute="ref">vcc</text><rect width="30" height="20" s:generic="body" class="cell_vcc"/><g transform="translate(30,10)" s:x="30" s:y="10" s:pid="out0" id="port_vcc~A"><text x="5" y="-4" style="fill:#000; stroke:none" class="cell_vcc">A</text></g></g><g s:type="generic" transform="translate(257,152)" s:width="30" s:height="40" id="cell_vcc2"><text x="15" y="-4" class="nodelabel cell_vcc2" s:attribute="ref">vcc</text><rect width="30" height="20" s:generic="body" class="cell_vcc2"/><g transform="translate(30,10)" s:x="30" s:y="10" s:pid="out0" id="port_vcc2~A"><text x="5" y="-4" style="fill:#000; stroke:none" class="cell_vcc2">A</text></g></g><g s:type="generic" transform="translate(116,213)" s:width="30" s:height="40" id="cell_gnd"><text x="15" y="-4" class="nodelabel cell_gnd" s:attribute="ref">gnd</text><rect width="30" height="20" s:generic="body" class="cell_gnd"/><g transform="translate(0,10)" s:x="0" s:y="10" s:pid="in0" id="port_gnd~A"><text x="-3" y="-4" class="inputPortLabel cell_gnd">A</text></g></g><g s:type="generic" transform="translate(258,329)" s:width="30" s:height="40" id="cell_gnd2"><text x="15" y="-4" class="nodelabel cell_gnd2" s:attribute="ref">gnd</text><rect width="30" height="20" s:generic="body" class="cell_gnd2"/><g transform="translate(0,10)" s:x="0" s:y="10" s:pid="in0" id="port_gnd2~A"><text x="-3" y="-4" class="inputPortLabel cell_gnd2">A</text></g></g><line x1="42" y1="32" x2="52" y2="32" class="net_2,3,2,3 width_4" style="stroke-width: 2"/><line x1="52" y1="32" x2="52" y2="47" class="net_2,3,2,3 width_4" style="stroke-width: 2"/><line x1="110" y1="32" x2="120" y2="32" class="net_2,3,5 width_3" style="stroke-width: 2"/><line x1="120" y1="32" x2="120" y2="47" class="net_2,3,5 width_3" style="stroke-width: 2"/><line x1="193" y1="86" x2="193" y2="93" class="net_2,3,5 width_3" style="stroke-width: 2"/><line x1="194" y1="120" x2="194" y2="133" class="net_2 width_1" style="stroke-width: 1"/><line x1="194" y1="133" x2="126" y2="133" class="net_2 width_1" style="stroke-width: 1"/><line x1="126" y1="133" x2="126" y2="143" class="net_2 width_1" style="stroke-width: 1"/><circle cx="194" cy="133" r="2" style="fill:#000" class="net_2 width_1"/><line x1="194" y1="120" x2="194" y2="143" class="net_2,3 width_2" style="stroke-width: 2"/><line x1="268" y1="216" x2="268" y2="244" class="net_2,3 width_2" style="stroke-width: 2"/><line x1="268" y1="244" x2="278" y2="244" class="net_2,3 width_2" style="stroke-width: 2"/><circle cx="268" cy="244" r="3" style="fill:#000" class="net_2,3 width_2"/><line x1="278" y1="244" x2="268" y2="244" class="net_2,3 width_2" style="stroke-width: 2"/><line x1="268" y1="244" x2="268" y2="259" class="net_2,3 width_2" style="stroke-width: 2"/><circle cx="268" cy="244" r="3" style="fill:#000" class="net_2,3 width_2"/><line x1="267" y1="182" x2="267" y2="189" class="net_5 width_1" style="stroke-width: 1"/><line x1="126" y1="193" x2="126" y2="198" class="net_2,3,4,5 width_4" style="stroke-width: 2"/><line x1="268" y1="309" x2="268" y2="314" class="net_10 width_1" style="stroke-width: 1"/><line x1="52" y1="97" x2="52" y2="107" class="net_83 width_1" style="stroke-width: 1"/><line x1="52" y1="107" x2="120" y2="107" class="net_83 width_1" style="stroke-width: 1"/><line x1="120" y1="107" x2="120" y2="107" class="net_83 width_1" style="stroke-width: 1"/><line x1="120" y1="107" x2="171" y2="107" class="net_83 width_1" style="stroke-width: 1"/><circle cx="120" cy="107" r="2" style="fill:#000" class="net_83 width_1"/><line x1="120" y1="97" x2="120" y2="107" class="net_85 width_1" style="stroke-width: 1"/><line x1="120" y1="107" x2="171" y2="107" class="net_85 width_1" style="stroke-width: 1"/><line x1="194" y1="193" x2="194" y2="203" class="net_89 width_1" style="stroke-width: 1"/><line x1="194" y1="203" x2="245" y2="203" class="net_89 width_1" style="stroke-width: 1"/></svg>