<svg xmlns="http://www.w3.org/2000/svg" xmlns:xlink="http://www.w3.org/1999/xlink" xmlns:s="https://github.com/ajsb85/netlist2svg" width="293" height="301"><style>svg {
  stroke:#000;
  fill:none;
}
text {
  fill:#000;
  stroke:none;
  font-size:10px;
  font-weight: bold;
  font-family: "Courier New", monospace;
}
line {
    stroke-linecap: round;
}
.nodelabel {
  text-anchor: middle;
}
.inputPortLabel {
  text-anchor: end;
}
.splitjoinBody {
  fill:#000;
}
  @media (prefers-color-scheme: dark) {
    svg {
      stroke: #fff;
    }
    text {
      fill: #fff !important;
    }
    .splitjoinBody {
      fill: #fff;
    }
    [style*="fill:#000"], [style*="fill:#000000"] {
      fill: #fff !important;
    }
  }</style><g s:type="inputExt" transform="translate(12,108)" s:width="30" s:height="20" id="cell_vin"><text x="15" y="-4" class="nodelabel cell_vin" s:attribute="ref">vin</text><s:alias val="$_inputExt_"/><path d="M0,0 L0,20 L15,20 L30,10 L15,0 Z" class="cell_vin"/><g s:x="30" s:y="10" s:pid="Y"/></g><g s:type="outputExt" transform="translate(206,112)" s:width="30" s:height="20" id="cell_vout"><text x="15" y="-4" class="nodelabel cell_vout" s:attribute="ref">vout</text><s:alias val="$_outputExt_"/><path d="M30,0 L30,20 L15,20 L0,10 L15,0 Z" class="cell_vout"/><g s:x="0" s:y="10" s:pid="A"/></g><g s:type="generic" transform="translate(182,189)" s:width="30" s:height="40" id="cell_C1"><text x="15" y="-4" class="nodelabel cell_C1" s:attribute="ref">c_v</text><rect width="30" height="20" s:generic="body" class="cell_C1"/><g transform="translate(0,10)" s:x="0" s:y="10" s:pid="in0" id="port_C1~A"><text x="-3" y="-4" class="inputPortLabel cell_C1">A</text></g><g transform="translate(30,10)" s:x="30" s:y="10" s:pid="out0" id="port_C1~B"><text x="5" y="-4" style="fill:#000; stroke:none" class="cell_C1">B</text></g></g><g s:type="generic" transform="translate(65,103)" s:width="30" s:height="40" id="cell_C2"><text x="15" y="-4" class="nodelabel cell_C2" s:attribute="ref">c_h</text><rect width="30" height="20" s:generic="body" class="cell_C2"/><g transform="translate(0,10)" s:x="0" s:y="10" s:pid="in0" id="port_C2~A"><text x="-3" y="-4" class="inputPortLabel cell_C2">A</text></g><g transform="translate(30,10)" s:x="30" s:y="10" s:pid="out0" id="port_C2~B"><text x="5" y="-4" style="fill:#000; stroke:none" class="cell_C2">B</text></g></g><g s:type="generic" transform="translate(174,137)" s:width="30" s:height="40" id="cell_Q"><text x="15" y="-4" class="nodelabel cell_Q" s:attribute="ref">q_npn</text><rect width="30" height="40" s:generic="body" class="cell_Q"/><g transform="translate(0,10)" s:x="0" s:y="10" s:pid="in0" id="port_Q~B"><text x="-3" y="-4" class="inputPortLabel cell_Q">B</text></g><g transform="translate(0,30)" s:x="0" s:y="10" s:pid="in0" id="port_Q~C"><text x="-3" y="-4" class="inputPortLabel cell_Q">C</text></g><g transform="translate(30,10)" s:x="30" s:y="10" s:pid="out0" id="port_Q~E"><text x="5" y="-4" style="fill:#000; stroke:none" class="cell_Q">E</text></g></g><g s:type="generic" transform="translate(191,47)" s:width="30" s:height="40" id="cell_R1"><text x="15" y="-4" class="nodelabel cell_R1" s:attribute="ref">r_v</text><rect width="30" height="20" s:generic="body" class="cell_R1"/><g transform="translate(0,10)" s:x="0" s:y="10" s:pid="in0" id="port_R1~A"><text x="-3" y="-4" class="inputPortLabel cell_R1">A</text></g><g transform="translate(30,10)" s:x="30" s:y="10" s:pid="out0" id="port_R1~B"><text x="5" y="-4" style="fill:#000; stroke:none" class="cell_R1">B</text></g></g><g s:type="generic" transform="translate(254,189)" s:width="30" s:height="40" id="cell_R2"><text x="15" y="-4" class="nodelabel cell_R2" s:attribute="ref">r_v</text><rect width="30" height="20" s:generic="body" class="cell_R2"/><g transform="translate(0,10)" s:x="0" s:y="10" s:pid="in0" id="port_R2~A"><text x="-3" y="-4" class="inputPortLabel cell_R2">A</text></g><g transform="translate(30,10)" s:x="30" s:y="10" s:pid="out0" id="port_R2~B"><text x="5" y="-4" style="fill:#000; stroke:none" class="cell_R2">B</text></g></g><g s:type="generic" transform="translate(120,47)" s:width="30" s:height="40" id="cell_R3"><text x="15" y="-4" class="nodelabel cell_R3" s:attribute="ref">r_v</text><rect width="30" height="20" s:generic="body" class="cell_R3"/><g transform="translate(0,10)" s:x="0" s:y="10" s:pid="in0" id="port_R3~A"><text x="-3" y="-4" class="inputPortLabel cell_R3">A</text></g><g transform="translate(30,10)" s:x="30" s:y="10" s:pid="out0" id="port_R3~B"><text x="5" y="-4" style="fill:#000; stroke:none" class="cell_R3">B</text></g></g><g s:type="generic" transform="translate(120,163)" s:width="30" s:height="40" id="cell_R4"><text x="15" y="-4" class="nodelabel cell_R4" s:attribute="ref">r_v</text><rect width="30" height="20" s:generic="body" class="cell_R4"/><g transform="translate(0,10)" s:x="0" s:y="10" s:pid="in0" id="port_R4~A"><text x="-3" y="-4" class="inputPortLabel cell_R4">A</text></g><g transform="translate(30,10)" s:x="30" s:y="10" s:pid="out0" id="port_R4~B"><text x="5" y="-4" style="fill:#000; stroke:none" class="cell_R4">B</text></g></g><g s:type="generic" transform="translate(249,259)" s:width="30" s:height="40" id="cell_gnd83"><text x="15" y="-4" class="nodelabel cell_gnd83" s:attribute="ref">gnd</text><rect width="30" height="20" s:generic="body" class="cell_gnd83"/><g transform="translate(0,10)" s:x="0" s:y="10" s:pid="in0" id="port_gnd83~A"><text x="-3" y="-4" class="inputPortLabel cell_gnd83">A</text></g></g><g s:type="generic" transform="translate(187,259)" s:width="30" s:height="40" id="cell_gnd85"><text x="15" y="-4" class="nodelabel cell_gnd85" s:attribute="ref">gnd</text><rect width="30" height="20" s:generic="body" class="cell_gnd85"/><g transform="translate(0,10)" s:x="0" s:y="10" s:pid="in0" id="port_gnd85~A"><text x="-3" y="-4" class="inputPortLabel cell_gnd85">A</text></g></g><g s:type="generic" transform="translate(115,233)" s:width="30" s:height="40" id="cell_gnd89"><text x="15" y="-4" class="nodelabel cell_gnd89" s:attribute="ref">gnd</text><rect width="30" height="20" s:generic="body" class="cell_gnd89"/><g transform="translate(0,10)" s:x="0" s:y="10" s:pid="in0" id="port_gnd89~A"><text x="-3" y="-4" class="inputPortLabel cell_gnd89">A</text></g></g><g s:type="generic" transform="translate(186,12)" s:width="30" s:height="40" id="cell_vcc80"><text x="15" y="-4" class="nodelabel cell_vcc80" s:attribute="ref">vcc</text><rect width="30" height="20" s:generic="body" class="cell_vcc80"/><g transform="translate(30,10)" s:x="30" s:y="10" s:pid="out0" id="port_vcc80~A"><text x="5" y="-4" style="fill:#000; stroke:none" class="cell_vcc80">A</text></g></g><g s:type="generic" transform="translate(115,12)" s:width="30" s:height="40" id="cell_vcc86"><text x="15" y="-4" class="nodelabel cell_vcc86" s:attribute="ref">vcc</text><rect width="30" height="20" s:generic="body" class="cell_vcc86"/><g transform="translate(30,10)" s:x="30" s:y="10" s:pid="out0" id="port_vcc86~A"><text x="5" y="-4" style="fill:#000; stroke:none" class="cell_vcc86">A</text></g></g><line x1="197" y1="166" x2="197" y2="189" class="net_2,3,2,3 width_4" style="stroke-width: 2"/><line x1="197" y1="166" x2="197" y2="179" class="net_2,3,5 width_3" style="stroke-width: 2"/><line x1="197" y1="179" x2="259" y2="179" class="net_2,3,5 width_3" style="stroke-width: 2"/><line x1="259" y1="179" x2="259" y2="189" class="net_2,3,5 width_3" style="stroke-width: 2"/><circle cx="197" cy="179" r="3" style="fill:#000" class="net_2,3,5 width_3"/><line x1="196" y1="97" x2="196" y2="122" class="net_2,3,5 width_3" style="stroke-width: 2"/><line x1="196" y1="122" x2="206" y2="122" class="net_2,3,5 width_3" style="stroke-width: 2"/><circle cx="196" cy="122" r="3" style="fill:#000" class="net_2,3,5 width_3"/><line x1="206" y1="122" x2="196" y2="122" class="net_2 width_1" style="stroke-width: 1"/><line x1="196" y1="122" x2="196" y2="139" class="net_2 width_1" style="stroke-width: 1"/><circle cx="196" cy="122" r="2" style="fill:#000" class="net_2 width_1"/><line x1="196" y1="42" x2="196" y2="47" class="net_2,3 width_2" style="stroke-width: 2"/><line x1="125" y1="42" x2="125" y2="47" class="net_2,3 width_2" style="stroke-width: 2"/><line x1="125" y1="97" x2="125" y2="118" class="net_2,3 width_2" style="stroke-width: 2"/><line x1="125" y1="118" x2="115" y2="118" class="net_2,3 width_2" style="stroke-width: 2"/><circle cx="125" cy="118" r="3" style="fill:#000" class="net_2,3 width_2"/><line x1="125" y1="97" x2="125" y2="108" class="net_5 width_1" style="stroke-width: 1"/><line x1="125" y1="108" x2="135" y2="108" class="net_5 width_1" style="stroke-width: 1"/><line x1="135" y1="108" x2="135" y2="153" class="net_5 width_1" style="stroke-width: 1"/><line x1="135" y1="153" x2="174" y2="153" class="net_5 width_1" style="stroke-width: 1"/><circle cx="125" cy="108" r="2" style="fill:#000" class="net_5 width_1"/><circle cx="135" cy="153" r="2" style="fill:#000" class="net_5 width_1"/><line x1="115" y1="118" x2="125" y2="118" class="net_2,3,4,5 width_4" style="stroke-width: 2"/><line x1="125" y1="118" x2="125" y2="163" class="net_2,3,4,5 width_4" style="stroke-width: 2"/><circle cx="125" cy="118" r="3" style="fill:#000" class="net_2,3,4,5 width_4"/><line x1="174" y1="153" x2="135" y2="153" class="net_10 width_1" style="stroke-width: 1"/><line x1="135" y1="153" x2="135" y2="153" class="net_10 width_1" style="stroke-width: 1"/><line x1="135" y1="153" x2="125" y2="153" class="net_10 width_1" style="stroke-width: 1"/><line x1="125" y1="153" x2="125" y2="163" class="net_10 width_1" style="stroke-width: 1"/><circle cx="125" cy="153" r="2" style="fill:#000" class="net_10 width_1"/><circle cx="135" cy="153" r="2" style="fill:#000" class="net_10 width_1"/><line x1="259" y1="239" x2="259" y2="244" class="net_83 width_1" style="stroke-width: 1"/><line x1="197" y1="239" x2="197" y2="244" class="net_85 width_1" style="stroke-width: 1"/><line x1="125" y1="213" x2="125" y2="218" class="net_89 width_1" style="stroke-width: 1"/><line x1="42" y1="118" x2="55" y2="118" class="net_70 width_1" style="stroke-width: 1"/><line x1="55" y1="118" x2="55" y2="118" class="net_70 width_1" style="stroke-width: 1"/><line x1="55" y1="118" x2="65" y2="118" class="net_70 width_1" style="stroke-width: 1"/></svg>