<svg xmlns="http://www.w3.org/2000/svg" xmlns:xlink="http://www.w3.org/1999/xlink" xmlns:s="https://github.com/ajsb85/netlist2svg" width="229" height="272"><style>svg {
  stroke:#000;
  fill:none;
}
text {
  fill:#000;
  stroke:none;
  font-size:10px;
  font-weight: bold;
  font-family: "Courier New", monospace;
}
line {
    stroke-linecap: round;
}
.nodelabel {
  text-anchor: middle;
}
.inputPortLabel {
  text-anchor: end;
}
.splitjoinBody {
  fill:#000;
}
  @media (prefers-color-scheme: dark) {
    svg {
      stroke: #fff;
    }
    text {
      fill: #fff !important;
    }
    .splitjoinBody {
      fill: #fff;
    }
    [style*="fill:#000"], [style*="fill:#000000"] {
      fill: #fff !important;
    }
  }</style><g s:type="generic" transform="translate(190,47)" s:width="30" s:height="40" id="cell_r1"><text x="15" y="-4" class="nodelabel cell_r1" s:attribute="ref">r_v</text><rect width="30" height="20" s:generic="body" class="cell_r1"/><g transform="translate(0,10)" s:x="0" s:y="10" s:pid="in0" id="port_r1~A"><text x="-3" y="-4" class="inputPortLabel cell_r1">A</text></g><g transform="translate(30,10)" s:x="30" s:y="10" s:pid="out0" id="port_r1~B"><text x="5" y="-4" style="fill:#000; stroke:none" class="cell_r1">B</text></g></g><g s:type="generic" transform="translate(12,132.5)" s:width="30" s:height="40" id="cell_c1"><text x="15" y="-4" class="nodelabel cell_c1" s:attribute="ref">c_v</text><rect width="30" height="20" s:generic="body" class="cell_c1"/><g transform="translate(0,10)" s:x="0" s:y="10" s:pid="in0" id="port_c1~A"><text x="-3" y="-4" class="inputPortLabel cell_c1">A</text></g><g transform="translate(30,10)" s:x="30" s:y="10" s:pid="out0" id="port_c1~B"><text x="5" y="-4" style="fill:#000; stroke:none" class="cell_c1">B</text></g></g><g s:type="generic" transform="translate(190,160)" s:width="30" s:height="40" id="cell_r3"><text x="15" y="-4" class="nodelabel cell_r3" s:attribute="ref">r_v</text><rect width="30" height="20" s:generic="body" class="cell_r3"/><g transform="translate(0,10)" s:x="0" s:y="10" s:pid="in0" id="port_r3~A"><text x="-3" y="-4" class="inputPortLabel cell_r3">A</text></g><g transform="translate(30,10)" s:x="30" s:y="10" s:pid="out0" id="port_r3~B"><text x="5" y="-4" style="fill:#000; stroke:none" class="cell_r3">B</text></g></g><g s:type="generic" transform="translate(123,112)" s:width="30" s:height="40" id="cell_u1"><text x="15" y="-4" class="nodelabel cell_u1" s:attribute="ref">MCU</text><rect width="30" height="40" s:generic="body" class="cell_u1"/><g transform="translate(0,10)" s:x="0" s:y="10" s:pid="in0" id="port_u1~VCC"><text x="-3" y="-4" class="inputPortLabel cell_u1">VCC</text></g><g transform="translate(0,30)" s:x="0" s:y="10" s:pid="in0" id="port_u1~GND"><text x="-3" y="-4" class="inputPortLabel cell_u1">GND</text></g><g transform="translate(30,10)" s:x="30" s:y="10" s:pid="out0" id="port_u1~GPIO1"><text x="5" y="-4" style="fill:#000; stroke:none" class="cell_u1">GPIO1</text></g></g><g s:type="generic" transform="translate(185,12)" s:width="30" s:height="40" id="cell_vcc"><text x="15" y="-4" class="nodelabel cell_vcc" s:attribute="ref">vcc</text><rect width="30" height="20" s:generic="body" class="cell_vcc"/><g transform="translate(30,10)" s:x="30" s:y="10" s:pid="out0" id="port_vcc~A"><text x="5" y="-4" style="fill:#000; stroke:none" class="cell_vcc">A</text></g></g><g s:type="generic" transform="translate(17,82.5)" s:width="30" s:height="40" id="cell_vcc_2"><text x="15" y="-4" class="nodelabel cell_vcc_2" s:attribute="ref">vcc</text><rect width="30" height="20" s:generic="body" class="cell_vcc_2"/><g transform="translate(30,10)" s:x="30" s:y="10" s:pid="out0" id="port_vcc_2~A"><text x="5" y="-4" style="fill:#000; stroke:none" class="cell_vcc_2">A</text></g></g><g s:type="generic" transform="translate(185,230)" s:width="30" s:height="40" id="cell_gnd"><text x="15" y="-4" class="nodelabel cell_gnd" s:attribute="ref">gnd</text><rect width="30" height="20" s:generic="body" class="cell_gnd"/><g transform="translate(0,10)" s:x="0" s:y="10" s:pid="in0" id="port_gnd~A"><text x="-3" y="-4" class="inputPortLabel cell_gnd">A</text></g></g><g s:type="generic" transform="translate(84,175)" s:width="30" s:height="40" id="cell_gnd3"><text x="15" y="-4" class="nodelabel cell_gnd3" s:attribute="ref">gnd</text><rect width="30" height="20" s:generic="body" class="cell_gnd3"/><g transform="translate(0,10)" s:x="0" s:y="10" s:pid="in0" id="port_gnd3~A"><text x="-3" y="-4" class="inputPortLabel cell_gnd3">A</text></g></g><g s:type="generic" transform="translate(17,202.5)" s:width="30" s:height="40" id="cell_gnd2"><text x="15" y="-4" class="nodelabel cell_gnd2" s:attribute="ref">gnd</text><rect width="30" height="20" s:generic="body" class="cell_gnd2"/><g transform="translate(0,10)" s:x="0" s:y="10" s:pid="in0" id="port_gnd2~A"><text x="-3" y="-4" class="inputPortLabel cell_gnd2">A</text></g></g><line x1="195" y1="42" x2="195" y2="47" class="net_2,3,2,3 width_4" style="stroke-width: 2"/><line x1="27" y1="112.5" x2="27" y2="122.5" class="net_2,3,5 width_3" style="stroke-width: 2"/><line x1="27" y1="122.5" x2="123" y2="122.5" class="net_2,3,5 width_3" style="stroke-width: 2"/><circle cx="27" cy="122.5" r="3" style="fill:#000" class="net_2,3,5 width_3"/><line x1="123" y1="122.5" x2="27" y2="122.5" class="net_2,3,5 width_3" style="stroke-width: 2"/><line x1="27" y1="122.5" x2="27" y2="132.5" class="net_2,3,5 width_3" style="stroke-width: 2"/><circle cx="27" cy="122.5" r="3" style="fill:#000" class="net_2,3,5 width_3"/><line x1="195" y1="97" x2="195" y2="122.5" class="net_2 width_1" style="stroke-width: 1"/><line x1="195" y1="122.5" x2="154" y2="122.5" class="net_2 width_1" style="stroke-width: 1"/><circle cx="195" cy="122.5" r="2" style="fill:#000" class="net_2 width_1"/><line x1="154" y1="122.5" x2="195" y2="122.5" class="net_2,3 width_2" style="stroke-width: 2"/><line x1="195" y1="122.5" x2="195" y2="160" class="net_2,3 width_2" style="stroke-width: 2"/><circle cx="195" cy="122.5" r="3" style="fill:#000" class="net_2,3 width_2"/><line x1="195" y1="210" x2="195" y2="215" class="net_2,3 width_2" style="stroke-width: 2"/><line x1="123" y1="142.5" x2="94" y2="142.5" class="net_2,3 width_2" style="stroke-width: 2"/><line x1="94" y1="142.5" x2="94" y2="160" class="net_2,3 width_2" style="stroke-width: 2"/><line x1="27" y1="182.5" x2="27" y2="187.5" class="net_5 width_1" style="stroke-width: 1"/></svg>