<svg xmlns="http://www.w3.org/2000/svg" xmlns:s="https://github.com/ajsb85/netlistsvg" xmlns:xlink="http://www.w3.org/1999/xlink" width="83" height="249"><style>svg{stroke:#000;fill:none}text{fill:#000;stroke:none;font-size:10px;font-weight:700;font-family:&quot;Courier New&quot;,monospace}line{stroke-linecap:round}.nodelabel{text-anchor:middle}.inputPortLabel{text-anchor:end}@media (prefers-color-scheme:dark){svg{stroke:#fff}[style*=&quot;fill:#000&quot;],[style*=&quot;fill:#000000&quot;],text{fill:#fff!important}}</style><g id="cell_vout" transform="translate(32,112)" s:height="20" s:type="outputExt" s:width="30"><text x="15" y="-4" class="nodelabel cell_vout" s:attribute="ref">vout</text><s:alias val="$_outputExt_"/><path d="M30,0 L30,20 L15,20 L0,10 L15,0 Z" class="cell_vout"/></g><g id="cell_r1" transform="translate(17,47)" s:height="40" s:type="generic" s:width="30"><text x="15" y="-4" class="nodelabel cell_r1" s:attribute="ref">r_v</text><rect width="30" height="20" class="cell_r1" s:generic="body"/><g id="port_r1~A" s:pid="in0" s:x="0" s:y="10"><text x="-3" y="-4" class="inputPortLabel cell_r1" transform="translate(0,10)">A</text></g><g id="port_r1~B" s:pid="out0" s:x="30" s:y="10"><text x="5" y="-4" class="cell_r1" transform="translate(30,10)" style="fill:#000;stroke:none">B</text></g></g><g id="cell_r2" transform="translate(17,137)" s:height="40" s:type="generic" s:width="30"><text x="15" y="-4" class="nodelabel cell_r2" s:attribute="ref">r_v</text><rect width="30" height="20" class="cell_r2" s:generic="body"/><g id="port_r2~A" s:pid="in0" s:x="0" s:y="10"><text x="-3" y="-4" class="inputPortLabel cell_r2" transform="translate(0,10)">A</text></g><g id="port_r2~B" s:pid="out0" s:x="30" s:y="10"><text x="5" y="-4" class="cell_r2" transform="translate(30,10)" style="fill:#000;stroke:none">B</text></g></g><g id="cell_vcc" transform="translate(12,12)" s:height="40" s:type="generic" s:width="30"><text x="15" y="-4" class="nodelabel cell_vcc" s:attribute="ref">vcc</text><rect width="30" height="20" class="cell_vcc" s:generic="body"/><g id="port_vcc~A" s:pid="out0" s:x="30" s:y="10"><text x="5" y="-4" class="cell_vcc" transform="translate(30,10)" style="fill:#000;stroke:none">A</text></g></g><g id="cell_gnd" transform="translate(12,207)" s:height="40" s:type="generic" s:width="30"><text x="15" y="-4" class="nodelabel cell_gnd" s:attribute="ref">gnd</text><rect width="30" height="20" class="cell_gnd" s:generic="body"/><g id="port_gnd~A" s:pid="in0" s:x="0" s:y="10"><text x="-3" y="-4" class="inputPortLabel cell_gnd" transform="translate(0,10)">A</text></g></g><line x1="22" x2="22" y1="42" y2="47" class="net_2,3,2,3 width_4" style="stroke-width:2"/><line x1="22" x2="22" y1="97" y2="122" class="net_2,3,5 width_3" style="stroke-width:2"/><line x1="22" x2="32" y1="122" y2="122" class="net_2,3,5 width_3" style="stroke-width:2"/><circle cx="22" cy="122" r="3" class="net_2,3,5 width_3" style="fill:#000"/><line x1="32" x2="22" y1="122" y2="122" class="net_2,3,5 width_3" style="stroke-width:2"/><line x1="22" x2="22" y1="122" y2="137" class="net_2,3,5 width_3" style="stroke-width:2"/><circle cx="22" cy="122" r="3" class="net_2,3,5 width_3" style="fill:#000"/><line x1="22" x2="22" y1="187" y2="192" class="net_2 width_1" style="stroke-width:1"/></svg>