<svg xmlns="http://www.w3.org/2000/svg" xmlns:xlink="http://www.w3.org/1999/xlink" xmlns:s="https://github.com/ajsb85/netlist2svg" width="611" height="317"><style>svg {
  stroke:#000;
  fill:none;
}
text {
  fill:#000;
  stroke:none;
  font-size:10px;
  font-weight: bold;
  font-family: "Courier New", monospace;
}
line {
    stroke-linecap: round;
}
.nodelabel {
  text-anchor: middle;
}
.inputPortLabel {
  text-anchor: end;
}
.splitjoinBody {
  fill:#000;
}
  @media (prefers-color-scheme: dark) {
    svg {
      stroke: #fff;
    }
    text {
      fill: #fff !important;
    }
    .splitjoinBody {
      fill: #fff;
    }
    [style*="fill:#000"], [style*="fill:#000000"] {
      fill: #fff !important;
    }
  }</style><g s:type="inputExt" transform="translate(12,159)" s:width="30" s:height="20" id="cell_clk100"><text x="15" y="-4" class="nodelabel cell_clk100" s:attribute="ref">clk100</text><s:alias val="$_inputExt_"/><path d="M0,0 L0,20 L15,20 L30,10 L15,0 Z" class="cell_clk100"/><g s:x="30" s:y="10" s:pid="Y"/></g><g s:type="outputExt" transform="translate(524,22)" s:width="30" s:height="20" id="cell_clk40"><text x="15" y="-4" class="nodelabel cell_clk40" s:attribute="ref">clk40</text><s:alias val="$_outputExt_"/><path d="M30,0 L30,20 L15,20 L0,10 L15,0 Z" class="cell_clk40"/><g s:x="0" s:y="10" s:pid="A"/></g><g s:type="outputExt" transform="translate(524,283)" s:width="30" s:height="20" id="cell_clk125"><text x="15" y="-4" class="nodelabel cell_clk125" s:attribute="ref">clk125</text><s:alias val="$_outputExt_"/><path d="M30,0 L30,20 L15,20 L0,10 L15,0 Z" class="cell_clk125"/><g s:x="0" s:y="10" s:pid="A"/></g><g s:type="generic" transform="translate(129,158.5)" s:width="30" s:height="40" id="cell_PLL"><text x="15" y="-4" class="nodelabel cell_PLL" s:attribute="ref">PLL</text><rect width="30" height="80" s:generic="body" class="cell_PLL"/><g transform="translate(0,10)" s:x="0" s:y="10" s:pid="in0" id="port_PLL~clkin"><text x="-3" y="-4" class="inputPortLabel cell_PLL">clkin</text></g><g transform="translate(30,10)" s:x="30" s:y="10" s:pid="out0" id="port_PLL~clk40"><text x="5" y="-4" style="fill:#000; stroke:none" class="cell_PLL">clk40</text></g><g transform="translate(30,30)" s:x="30" s:y="10" s:pid="out0" id="port_PLL~clk200"><text x="5" y="-4" style="fill:#000; stroke:none" class="cell_PLL">clk200</text></g><g transform="translate(30,50)" s:x="30" s:y="10" s:pid="out0" id="port_PLL~clk125"><text x="5" y="-4" style="fill:#000; stroke:none" class="cell_PLL">clk125</text></g><g transform="translate(30,70)" s:x="30" s:y="10" s:pid="out0" id="port_PLL~locked"><text x="5" y="-4" style="fill:#000; stroke:none" class="cell_PLL">locked</text></g></g><g s:type="generic" transform="translate(524,175)" s:width="30" s:height="40" id="cell_MIG"><text x="15" y="-4" class="nodelabel cell_MIG" s:attribute="ref">MIG</text><rect width="30" height="60" s:generic="body" class="cell_MIG"/><g transform="translate(0,10)" s:x="0" s:y="10" s:pid="in0" id="port_MIG~clk_ref"><text x="-3" y="-4" class="inputPortLabel cell_MIG">clk_ref</text></g><g transform="translate(0,30)" s:x="0" s:y="10" s:pid="in0" id="port_MIG~clk_sys"><text x="-3" y="-4" class="inputPortLabel cell_MIG">clk_sys</text></g><g transform="translate(0,50)" s:x="0" s:y="10" s:pid="in0" id="port_MIG~reset"><text x="-3" y="-4" class="inputPortLabel cell_MIG">reset</text></g></g><g s:type="generic" transform="translate(268,127)" s:width="30" s:height="40" id="cell_counter"><text x="15" y="-4" class="nodelabel cell_counter" s:attribute="ref">counter</text><rect width="30" height="40" s:generic="body" class="cell_counter"/><g transform="translate(0,10)" s:x="0" s:y="10" s:pid="in0" id="port_counter~clk"><text x="-3" y="-4" class="inputPortLabel cell_counter">clk</text></g><g transform="translate(0,30)" s:x="0" s:y="10" s:pid="in0" id="port_counter~start"><text x="-3" y="-4" class="inputPortLabel cell_counter">start</text></g><g transform="translate(30,10)" s:x="30" s:y="10" s:pid="out0" id="port_counter~elapsed"><text x="5" y="-4" style="fill:#000; stroke:none" class="cell_counter">elapsed</text></g></g><g s:type="generic" transform="translate(396,107)" s:width="30" s:height="40" id="cell_sync"><text x="15" y="-4" class="nodelabel cell_sync" s:attribute="ref">sync</text><rect width="30" height="40" s:generic="body" class="cell_sync"/><g transform="translate(0,10)" s:x="0" s:y="10" s:pid="in0" id="port_sync~clk"><text x="-3" y="-4" class="inputPortLabel cell_sync">clk</text></g><g transform="translate(0,30)" s:x="0" s:y="10" s:pid="in0" id="port_sync~in"><text x="-3" y="-4" class="inputPortLabel cell_sync">in</text></g><g transform="translate(30,10)" s:x="30" s:y="10" s:pid="out0" id="port_sync~out"><text x="5" y="-4" style="fill:#000; stroke:none" class="cell_sync">out</text></g></g><g s:type="generic" transform="translate(512,87)" s:width="30" s:height="40" id="cell_businterface"><text x="15" y="-4" class="nodelabel cell_businterface" s:attribute="ref">businterface</text><rect width="30" height="40" s:generic="body" class="cell_businterface"/><g transform="translate(0,10)" s:x="0" s:y="10" s:pid="in0" id="port_businterface~clk"><text x="-3" y="-4" class="inputPortLabel cell_businterface">clk</text></g><g transform="translate(0,30)" s:x="0" s:y="10" s:pid="in0" id="port_businterface~reset"><text x="-3" y="-4" class="inputPortLabel cell_businterface">reset</text></g></g><line x1="160" y1="169" x2="207" y2="169" class="net_2,3,2,3 width_4" style="stroke-width: 2"/><line x1="207" y1="169" x2="207" y2="32" class="net_2,3,2,3 width_4" style="stroke-width: 2"/><line x1="207" y1="32" x2="524" y2="32" class="net_2,3,2,3 width_4" style="stroke-width: 2"/><line x1="160" y1="169" x2="207" y2="169" class="net_2,3,5 width_3" style="stroke-width: 2"/><line x1="207" y1="169" x2="207" y2="32" class="net_2,3,5 width_3" style="stroke-width: 2"/><line x1="207" y1="32" x2="352" y2="32" class="net_2,3,5 width_3" style="stroke-width: 2"/><line x1="352" y1="32" x2="352" y2="117.5" class="net_2,3,5 width_3" style="stroke-width: 2"/><line x1="352" y1="117.5" x2="396" y2="117.5" class="net_2,3,5 width_3" style="stroke-width: 2"/><circle cx="352" cy="32" r="3" style="fill:#000" class="net_2,3,5 width_3"/><line x1="160" y1="169" x2="207" y2="169" class="net_2,3,5 width_3" style="stroke-width: 2"/><line x1="207" y1="169" x2="207" y2="32" class="net_2,3,5 width_3" style="stroke-width: 2"/><line x1="207" y1="32" x2="456" y2="32" class="net_2,3,5 width_3" style="stroke-width: 2"/><line x1="456" y1="32" x2="456" y2="97.5" class="net_2,3,5 width_3" style="stroke-width: 2"/><line x1="456" y1="97.5" x2="512" y2="97.5" class="net_2,3,5 width_3" style="stroke-width: 2"/><circle cx="456" cy="32" r="3" style="fill:#000" class="net_2,3,5 width_3"/><line x1="160" y1="209" x2="207" y2="209" class="net_2 width_1" style="stroke-width: 1"/><line x1="207" y1="209" x2="207" y2="293" class="net_2 width_1" style="stroke-width: 1"/><line x1="207" y1="293" x2="524" y2="293" class="net_2 width_1" style="stroke-width: 1"/><line x1="42" y1="169" x2="129" y2="169" class="net_2,3 width_2" style="stroke-width: 2"/><line x1="42" y1="169" x2="73" y2="169" class="net_2,3 width_2" style="stroke-width: 2"/><line x1="73" y1="169" x2="73" y2="304" class="net_2,3 width_2" style="stroke-width: 2"/><line x1="73" y1="304" x2="466" y2="304" class="net_2,3 width_2" style="stroke-width: 2"/><line x1="466" y1="304" x2="466" y2="205.5" class="net_2,3 width_2" style="stroke-width: 2"/><line x1="466" y1="205.5" x2="524" y2="205.5" class="net_2,3 width_2" style="stroke-width: 2"/><circle cx="73" cy="169" r="3" style="fill:#000" class="net_2,3 width_2"/><line x1="42" y1="169" x2="73" y2="169" class="net_2,3 width_2" style="stroke-width: 2"/><line x1="73" y1="169" x2="73" y2="137.5" class="net_2,3 width_2" style="stroke-width: 2"/><line x1="73" y1="137.5" x2="268" y2="137.5" class="net_2,3 width_2" style="stroke-width: 2"/><line x1="160" y1="189" x2="227" y2="189" class="net_5 width_1" style="stroke-width: 1"/><line x1="227" y1="189" x2="227" y2="236.5" class="net_5 width_1" style="stroke-width: 1"/><line x1="227" y1="236.5" x2="456" y2="236.5" class="net_5 width_1" style="stroke-width: 1"/><line x1="456" y1="236.5" x2="456" y2="185.5" class="net_5 width_1" style="stroke-width: 1"/><line x1="456" y1="185.5" x2="524" y2="185.5" class="net_5 width_1" style="stroke-width: 1"/><line x1="299" y1="137.5" x2="352" y2="137.5" class="net_2,3,4,5 width_4" style="stroke-width: 2"/><line x1="352" y1="137.5" x2="352" y2="225.5" class="net_2,3,4,5 width_4" style="stroke-width: 2"/><line x1="352" y1="225.5" x2="524" y2="225.5" class="net_2,3,4,5 width_4" style="stroke-width: 2"/><circle cx="352" cy="137.5" r="3" style="fill:#000" class="net_2,3,4,5 width_4"/><line x1="299" y1="137.5" x2="396" y2="137.5" class="net_10 width_1" style="stroke-width: 1"/><line x1="160" y1="229" x2="217" y2="229" class="net_83 width_1" style="stroke-width: 1"/><line x1="217" y1="229" x2="217" y2="157.5" class="net_83 width_1" style="stroke-width: 1"/><line x1="217" y1="157.5" x2="268" y2="157.5" class="net_83 width_1" style="stroke-width: 1"/><line x1="427" y1="117.5" x2="512" y2="117.5" class="net_85 width_1" style="stroke-width: 1"/></svg>