<svg xmlns="http://www.w3.org/2000/svg" xmlns:xlink="http://www.w3.org/1999/xlink" xmlns:s="https://github.com/ajsb85/netlistsvg" width="289" height="184"><style>svg {
  stroke:#000;
  fill:none;
}
text {
  fill:#000;
  stroke:none;
  font-size:10px;
  font-weight: bold;
  font-family: "Courier New", monospace;
}
line {
    stroke-linecap: round;
}
.nodelabel {
  text-anchor: middle;
}
.inputPortLabel {
  text-anchor: end;
}
.splitjoinBody {
  fill:#000;
}
  @media (prefers-color-scheme: dark) {
    svg {
      stroke: #fff;
    }
    text {
      fill: #fff !important;
    }
    .splitjoinBody {
      fill: #fff;
    }
    [style*="fill:#000"], [style*="fill:#000000"] {
      fill: #fff !important;
    }
  }</style><g s:type="inputExt" transform="translate(127,152)" s:width="30" s:height="20" id="cell_i0"><text x="15" y="-4" class="nodelabel cell_i0" s:attribute="ref">i0</text><s:alias val="$_inputExt_"/><path d="M0,0 L0,20 L15,20 L30,10 L15,0 Z" class="cell_i0"/><g s:x="30" s:y="10" s:pid="Y"/></g><g s:type="inputExt" transform="translate(127,87)" s:width="30" s:height="20" id="cell_i1"><text x="15" y="-4" class="nodelabel cell_i1" s:attribute="ref">i1</text><s:alias val="$_inputExt_"/><path d="M0,0 L0,20 L15,20 L30,10 L15,0 Z" class="cell_i1"/><g s:x="30" s:y="10" s:pid="Y"/></g><g s:type="inputExt" transform="translate(12,87)" s:width="30" s:height="20" id="cell_i2"><text x="15" y="-4" class="nodelabel cell_i2" s:attribute="ref">i2</text><s:alias val="$_inputExt_"/><path d="M0,0 L0,20 L15,20 L30,10 L15,0 Z" class="cell_i2"/><g s:x="30" s:y="10" s:pid="Y"/></g><g s:type="inputExt" transform="translate(12,22)" s:width="30" s:height="20" id="cell_i3"><text x="15" y="-4" class="nodelabel cell_i3" s:attribute="ref">i3</text><s:alias val="$_inputExt_"/><path d="M0,0 L0,20 L15,20 L30,10 L15,0 Z" class="cell_i3"/><g s:x="30" s:y="10" s:pid="Y"/></g><g s:type="inputExt" transform="translate(127,22)" s:width="30" s:height="20" id="cell_i4"><text x="15" y="-4" class="nodelabel cell_i4" s:attribute="ref">i4</text><s:alias val="$_inputExt_"/><path d="M0,0 L0,20 L15,20 L30,10 L15,0 Z" class="cell_i4"/><g s:x="30" s:y="10" s:pid="Y"/></g><g s:type="outputExt" transform="translate(77,22)" s:width="30" s:height="20" id="cell_o0"><text x="15" y="-4" class="nodelabel cell_o0" s:attribute="ref">o0</text><s:alias val="$_outputExt_"/><path d="M30,0 L30,20 L15,20 L0,10 L15,0 Z" class="cell_o0"/><g s:x="0" s:y="10" s:pid="A"/></g><g s:type="outputExt" transform="translate(247,152)" s:width="30" s:height="20" id="cell_o1"><text x="15" y="-4" class="nodelabel cell_o1" s:attribute="ref">o1</text><s:alias val="$_outputExt_"/><path d="M30,0 L30,20 L15,20 L0,10 L15,0 Z" class="cell_o1"/><g s:x="0" s:y="10" s:pid="A"/></g><g s:type="outputExt" transform="translate(247,87)" s:width="30" s:height="20" id="cell_o2"><text x="15" y="-4" class="nodelabel cell_o2" s:attribute="ref">o2</text><s:alias val="$_outputExt_"/><path d="M30,0 L30,20 L15,20 L0,10 L15,0 Z" class="cell_o2"/><g s:x="0" s:y="10" s:pid="A"/></g><g s:type="outputExt" transform="translate(247,22)" s:width="30" s:height="20" id="cell_o3"><text x="15" y="-4" class="nodelabel cell_o3" s:attribute="ref">o3</text><s:alias val="$_outputExt_"/><path d="M30,0 L30,20 L15,20 L0,10 L15,0 Z" class="cell_o3"/><g s:x="0" s:y="10" s:pid="A"/></g><line x1="42" y1="97" x2="52" y2="97" class="net_2,3,2,3 width_4" style="stroke-width: 2"/><line x1="52" y1="97" x2="52" y2="32" class="net_2,3,2,3 width_4" style="stroke-width: 2"/><line x1="52" y1="32" x2="77" y2="32" class="net_2,3,2,3 width_4" style="stroke-width: 2"/><circle cx="52" cy="32" r="3" style="fill:#000" class="net_2,3,2,3 width_4"/><line x1="42" y1="32" x2="77" y2="32" class="net_2,3,5 width_3" style="stroke-width: 2"/><line x1="222" y1="32" x2="222" y2="162" class="net_2,3,5 width_3" style="stroke-width: 2"/><line x1="222" y1="162" x2="247" y2="162" class="net_2,3,5 width_3" style="stroke-width: 2"/><line x1="222" y1="32" x2="222" y2="97" class="net_2 width_1" style="stroke-width: 1"/><line x1="222" y1="97" x2="247" y2="97" class="net_2 width_1" style="stroke-width: 1"/><circle cx="222" cy="97" r="2" style="fill:#000" class="net_2 width_1"/><line x1="222" y1="32" x2="247" y2="32" class="net_2,3 width_2" style="stroke-width: 2"/><line x1="157" y1="162" x2="167" y2="162" class="net_2,3 width_2" style="stroke-width: 2"/><line x1="167" y1="162" x2="167" y2="97" class="net_2,3 width_2" style="stroke-width: 2"/><line x1="157" y1="97" x2="167" y2="97" class="net_2,3 width_2" style="stroke-width: 2"/><line x1="157" y1="32" x2="167" y2="32" class="net_5 width_1" style="stroke-width: 1"/><line x1="167" y1="32" x2="167" y2="97" class="net_5 width_1" style="stroke-width: 1"/><circle cx="167" cy="97" r="2" style="fill:#000" class="net_5 width_1"/></svg>