<svg xmlns="http://www.w3.org/2000/svg" xmlns:s="https://github.com/ajsb85/netlistsvg" xmlns:xlink="http://www.w3.org/1999/xlink" width="563.5" height="192"><style>svg{stroke:#000;fill:none}text{fill:#000;stroke:none;font-size:10px;font-weight:700;font-family:&quot;Courier New&quot;,monospace}line{stroke-linecap:round}.nodelabel{text-anchor:middle}@media (prefers-color-scheme:dark){svg{stroke:#fff}[style*=&quot;fill:#000&quot;],[style*=&quot;fill:#000000&quot;],text{fill:#fff!important}}</style><g id="cell_clk" transform="translate(298.5,95)" s:height="20" s:type="inputExt" s:width="30"><text x="15" y="-4" class="nodelabel cell_clk" s:attribute="ref">clk</text><s:alias val="$_inputExt_"/><path d="M0,0 L0,20 L15,20 L30,10 L15,0 Z" class="cell_clk"/></g><g id="cell_write_enable" transform="translate(116,105)" s:height="20" s:type="inputExt" s:width="30"><text x="15" y="-4" class="nodelabel cell_write_enable" s:attribute="ref">write_enable</text><s:alias val="$_inputExt_"/><path d="M0,0 L0,20 L15,20 L30,10 L15,0 Z" class="cell_write_enable"/></g><g id="cell_rst" transform="translate(298.5,160)" s:height="20" s:type="inputExt" s:width="30"><text x="15" y="-4" class="nodelabel cell_rst" s:attribute="ref">rst</text><s:alias val="$_inputExt_"/><path d="M0,0 L0,20 L15,20 L30,10 L15,0 Z" class="cell_rst"/></g><g id="cell_AddressIn" transform="translate(12,46)" s:height="20" s:type="inputExt" s:width="30"><text x="15" y="-4" class="nodelabel cell_AddressIn" s:attribute="ref">AddressIn</text><s:alias val="$_inputExt_"/><path d="M0,0 L0,20 L15,20 L30,10 L15,0 Z" class="cell_AddressIn"/></g><g id="cell_AddressOut" transform="translate(476.5,36)" s:height="20" s:type="outputExt" s:width="30"><text x="15" y="-4" class="nodelabel cell_AddressOut" s:attribute="ref">AddressOut</text><s:alias val="$_outputExt_"/><path d="M30,0 L30,20 L15,20 L0,10 L15,0 Z" class="cell_AddressOut"/></g><g id="cell_\10" transform="translate(367.5,36)" s:height="44" s:type="dff-bus" s:width="34"><s:alias val="$dff-bus"/><s:alias val="$_DFF_-bus"/><s:alias val="$_DFF_P_-bus"/><s:alias val="adff-bus"/><s:alias val="$adff-bus"/><s:alias val="$_DFF_-bus"/><s:alias val="$_DFF_P_-bus"/><s:alias val="sdff-bus"/><s:alias val="$sdff-bus"/><s:alias val="$_DFF_-bus"/><s:alias val="$_DFF_P_-bus"/><rect width="30" height="40" x="0" y="0" class="cell_\10"/><path d="M0,35 L5,30 L0,25" class="cell_\10"/><path d="M30,2 L32,2 L32,42 L2,42 L2,40" class="cell_\10"/><path d="M32,4 L34,4 L34,44 L4,44 L4,42" class="cell_\10"/></g><g id="cell_\9" transform="translate(239,26)" s:height="40" s:type="mux-bus" s:width="24"><s:alias val="$pmux-bus"/><s:alias val="$mux-bus"/><s:alias val="$_MUX_-bus"/><path d="M0,0 L20,10 L20,30 L0,40 Z" class="cell_\9"/><path d="M4,2 L4,0 L22,9 L22,31 L4,40 L4,38" class="cell_\9"/><path d="M8,2 L8,0 L24,8 L24,32 L8,40 L8,38" class="cell_\9"/><text x="5" y="32" class="nodelabel cell_\9">1</text><text x="5" y="13" class="nodelabel cell_\9">0</text></g><line x1="402.5" x2="476.5" y1="46" y2="46" class="net_2,3,2,3 width_4" style="stroke-width:2"/><line x1="402.5" x2="412.5" y1="46" y2="46" class="net_2,3,5 width_3" style="stroke-width:2"/><line x1="412.5" x2="412.5" y1="46" y2="16" class="net_2,3,5 width_3" style="stroke-width:2"/><line x1="412.5" x2="213" y1="16" y2="16" class="net_2,3,5 width_3" style="stroke-width:2"/><line x1="213" x2="213" y1="16" y2="36" class="net_2,3,5 width_3" style="stroke-width:2"/><line x1="213" x2="238" y1="36" y2="36" class="net_2,3,5 width_3" style="stroke-width:2"/><circle cx="412.5" cy="46" r="3" class="net_2,3,5 width_3" style="fill:#000"/><line x1="328.5" x2="384.5" y1="170" y2="170" class="net_2,3,5 width_3" style="stroke-width:2"/><line x1="384.5" x2="384.5" y1="170" y2="80" class="net_2,3,5 width_3" style="stroke-width:2"/><line x1="328.5" x2="341.5" y1="105" y2="105" class="net_2 width_1" style="stroke-width:1"/><line x1="341.5" x2="341.5" y1="105" y2="66" class="net_2 width_1" style="stroke-width:1"/><line x1="341.5" x2="366.5" y1="66" y2="66" class="net_2 width_1" style="stroke-width:1"/><line x1="263.5" x2="366.5" y1="46" y2="46" class="net_2,3 width_2" style="stroke-width:2"/><line x1="42" x2="238" y1="56" y2="56" class="net_2,3 width_2" style="stroke-width:2"/><line x1="146" x2="251" y1="115" y2="115" class="net_2,3 width_2" style="stroke-width:2"/><line x1="251" x2="251" y1="115" y2="64" class="net_2,3 width_2" style="stroke-width:2"/><rect width="22" height="9" x="314" y="11" class="net_2,3,2,3 width_4 busLabel_4" style="fill:#fff;stroke:none"/><text x="313" y="19" class="net_2,3,2,3 width_4 busLabel_4">/64/</text><rect width="22" height="9" x="314" y="11" class="net_2,3,5 width_3 busLabel_3" style="fill:#fff;stroke:none"/><text x="313" y="19" class="net_2,3,5 width_3 busLabel_3">/64/</text><rect width="22" height="9" x="314" y="41" class="net_2,3 width_2 busLabel_2" style="fill:#fff;stroke:none"/><text x="313" y="49" class="net_2,3 width_2 busLabel_2">/64/</text><rect width="22" height="9" x="158.5" y="51" class="net_2,3 width_2 busLabel_2" style="fill:#fff;stroke:none"/><text x="157.5" y="59" class="net_2,3 width_2 busLabel_2">/64/</text></svg>