<svg xmlns="http://www.w3.org/2000/svg" xmlns:s="https://github.com/ajsb85/netlistsvg" xmlns:xlink="http://www.w3.org/1999/xlink" width="421" height="251.5"><style>svg{stroke:#000;fill:none}text{fill:#000;stroke:none;font-size:10px;font-weight:700;font-family:&quot;Courier New&quot;,monospace}line{stroke-linecap:round}.nodelabel{text-anchor:middle}.inputPortLabel{text-anchor:end}.splitjoinBody{fill:#000}@media (prefers-color-scheme:dark){svg{stroke:#fff}.splitjoinBody{fill:#fff}[style*=&quot;fill:#000&quot;],[style*=&quot;fill:#000000&quot;],text{fill:#fff!important}}</style><g id="cell_inthing" transform="translate(12,154.5)" s:height="20" s:type="inputExt" s:width="30"><text x="15" y="-4" class="nodelabel cell_inthing" s:attribute="ref">inthing</text><s:alias val="$_inputExt_"/><path d="M0,0 L0,20 L15,20 L30,10 L15,0 Z" class="cell_inthing"/></g><g id="cell_outthing" transform="translate(340,24.5)" s:height="20" s:type="outputExt" s:width="30"><text x="15" y="-4" class="nodelabel cell_outthing" s:attribute="ref">outthing</text><s:alias val="$_outputExt_"/><path d="M30,0 L30,20 L15,20 L0,10 L15,0 Z" class="cell_outthing"/></g><g id="cell_outthing2" transform="translate(340,154.5)" s:height="20" s:type="outputExt" s:width="30"><text x="15" y="-4" class="nodelabel cell_outthing2" s:attribute="ref">outthing2</text><s:alias val="$_outputExt_"/><path d="M30,0 L30,20 L15,20 L0,10 L15,0 Z" class="cell_outthing2"/></g><g id="cell_outthing3" transform="translate(340,89.5)" s:height="20" s:type="outputExt" s:width="30"><text x="15" y="-4" class="nodelabel cell_outthing3" s:attribute="ref">outthing3</text><s:alias val="$_outputExt_"/><path d="M30,0 L30,20 L15,20 L0,10 L15,0 Z" class="cell_outthing3"/></g><g id="cell_outthing4" transform="translate(340,219.5)" s:height="20" s:type="outputExt" s:width="30"><text x="15" y="-4" class="nodelabel cell_outthing4" s:attribute="ref">outthing4</text><s:alias val="$_outputExt_"/><path d="M30,0 L30,20 L15,20 L0,10 L15,0 Z" class="cell_outthing4"/></g><g id="cell_$join$,2,3,2,3," transform="translate(260,14)" s:height="40" s:type="join" s:width="4"><rect width="5" height="40" class="splitjoinBody" s:generic="body"/><s:alias val="$_join_"/><g s:pid="in0" s:x="0" s:y="10"><text x="-3" y="-4" class="inputPortLabel" transform="translate(0,10)">0:1</text></g><g s:pid="in0" s:x="0" s:y="10"><text x="-3" y="-4" class="inputPortLabel" transform="translate(0,30)">2:3</text></g></g><g id="cell_$join$,2,3,5," transform="translate(260,144)" s:height="40" s:type="join" s:width="4"><rect width="5" height="40" class="splitjoinBody" s:generic="body"/><s:alias val="$_join_"/><g s:pid="in0" s:x="0" s:y="10"><text x="-3" y="-4" class="inputPortLabel" transform="translate(0,10)">0:1</text></g><g s:pid="in0" s:x="0" s:y="10"><text x="-3" y="-4" class="inputPortLabel" transform="translate(0,30)">2</text></g></g><g id="cell_$split$,2,3,4,5," transform="translate(143,144)" s:height="40" s:type="split" s:width="5"><rect width="5" height="60" class="splitjoinBody" s:generic="body"/><s:alias val="$_split_"/><g s:pid="out0" s:x="4" s:y="10"><text x="5" y="-4" transform="translate(4,10)">0:1</text></g><g s:pid="out0" s:x="4" s:y="10"><text x="5" y="-4" transform="translate(4,30)">3</text></g><g s:pid="out0" s:x="4" s:y="10"><text x="5" y="-4" transform="translate(4,50)">0</text></g></g><line x1="266" x2="340" y1="34.5" y2="34.5" class="net_2,3,2,3 width_4" style="stroke-width:2"/><line x1="266" x2="340" y1="164.5" y2="164.5" class="net_2,3,5 width_3" style="stroke-width:2"/><line x1="266" x2="276" y1="164.5" y2="164.5" class="net_2,3,5 width_3" style="stroke-width:2"/><line x1="276" x2="276" y1="164.5" y2="99.5" class="net_2,3,5 width_3" style="stroke-width:2"/><line x1="276" x2="340" y1="99.5" y2="99.5" class="net_2,3,5 width_3" style="stroke-width:2"/><circle cx="276" cy="164.5" r="3" class="net_2,3,5 width_3" style="fill:#000"/><line x1="148" x2="177" y1="194.5" y2="194.5" class="net_2 width_1" style="stroke-width:1"/><line x1="177" x2="177" y1="194.5" y2="229.5" class="net_2 width_1" style="stroke-width:1"/><line x1="177" x2="340" y1="229.5" y2="229.5" class="net_2 width_1" style="stroke-width:1"/><line x1="148" x2="177" y1="154.5" y2="154.5" class="net_2,3 width_2" style="stroke-width:2"/><line x1="177" x2="177" y1="154.5" y2="24.5" class="net_2,3 width_2" style="stroke-width:2"/><line x1="177" x2="260" y1="24.5" y2="24.5" class="net_2,3 width_2" style="stroke-width:2"/><circle cx="177" cy="154.5" r="3" class="net_2,3 width_2" style="fill:#000"/><line x1="148" x2="177" y1="154.5" y2="154.5" class="net_2,3 width_2" style="stroke-width:2"/><line x1="177" x2="177" y1="154.5" y2="44.5" class="net_2,3 width_2" style="stroke-width:2"/><line x1="177" x2="260" y1="44.5" y2="44.5" class="net_2,3 width_2" style="stroke-width:2"/><circle cx="177" cy="44.5" r="3" class="net_2,3 width_2" style="fill:#000"/><line x1="148" x2="260" y1="154.5" y2="154.5" class="net_2,3 width_2" style="stroke-width:2"/><line x1="148" x2="260" y1="174.5" y2="174.5" class="net_5 width_1" style="stroke-width:1"/><line x1="42" x2="143" y1="164.5" y2="164.5" class="net_2,3,4,5 width_4" style="stroke-width:2"/><rect width="16" height="9" x="302" y="29.5" class="net_2,3,2,3 width_4 busLabel_4" style="fill:#fff;stroke:none"/><text x="301" y="37.5" class="net_2,3,2,3 width_4 busLabel_4">/4/</text><rect width="16" height="9" x="302" y="94.5" class="net_2,3,5 width_3 busLabel_3" style="fill:#fff;stroke:none"/><text x="301" y="102.5" class="net_2,3,5 width_3 busLabel_3">/3/</text><rect width="16" height="9" x="302" y="94.5" class="net_2,3,5 width_3 busLabel_3" style="fill:#fff;stroke:none"/><text x="301" y="102.5" class="net_2,3,5 width_3 busLabel_3">/3/</text><rect width="16" height="9" x="203" y="149.5" class="net_2,3 width_2 busLabel_2" style="fill:#fff;stroke:none"/><text x="202" y="157.5" class="net_2,3 width_2 busLabel_2">/2/</text><rect width="16" height="9" x="203" y="149.5" class="net_2,3 width_2 busLabel_2" style="fill:#fff;stroke:none"/><text x="202" y="157.5" class="net_2,3 width_2 busLabel_2">/2/</text><rect width="16" height="9" x="203" y="149.5" class="net_2,3 width_2 busLabel_2" style="fill:#fff;stroke:none"/><text x="202" y="157.5" class="net_2,3 width_2 busLabel_2">/2/</text><rect width="16" height="9" x="105" y="159.5" class="net_2,3,4,5 width_4 busLabel_4" style="fill:#fff;stroke:none"/><text x="104" y="167.5" class="net_2,3,4,5 width_4 busLabel_4">/4/</text></svg>