<svg xmlns="http://www.w3.org/2000/svg" xmlns:s="https://github.com/ajsb85/netlistsvg" xmlns:xlink="http://www.w3.org/1999/xlink" width="941.5" height="725.5"><style>svg{stroke:#000;fill:none}text{fill:#000;stroke:none;font-size:10px;font-weight:700;font-family:&quot;Courier New&quot;,monospace}line{stroke-linecap:round}.nodelabel{text-anchor:middle}.inputPortLabel{text-anchor:end}.splitjoinBody{fill:#000}@media (prefers-color-scheme:dark){svg{stroke:#fff}.splitjoinBody{fill:#fff}[style*=&quot;fill:#000&quot;],[style*=&quot;fill:#000000&quot;],text{fill:#fff!important}}</style><g id="cell_clock" transform="translate(12,229.5)" s:height="20" s:type="inputExt" s:width="30"><text x="15" y="-4" class="nodelabel cell_clock" s:attribute="ref">clock</text><s:alias val="$_inputExt_"/><path d="M0,0 L0,20 L15,20 L30,10 L15,0 Z" class="cell_clock"/></g><g id="cell_data_in" transform="translate(342,268.5)" s:height="20" s:type="inputExt" s:width="30"><text x="15" y="-4" class="nodelabel cell_data_in" s:attribute="ref">data_in</text><s:alias val="$_inputExt_"/><path d="M0,0 L0,20 L15,20 L30,10 L15,0 Z" class="cell_data_in"/></g><g id="cell_up" transform="translate(202,399.5)" s:height="20" s:type="inputExt" s:width="30"><text x="15" y="-4" class="nodelabel cell_up" s:attribute="ref">up</text><s:alias val="$_inputExt_"/><path d="M0,0 L0,20 L15,20 L30,10 L15,0 Z" class="cell_up"/></g><g id="cell_down" transform="translate(202,188.5)" s:height="20" s:type="inputExt" s:width="30"><text x="15" y="-4" class="nodelabel cell_down" s:attribute="ref">down</text><s:alias val="$_inputExt_"/><path d="M0,0 L0,20 L15,20 L30,10 L15,0 Z" class="cell_down"/></g><g id="cell_carry_out" transform="translate(854.5,407)" s:height="20" s:type="outputExt" s:width="30"><text x="15" y="-4" class="nodelabel cell_carry_out" s:attribute="ref">carry_out</text><s:alias val="$_outputExt_"/><path d="M30,0 L30,20 L15,20 L0,10 L15,0 Z" class="cell_carry_out"/></g><g id="cell_borrow_out" transform="translate(854.5,22)" s:height="20" s:type="outputExt" s:width="30"><text x="15" y="-4" class="nodelabel cell_borrow_out" s:attribute="ref">borrow_out</text><s:alias val="$_outputExt_"/><path d="M30,0 L30,20 L15,20 L0,10 L15,0 Z" class="cell_borrow_out"/></g><g id="cell_count_out" transform="translate(854.5,693.5)" s:height="20" s:type="outputExt" s:width="30"><text x="15" y="-4" class="nodelabel cell_count_out" s:attribute="ref">count_out</text><s:alias val="$_outputExt_"/><path d="M30,0 L30,20 L15,20 L0,10 L15,0 Z" class="cell_count_out"/></g><g id="cell_parity_out" transform="translate(854.5,97)" s:height="20" s:type="outputExt" s:width="30"><text x="15" y="-4" class="nodelabel cell_parity_out" s:attribute="ref">parity_out</text><s:alias val="$_outputExt_"/><path d="M30,0 L30,20 L15,20 L0,10 L15,0 Z" class="cell_parity_out"/></g><g id="cell_$add$input.v:17$3" transform="translate(206.66666666666666,333.5)" s:height="25" s:type="add" s:width="25"><s:alias val="$add"/><circle cx="12.5" cy="12.5" r="12.5" class="cell_$add$input.v:17$3"/><line x1="7.5" x2="17.5" y1="12.5" y2="12.5" class="cell_$add$input.v:17$3"/><line x1="12.5" x2="12.5" y1="7.5" y2="17.5" class="cell_$add$input.v:17$3"/></g><g id="cell_$and$input.v:28$5" transform="translate(720.5,404.5)" s:height="25" s:type="and" s:width="30"><s:alias val="$and"/><s:alias val="$logic_and"/><s:alias val="$_AND_"/><s:alias val="$reduce_and"/><path d="M0,0 L0,25 L15,25 A15 12.5 0 0 0 15,0 Z" class="cell_$and$input.v:28$5"/></g><g id="cell_$and$input.v:29$6" transform="translate(720.5,19.5)" s:height="25" s:type="and" s:width="30"><s:alias val="$and"/><s:alias val="$logic_and"/><s:alias val="$_AND_"/><s:alias val="$reduce_and"/><path d="M0,0 L0,25 L15,25 A15 12.5 0 0 0 15,0 Z" class="cell_$and$input.v:29$6"/></g><g id="cell_$procdff$40" transform="translate(93,209.5)" s:height="44" s:type="dff-bus" s:width="34"><s:alias val="$dff-bus"/><s:alias val="$_DFF_-bus"/><s:alias val="$_DFF_P_-bus"/><s:alias val="adff-bus"/><s:alias val="$adff-bus"/><s:alias val="$_DFF_-bus"/><s:alias val="$_DFF_P_-bus"/><s:alias val="sdff-bus"/><s:alias val="$sdff-bus"/><s:alias val="$_DFF_-bus"/><s:alias val="$_DFF_P_-bus"/><rect width="30" height="40" x="0" y="0" class="cell_$procdff$40"/><path d="M0,35 L5,30 L0,25" class="cell_$procdff$40"/><path d="M30,2 L32,2 L32,42 L2,42 L2,40" class="cell_$procdff$40"/><path d="M32,4 L34,4 L34,44 L4,44 L4,42" class="cell_$procdff$40"/></g><g id="cell_$procdff$41" transform="translate(788.5,407)" s:height="40" s:type="dff" s:width="30"><s:alias val="$dff"/><s:alias val="$_DFF_"/><s:alias val="$_DFF_P_"/><s:alias val="$adff"/><s:alias val="$_DFF_"/><s:alias val="$_DFF_P_"/><s:alias val="$sdff"/><s:alias val="$_DFF_"/><s:alias val="$_DFF_P_"/><rect width="30" height="40" x="0" y="0" class="cell_$procdff$41"/><path d="M0,35 L5,30 L0,25" class="cell_$procdff$41"/></g><g id="cell_$procdff$42" transform="translate(788.5,22)" s:height="40" s:type="dff" s:width="30"><s:alias val="$dff"/><s:alias val="$_DFF_"/><s:alias val="$_DFF_P_"/><s:alias val="$adff"/><s:alias val="$_DFF_"/><s:alias val="$_DFF_P_"/><s:alias val="$sdff"/><s:alias val="$_DFF_"/><s:alias val="$_DFF_P_"/><rect width="30" height="40" x="0" y="0" class="cell_$procdff$42"/><path d="M0,35 L5,30 L0,25" class="cell_$procdff$42"/></g><g id="cell_$procdff$43" transform="translate(788.5,97)" s:height="40" s:type="dff" s:width="30"><s:alias val="$dff"/><s:alias val="$_DFF_"/><s:alias val="$_DFF_P_"/><s:alias val="$adff"/><s:alias val="$_DFF_"/><s:alias val="$_DFF_P_"/><s:alias val="$sdff"/><s:alias val="$_DFF_"/><s:alias val="$_DFF_P_"/><rect width="30" height="40" x="0" y="0" class="cell_$procdff$43"/><path d="M0,35 L5,30 L0,25" class="cell_$procdff$43"/></g><g id="cell_$procmux$36" transform="translate(621,79.5)" s:height="40" s:type="mux-bus" s:width="24"><s:alias val="$pmux-bus"/><s:alias val="$mux-bus"/><s:alias val="$_MUX_-bus"/><path d="M0,0 L20,10 L20,30 L0,40 Z" class="cell_$procmux$36"/><path d="M4,2 L4,0 L22,9 L22,31 L4,40 L4,38" class="cell_$procmux$36"/><path d="M8,2 L8,0 L24,8 L24,32 L8,40 L8,38" class="cell_$procmux$36"/><text x="5" y="32" class="nodelabel cell_$procmux$36">1</text><text x="5" y="13" class="nodelabel cell_$procmux$36">0</text></g><g id="cell_$procmux$37_CMP0" transform="translate(449,435.5)" s:height="25" s:type="eq" s:width="25"><s:alias val="$eq"/><s:alias val="$eqx"/><circle cx="12.5" cy="12.5" r="12.5" class="cell_$procmux$37_CMP0"/><line x1="7.5" x2="17.5" y1="10" y2="10" class="cell_$procmux$37_CMP0"/><line x1="7.5" x2="17.5" y1="15" y2="15" class="cell_$procmux$37_CMP0"/></g><g id="cell_$procmux$38_CMP0" transform="translate(449,521)" s:height="25" s:type="eq" s:width="25"><s:alias val="$eq"/><s:alias val="$eqx"/><circle cx="12.5" cy="12.5" r="12.5" class="cell_$procmux$38_CMP0"/><line x1="7.5" x2="17.5" y1="10" y2="10" class="cell_$procmux$38_CMP0"/><line x1="7.5" x2="17.5" y1="15" y2="15" class="cell_$procmux$38_CMP0"/></g><g id="cell_$procmux$39_CMP0" transform="translate(449,616.5)" s:height="25" s:type="eq" s:width="25"><s:alias val="$eq"/><s:alias val="$eqx"/><circle cx="12.5" cy="12.5" r="12.5" class="cell_$procmux$39_CMP0"/><line x1="7.5" x2="17.5" y1="10" y2="10" class="cell_$procmux$39_CMP0"/><line x1="7.5" x2="17.5" y1="15" y2="15" class="cell_$procmux$39_CMP0"/></g><g id="cell_$reduce_xor$input.v:27$4" transform="translate(719.5,94.5)" s:height="25" s:type="reduce_xor" s:width="33"><s:alias val="$xor"/><s:alias val="$reduce_xor"/><s:alias val="$_XOR_"/><path d="M3,0 A30 25 0 0 1 3,25 A30 25 0 0 0 33,12.5 A30 25 0 0 0 3,0" class="cell_$reduce_xor$input.v:27$4"/><path d="M0,0 A30 25 0 0 1 0,25" class="cell_$reduce_xor$input.v:27$4"/></g><g id="cell_$sub$input.v:16$2" transform="translate(206.66666666666666,118.5)" s:height="25" s:type="sub" s:width="25"><s:alias val="$sub"/><circle cx="12.5" cy="12.5" r="12.5" class="cell_$sub$input.v:16$2"/><line x1="7.5" x2="17.5" y1="12.5" y2="12.5" class="cell_$sub$input.v:16$2"/></g><g id="cell_11" transform="translate(95,346.5)" s:height="20" s:type="constant" s:width="30"><text x="15" y="-4" class="nodelabel cell_11" s:attribute="ref">11</text><s:alias val="$_constant_"/><rect width="30" height="20" class="cell_11"/></g><g id="cell_10" transform="translate(276,448.5)" s:height="20" s:type="constant" s:width="30"><text x="15" y="-4" class="nodelabel cell_10" s:attribute="ref">10</text><s:alias val="$_constant_"/><rect width="30" height="20" class="cell_10"/></g><g id="cell_01" transform="translate(276,593.5)" s:height="20" s:type="constant" s:width="30"><text x="15" y="-4" class="nodelabel cell_01" s:attribute="ref">01</text><s:alias val="$_constant_"/><rect width="30" height="20" class="cell_01"/></g><g id="cell_00" transform="translate(276,658.5)" s:height="20" s:type="constant" s:width="30"><text x="15" y="-4" class="nodelabel cell_00" s:attribute="ref">00</text><s:alias val="$_constant_"/><rect width="30" height="20" class="cell_00"/></g><g id="cell_101" transform="translate(95,131.5)" s:height="20" s:type="constant" s:width="30"><text x="15" y="-4" class="nodelabel cell_101" s:attribute="ref">101</text><s:alias val="$_constant_"/><rect width="30" height="20" class="cell_101"/></g><g id="cell_$join$,26,27,28,29,30,31,32,33,34,49,50,51,52,53,54,55,56,57,3,4,5,6,7,8,9,10,11," transform="translate(540,100.5)" s:height="40" s:type="join" s:width="4"><rect width="5" height="60" class="splitjoinBody" s:generic="body"/><s:alias val="$_join_"/><g s:pid="in0" s:x="0" s:y="10"><text x="-3" y="-4" class="inputPortLabel" transform="translate(0,10)">0:8</text></g><g s:pid="in0" s:x="0" s:y="10"><text x="-3" y="-4" class="inputPortLabel" transform="translate(0,30)">9:17</text></g><g s:pid="in0" s:x="0" s:y="10"><text x="-3" y="-4" class="inputPortLabel" transform="translate(0,50)">18:26</text></g></g><g id="cell_$join$,58,59,60," transform="translate(532.75,437.5)" s:height="40" s:type="join" s:width="4"><rect width="5" height="60" class="splitjoinBody" s:generic="body"/><s:alias val="$_join_"/><g s:pid="in0" s:x="0" s:y="10"><text x="-3" y="-4" class="inputPortLabel" transform="translate(0,10)">0</text></g><g s:pid="in0" s:x="0" s:y="10"><text x="-3" y="-4" class="inputPortLabel" transform="translate(0,30)">1</text></g><g s:pid="in0" s:x="0" s:y="10"><text x="-3" y="-4" class="inputPortLabel" transform="translate(0,50)">2</text></g></g><g id="cell_$join$,13,12," transform="translate(287.3333333333333,505.5)" s:height="40" s:type="join" s:width="4"><rect width="5" height="40" class="splitjoinBody" s:generic="body"/><s:alias val="$_join_"/><g s:pid="in0" s:x="0" s:y="10"><text x="-3" y="-4" class="inputPortLabel" transform="translate(0,10)">0</text></g><g s:pid="in0" s:x="0" s:y="10"><text x="-3" y="-4" class="inputPortLabel" transform="translate(0,30)">1</text></g></g><g id="cell_$split$,26,27,28,29,30,31,32,33,34,35," transform="translate(367.6666666666667,325.5)" s:height="40" s:type="split" s:width="5"><rect width="5" height="40" class="splitjoinBody" s:generic="body"/><s:alias val="$_split_"/><g s:pid="out0" s:x="4" s:y="10"><text x="5" y="-4" transform="translate(4,10)">9</text></g><g s:pid="out0" s:x="4" s:y="10"><text x="5" y="-4" transform="translate(4,30)">0:8</text></g></g><g id="cell_$split$,49,50,51,52,53,54,55,56,57,37," transform="translate(367.6666666666667,110.5)" s:height="40" s:type="split" s:width="5"><rect width="5" height="40" class="splitjoinBody" s:generic="body"/><s:alias val="$_split_"/><g s:pid="out0" s:x="4" s:y="10"><text x="5" y="-4" transform="translate(4,10)">9</text></g><g s:pid="out0" s:x="4" s:y="10"><text x="5" y="-4" transform="translate(4,30)">0:8</text></g></g><line x1="819.5" x2="854.5" y1="417" y2="417" class="net_2,3,2,3 width_4" style="stroke-width:2"/><line x1="819.5" x2="854.5" y1="32" y2="32" class="net_2,3,5 width_3" style="stroke-width:2"/><line x1="128" x2="138" y1="219.5" y2="219.5" class="net_2,3,5 width_3" style="stroke-width:2"/><line x1="138" x2="138" y1="219.5" y2="703.5" class="net_2,3,5 width_3" style="stroke-width:2"/><line x1="138" x2="854.5" y1="703.5" y2="703.5" class="net_2,3,5 width_3" style="stroke-width:2"/><circle cx="138" cy="219.5" r="3" class="net_2,3,5 width_3" style="fill:#000"/><line x1="128" x2="138" y1="219.5" y2="219.5" class="net_2 width_1" style="stroke-width:1"/><line x1="138" x2="138" y1="219.5" y2="338.5" class="net_2 width_1" style="stroke-width:1"/><line x1="138" x2="208.667" y1="338.5" y2="338.5" class="net_2 width_1" style="stroke-width:1"/><circle cx="138" cy="338.5" r="2" class="net_2 width_1" style="fill:#000"/><line x1="128" x2="419" y1="219.5" y2="219.5" class="net_2,3 width_2" style="stroke-width:2"/><line x1="419" x2="419" y1="219.5" y2="89.5" class="net_2,3 width_2" style="stroke-width:2"/><line x1="419" x2="620" y1="89.5" y2="89.5" class="net_2,3 width_2" style="stroke-width:2"/><line x1="128" x2="138" y1="219.5" y2="219.5" class="net_2,3 width_2" style="stroke-width:2"/><line x1="138" x2="138" y1="219.5" y2="123.5" class="net_2,3 width_2" style="stroke-width:2"/><line x1="138" x2="208.667" y1="123.5" y2="123.5" class="net_2,3 width_2" style="stroke-width:2"/><line x1="819.5" x2="854.5" y1="107" y2="107" class="net_2,3 width_2" style="stroke-width:2"/><line x1="126" x2="177" y1="356.5" y2="356.5" class="net_5 width_1" style="stroke-width:1"/><line x1="177" x2="177" y1="356.5" y2="353.5" class="net_5 width_1" style="stroke-width:1"/><line x1="177" x2="208.667" y1="353.5" y2="353.5" class="net_5 width_1" style="stroke-width:1"/><line x1="232" x2="720.5" y1="409.5" y2="409.5" class="net_2,3,4,5 width_4" style="stroke-width:2"/><line x1="232" x2="251" y1="409.5" y2="409.5" class="net_10 width_1" style="stroke-width:1"/><line x1="251" x2="251" y1="409.5" y2="536" class="net_10 width_1" style="stroke-width:1"/><line x1="251" x2="287.333" y1="536" y2="536" class="net_10 width_1" style="stroke-width:1"/><circle cx="251" cy="409.5" r="2" class="net_10 width_1" style="fill:#000"/><line x1="372.667" x2="439" y1="336" y2="336" class="net_83 width_1" style="stroke-width:1"/><line x1="439" x2="439" y1="336" y2="424.5" class="net_83 width_1" style="stroke-width:1"/><line x1="439" x2="720.5" y1="424.5" y2="424.5" class="net_83 width_1" style="stroke-width:1"/><line x1="232" x2="261" y1="198.5" y2="198.5" class="net_85 width_1" style="stroke-width:1"/><line x1="261" x2="261" y1="198.5" y2="24.5" class="net_85 width_1" style="stroke-width:1"/><line x1="261" x2="720.5" y1="24.5" y2="24.5" class="net_85 width_1" style="stroke-width:1"/><circle cx="261" cy="198.5" r="2" class="net_85 width_1" style="fill:#000"/><line x1="232" x2="261" y1="198.5" y2="198.5" class="net_89 width_1" style="stroke-width:1"/><line x1="261" x2="261" y1="198.5" y2="516" class="net_89 width_1" style="stroke-width:1"/><line x1="261" x2="287.333" y1="516" y2="516" class="net_89 width_1" style="stroke-width:1"/><line x1="372.667" x2="409" y1="121" y2="121" class="net_70 width_1" style="stroke-width:1"/><line x1="409" x2="409" y1="121" y2="39.5" class="net_70 width_1" style="stroke-width:1"/><line x1="409" x2="720.5" y1="39.5" y2="39.5" class="net_70 width_1" style="stroke-width:1"/><line x1="42" x2="92" y1="239.5" y2="239.5" class="net_2 width_1" style="stroke-width:1"/><line x1="42" x2="67" y1="239.5" y2="239.5" class="net_2 width_1" style="stroke-width:1"/><line x1="67" x2="67" y1="239.5" y2="378.5" class="net_2 width_1" style="stroke-width:1"/><line x1="67" x2="177" y1="378.5" y2="378.5" class="net_2 width_1" style="stroke-width:1"/><line x1="177" x2="177" y1="378.5" y2="688.5" class="net_2 width_1" style="stroke-width:1"/><line x1="177" x2="762.5" y1="688.5" y2="688.5" class="net_2 width_1" style="stroke-width:1"/><line x1="762.5" x2="762.5" y1="688.5" y2="437" class="net_2 width_1" style="stroke-width:1"/><line x1="762.5" x2="787.5" y1="437" y2="437" class="net_2 width_1" style="stroke-width:1"/><circle cx="67" cy="239.5" r="2" class="net_2 width_1" style="fill:#000"/><circle cx="177" cy="378.5" r="2" class="net_2 width_1" style="fill:#000"/><line x1="42" x2="67" y1="239.5" y2="239.5" class="net_2 width_1" style="stroke-width:1"/><line x1="67" x2="67" y1="239.5" y2="54.5" class="net_2 width_1" style="stroke-width:1"/><line x1="67" x2="762.5" y1="54.5" y2="54.5" class="net_2 width_1" style="stroke-width:1"/><line x1="762.5" x2="762.5" y1="54.5" y2="52" class="net_2 width_1" style="stroke-width:1"/><line x1="762.5" x2="787.5" y1="52" y2="52" class="net_2 width_1" style="stroke-width:1"/><line x1="42" x2="67" y1="239.5" y2="239.5" class="net_2 width_1" style="stroke-width:1"/><line x1="67" x2="67" y1="239.5" y2="378.5" class="net_2 width_1" style="stroke-width:1"/><line x1="67" x2="762.5" y1="378.5" y2="378.5" class="net_2 width_1" style="stroke-width:1"/><line x1="762.5" x2="762.5" y1="378.5" y2="127" class="net_2 width_1" style="stroke-width:1"/><line x1="762.5" x2="787.5" y1="127" y2="127" class="net_2 width_1" style="stroke-width:1"/><line x1="645.5" x2="655.5" y1="99.5" y2="99.5" class="net_39,40,41,42,43,44,45,46,47 width_9" style="stroke-width:2"/><line x1="655.5" x2="655.5" y1="99.5" y2="69.5" class="net_39,40,41,42,43,44,45,46,47 width_9" style="stroke-width:2"/><line x1="655.5" x2="77" y1="69.5" y2="69.5" class="net_39,40,41,42,43,44,45,46,47 width_9" style="stroke-width:2"/><line x1="77" x2="77" y1="69.5" y2="219.5" class="net_39,40,41,42,43,44,45,46,47 width_9" style="stroke-width:2"/><line x1="77" x2="92" y1="219.5" y2="219.5" class="net_39,40,41,42,43,44,45,46,47 width_9" style="stroke-width:2"/><circle cx="655.5" cy="99.5" r="3" class="net_39,40,41,42,43,44,45,46,47 width_9" style="fill:#000"/><line x1="645.5" x2="721.5" y1="99.5" y2="99.5" class="net_39,40,41,42,43,44,45,46,47 width_9" style="stroke-width:2"/><line x1="750.5" x2="787.5" y1="417" y2="417" class="net_36 width_1" style="stroke-width:1"/><line x1="750.5" x2="787.5" y1="32" y2="32" class="net_38 width_1" style="stroke-width:1"/><line x1="752.5" x2="787.5" y1="107" y2="107" class="net_48 width_1" style="stroke-width:1"/><line x1="546" x2="595" y1="121" y2="121" class="net_26,27,28,29,30,31,32,33,34,49,50,51,52,53,54,55,56,57,3,4,5,6,7,8,9,10,11 width_27" style="stroke-width:2"/><line x1="595" x2="595" y1="121" y2="109.5" class="net_26,27,28,29,30,31,32,33,34,49,50,51,52,53,54,55,56,57,3,4,5,6,7,8,9,10,11 width_27" style="stroke-width:2"/><line x1="595" x2="620" y1="109.5" y2="109.5" class="net_26,27,28,29,30,31,32,33,34,49,50,51,52,53,54,55,56,57,3,4,5,6,7,8,9,10,11 width_27" style="stroke-width:2"/><line x1="538.75" x2="633" y1="458" y2="458" class="net_58,59,60 width_3" style="stroke-width:2"/><line x1="633" x2="633" y1="458" y2="117.5" class="net_58,59,60 width_3" style="stroke-width:2"/><line x1="293.333" x2="317" y1="526" y2="526" class="net_13,12 width_2" style="stroke-width:2"/><line x1="317" x2="317" y1="526" y2="440.5" class="net_13,12 width_2" style="stroke-width:2"/><line x1="317" x2="451" y1="440.5" y2="440.5" class="net_13,12 width_2" style="stroke-width:2"/><circle cx="317" cy="526" r="3" class="net_13,12 width_2" style="fill:#000"/><line x1="293.333" x2="451" y1="526" y2="526" class="net_13,12 width_2" style="stroke-width:2"/><line x1="293.333" x2="317" y1="526" y2="526" class="net_13,12 width_2" style="stroke-width:2"/><line x1="317" x2="317" y1="526" y2="621.5" class="net_13,12 width_2" style="stroke-width:2"/><line x1="317" x2="451" y1="621.5" y2="621.5" class="net_13,12 width_2" style="stroke-width:2"/><line x1="307" x2="409" y1="458.5" y2="458.5" class="net_63,64 width_2" style="stroke-width:2"/><line x1="409" x2="409" y1="458.5" y2="455.5" class="net_63,64 width_2" style="stroke-width:2"/><line x1="409" x2="451" y1="455.5" y2="455.5" class="net_63,64 width_2" style="stroke-width:2"/><line x1="307" x2="409" y1="603.5" y2="603.5" class="net_65,66 width_2" style="stroke-width:2"/><line x1="409" x2="409" y1="603.5" y2="541" class="net_65,66 width_2" style="stroke-width:2"/><line x1="409" x2="451" y1="541" y2="541" class="net_65,66 width_2" style="stroke-width:2"/><line x1="307" x2="409" y1="668.5" y2="668.5" class="net_67,68 width_2" style="stroke-width:2"/><line x1="409" x2="409" y1="668.5" y2="636.5" class="net_67,68 width_2" style="stroke-width:2"/><line x1="409" x2="451" y1="636.5" y2="636.5" class="net_67,68 width_2" style="stroke-width:2"/><line x1="126" x2="177" y1="141.5" y2="141.5" class="net_69,70,71 width_3" style="stroke-width:2"/><line x1="177" x2="177" y1="141.5" y2="138.5" class="net_69,70,71 width_3" style="stroke-width:2"/><line x1="177" x2="208.667" y1="138.5" y2="138.5" class="net_69,70,71 width_3" style="stroke-width:2"/><line x1="372.667" x2="429" y1="356" y2="356" class="net_26,27,28,29,30,31,32,33,34 width_9" style="stroke-width:2"/><line x1="429" x2="429" y1="356" y2="111" class="net_26,27,28,29,30,31,32,33,34 width_9" style="stroke-width:2"/><line x1="429" x2="540" y1="111" y2="111" class="net_26,27,28,29,30,31,32,33,34 width_9" style="stroke-width:2"/><line x1="372.667" x2="484" y1="141" y2="141" class="net_49,50,51,52,53,54,55,56,57 width_9" style="stroke-width:2"/><line x1="484" x2="484" y1="141" y2="131" class="net_49,50,51,52,53,54,55,56,57 width_9" style="stroke-width:2"/><line x1="484" x2="540" y1="131" y2="131" class="net_49,50,51,52,53,54,55,56,57 width_9" style="stroke-width:2"/><line x1="372" x2="484" y1="278.5" y2="278.5" class="net_3,4,5,6,7,8,9,10,11 width_9" style="stroke-width:2"/><line x1="484" x2="484" y1="278.5" y2="151" class="net_3,4,5,6,7,8,9,10,11 width_9" style="stroke-width:2"/><line x1="484" x2="540" y1="151" y2="151" class="net_3,4,5,6,7,8,9,10,11 width_9" style="stroke-width:2"/><line x1="474" x2="532.75" y1="448" y2="448" class="net_58 width_1" style="stroke-width:1"/><line x1="474" x2="484" y1="533.5" y2="533.5" class="net_59 width_1" style="stroke-width:1"/><line x1="484" x2="484" y1="533.5" y2="468" class="net_59 width_1" style="stroke-width:1"/><line x1="484" x2="532.75" y1="468" y2="468" class="net_59 width_1" style="stroke-width:1"/><line x1="474" x2="494" y1="629" y2="629" class="net_60 width_1" style="stroke-width:1"/><line x1="494" x2="494" y1="629" y2="488" class="net_60 width_1" style="stroke-width:1"/><line x1="494" x2="532.75" y1="488" y2="488" class="net_60 width_1" style="stroke-width:1"/><line x1="232.667" x2="367.667" y1="346" y2="346" class="net_26,27,28,29,30,31,32,33,34,35 width_10" style="stroke-width:2"/><line x1="231.667" x2="367.667" y1="131" y2="131" class="net_49,50,51,52,53,54,55,56,57,37 width_10" style="stroke-width:2"/><rect width="16" height="9" x="164" y="118.5" class="net_2,3,5 width_3 busLabel_3" style="fill:#fff;stroke:none"/><text x="163" y="126.5" class="net_2,3,5 width_3 busLabel_3">/9/</text><rect width="16" height="9" x="164" y="118.5" class="net_2 width_1 busLabel_1" style="fill:#fff;stroke:none"/><text x="163" y="126.5" class="net_2 width_1 busLabel_1">/9/</text><rect width="16" height="9" x="164" y="118.5" class="net_2,3 width_2 busLabel_2" style="fill:#fff;stroke:none"/><text x="163" y="126.5" class="net_2,3 width_2 busLabel_2">/9/</text><rect width="16" height="9" x="164" y="118.5" class="net_2,3 width_2 busLabel_2" style="fill:#fff;stroke:none"/><text x="163" y="126.5" class="net_2,3 width_2 busLabel_2">/9/</text><rect width="16" height="9" x="164" y="351.5" class="net_5 width_1 busLabel_1" style="fill:#fff;stroke:none"/><text x="163" y="359.5" class="net_5 width_1 busLabel_1">/2/</text><rect width="16" height="9" x="681.5" y="94.5" class="net_39,40,41,42,43,44,45,46,47 width_9 busLabel_9" style="fill:#fff;stroke:none"/><text x="680.5" y="102.5" class="net_39,40,41,42,43,44,45,46,47 width_9 busLabel_9">/9/</text><rect width="16" height="9" x="681.5" y="94.5" class="net_39,40,41,42,43,44,45,46,47 width_9 busLabel_9" style="fill:#fff;stroke:none"/><text x="680.5" y="102.5" class="net_39,40,41,42,43,44,45,46,47 width_9 busLabel_9">/9/</text><rect width="22" height="9" x="582" y="116" class="net_26,27,28,29,30,31,32,33,34,49,50,51,52,53,54,55,56,57,3,4,5,6,7,8,9,10,11 width_27 busLabel_27" style="fill:#fff;stroke:none"/><text x="581" y="124" class="net_26,27,28,29,30,31,32,33,34,49,50,51,52,53,54,55,56,57,3,4,5,6,7,8,9,10,11 width_27 busLabel_27">/27/</text><rect width="16" height="9" x="582" y="453" class="net_58,59,60 width_3 busLabel_3" style="fill:#fff;stroke:none"/><text x="581" y="461" class="net_58,59,60 width_3 busLabel_3">/3/</text><rect width="16" height="9" x="369.5" y="616.5" class="net_13,12 width_2 busLabel_2" style="fill:#fff;stroke:none"/><text x="368.5" y="624.5" class="net_13,12 width_2 busLabel_2">/2/</text><rect width="16" height="9" x="369.5" y="616.5" class="net_13,12 width_2 busLabel_2" style="fill:#fff;stroke:none"/><text x="368.5" y="624.5" class="net_13,12 width_2 busLabel_2">/2/</text><rect width="16" height="9" x="369.5" y="616.5" class="net_13,12 width_2 busLabel_2" style="fill:#fff;stroke:none"/><text x="368.5" y="624.5" class="net_13,12 width_2 busLabel_2">/2/</text><rect width="16" height="9" x="369.5" y="453.5" class="net_63,64 width_2 busLabel_2" style="fill:#fff;stroke:none"/><text x="368.5" y="461.5" class="net_63,64 width_2 busLabel_2">/2/</text><rect width="16" height="9" x="369.5" y="598.5" class="net_65,66 width_2 busLabel_2" style="fill:#fff;stroke:none"/><text x="368.5" y="606.5" class="net_65,66 width_2 busLabel_2">/2/</text><rect width="16" height="9" x="369.5" y="663.5" class="net_67,68 width_2 busLabel_2" style="fill:#fff;stroke:none"/><text x="368.5" y="671.5" class="net_67,68 width_2 busLabel_2">/2/</text><rect width="16" height="9" x="164" y="136.5" class="net_69,70,71 width_3 busLabel_3" style="fill:#fff;stroke:none"/><text x="163" y="144.5" class="net_69,70,71 width_3 busLabel_3">/3/</text><rect width="16" height="9" x="460.5" y="106" class="net_26,27,28,29,30,31,32,33,34 width_9 busLabel_9" style="fill:#fff;stroke:none"/><text x="459.5" y="114" class="net_26,27,28,29,30,31,32,33,34 width_9 busLabel_9">/9/</text><rect width="16" height="9" x="460.5" y="136" class="net_49,50,51,52,53,54,55,56,57 width_9 busLabel_9" style="fill:#fff;stroke:none"/><text x="459.5" y="144" class="net_49,50,51,52,53,54,55,56,57 width_9 busLabel_9">/9/</text><rect width="16" height="9" x="460.5" y="273.5" class="net_3,4,5,6,7,8,9,10,11 width_9 busLabel_9" style="fill:#fff;stroke:none"/><text x="459.5" y="281.5" class="net_3,4,5,6,7,8,9,10,11 width_9 busLabel_9">/9/</text><rect width="22" height="9" x="290.5" y="341" class="net_26,27,28,29,30,31,32,33,34,35 width_10 busLabel_10" style="fill:#fff;stroke:none"/><text x="289.5" y="349" class="net_26,27,28,29,30,31,32,33,34,35 width_10 busLabel_10">/10/</text><rect width="22" height="9" x="290.5" y="126" class="net_49,50,51,52,53,54,55,56,57,37 width_10 busLabel_10" style="fill:#fff;stroke:none"/><text x="289.5" y="134" class="net_49,50,51,52,53,54,55,56,57,37 width_10 busLabel_10">/10/</text></svg>