<svg xmlns="http://www.w3.org/2000/svg" xmlns:s="https://github.com/nturley/netlistsvg" xmlns:xlink="http://www.w3.org/1999/xlink" width="340" height="337"><style>svg{stroke:#000;fill:none}text{fill:#000;stroke:none;font-size:10px;font-weight:700;font-family:&quot;Courier New&quot;,monospace}.nodelabel{text-anchor:middle}.detail,.symbol{stroke-linejoin:round;stroke-linecap:round}.symbol{stroke-width:2}.detail{fill:#000}</style><g id="cell_A" transform="translate(87,22)" s:height="20" s:type="inputExt" s:width="30"><text x="15" y="-4" class="cell_A" s:attribute="ref">A</text><s:alias val="$_inputExt_"/><path d="M0,0 V20 H15 L30,10 15,0 Z" class="cell_A"/></g><g id="cell_B" transform="translate(12,97)" s:height="20" s:type="inputExt" s:width="30"><text x="15" y="-4" class="cell_B" s:attribute="ref">B</text><s:alias val="$_inputExt_"/><path d="M0,0 V20 H15 L30,10 15,0 Z" class="cell_B"/></g><g id="cell_Y" transform="translate(298,200)" s:height="20" s:type="outputExt" s:width="30"><text x="15" y="-4" class="cell_Y" s:attribute="ref">Y</text><s:alias val="$_outputExt_"/><path d="M30,0 V20 H15 L0,10 15,0 Z" class="cell_Y"/></g><g id="cell_R1" transform="translate(122,47)" s:height="50" s:type="resistor_v" s:width="10"><s:alias val="r_v"/><text x="15" y="15" class="cell_R1" s:attribute="ref">R1</text><text x="15" y="30" class="cell_R1" s:attribute="value">10k</text><path d="M0,10 V40 H10 V10 Z" class="symbol cell_R1"/><path d="M5,0 V10 M5,40 V50" class="connect cell_R1"/></g><g id="cell_X1" transform="translate(62,92)" s:height="30" s:type="xtal" s:width="40"><s:alias val="xtal"/><text x="20" y="45" class="nodelabel cell_X1" s:attribute="ref">X1</text><rect width="10" height="30" x="15" y="0" class="symbol cell_X1"/><path d="M0,15 H10 M10,5 V25 M30,5 V25 M30,15 H40" class="cell_X1"/></g><g id="cell_Q1" transform="translate(163.9,85.9)" s:height="62.1" s:type="BC548CTA" s:width="42.1"><s:alias val="BC548CTA"/><text x="35" y="20" class="cell_Q1" s:attribute="ref">Q1</text><text x="35" y="35" class="cell_Q1" s:attribute="value">BC548CTA</text><rect width="42.1" height="62.1" x="-10" y="-10" fill="none" stroke="none" class="symbol cell_Q1"/><g id="gge3" c_elec="1" c_etype="pinpart" c_origin="1.1,21.1" c_partid="part_pin" c_rotation="180" c_shapetype="group" c_show="show" c_spicepin="2" s:pid="B" s:x="1.1" s:y="21.1"><circle cx="1.1" cy="21.1" r="2" c_pindot="true" class="pindot"/><path fill="none" d="M 1.1 21.1 h 10" class="connect cell_Q1"/><circle cx="8.1" cy="21.1" r="3" fill="none" stroke-width="1" display="none"/><path fill="none" stroke-width="1" d="M 11.1 24.1 L 14.1 21.1 L 11.1 18.1" display="none"/></g><g id="gge10" c_elec="1" c_etype="pinpart" c_origin="21.1,1.1" c_partid="part_pin" c_rotation="90" c_shapetype="group" c_show="show" c_spicepin="1" s:pid="C" s:x="21.1" s:y="1.1"><circle cx="21.1" cy="1.1" r="2" c_pindot="true" class="pindot"/><path fill="none" d="M 21.1 1.1 v 10" class="connect cell_Q1"/><circle cx="21.1" cy="8.1" r="3" fill="none" stroke-width="1" display="none"/><path fill="none" stroke-width="1" d="M 18.1 11.1 L 21.1 14.1 L 24.1 11.1" display="none"/></g><g id="gge17" c_elec="1" c_etype="pinpart" c_origin="21.1,41.1" c_partid="part_pin" c_rotation="270" c_shapetype="group" c_show="show" c_spicepin="3" s:pid="E" s:x="21.1" s:y="41.1"><circle cx="21.1" cy="41.1" r="2" c_pindot="true" class="pindot"/><path fill="none" d="M 21.1 41.1 v -10" class="connect cell_Q1"/><circle cx="21.1" cy="34.1" r="3" fill="none" stroke-width="1" display="none"/><path fill="none" stroke-width="1" d="M 24.1 31.1 L 21.1 28.1 L 18.1 31.1" display="none"/></g><polyline id="gge24" fill="none" stroke-linecap="round" stroke-width="1" points="21.1 11.1 11.1 18.1" class="detail cell_Q1"/><polyline id="gge25" fill="none" stroke-linecap="round" stroke-width="1" points="11.1 24.1 21.1 31.1" class="detail cell_Q1"/><polyline id="gge26" fill="none" stroke-linecap="round" stroke-width="1" points="11.1 12.1 11.1 30.1" class="detail cell_Q1"/><polygon id="gge27" fill="#800" stroke-linecap="round" stroke-width="1" points="21.1 31.1 18.1 26.1 15.1 30.1" class="symbol cell_Q1"/></g><g id="cell_C1" transform="translate(145,168)" s:height="50" s:type="capacitor_v" s:width="30"><s:alias val="c_v"/><text x="25" y="10" class="cell_C1" s:attribute="ref">C1</text><text x="25" y="45" class="cell_C1" s:attribute="value">10uF</text><path d="M0,20 H30 M0,30 H30" class="symbol cell_C1"/><path d="M15,0 V20 M15,30 V50" class="connect cell_C1"/></g><g id="cell_L1" transform="translate(195,164)" s:height="10" s:type="inductor_h" s:width="50"><s:alias val="l_h"/><text x="25" y="-5" class="nodelabel cell_L1" s:attribute="ref">L1</text><text x="25" y="20" class="nodelabel cell_L1" s:attribute="value">10uH</text><path d="M5,5 A5,5 0 0 1 15,5 A5,5 0 0 1 25,5 A5,5 0 0 1 35,5 A5,5 0 0 1 45,5" class="cell_L1"/><path d="M0,5 H5 M45,5 H50" class="connect cell_L1"/></g><g id="cell_R5" transform="translate(283,225)" s:height="50" s:type="resistor_v" s:width="10"><s:alias val="r_v"/><text x="15" y="15" class="cell_R5" s:attribute="ref">R5</text><text x="15" y="30" class="cell_R5" s:attribute="value">10k</text><path d="M0,10 V40 H10 V10 Z" class="symbol cell_R5"/><path d="M5,0 V10 M5,40 V50" class="connect cell_R5"/></g><g id="cell_Q2" transform="translate(265,152.99999999999997)" s:height="32" s:type="transistor_pnp" s:width="32"><s:alias val="q_pnp"/><text x="35" y="20" class="cell_Q2" s:attribute="ref">Q2</text><circle cx="16" cy="16" r="16" class="symbol cell_Q2"/><path d="M0,16 H12 M12,6 V26" class="detail cell_Q2"/><path d="m12,10 11,-8" class="detail cell_Q2"/><path d="m12,21 11,8" class="detail cell_Q2"/><path d="m14,9 6,-1 -3,-5 z" style="fill:#000" class="cell_Q2"/></g><g id="cell_vcc" transform="translate(175,50.900000000000006)" s:height="30" s:type="vcc" s:width="20"><s:alias val="vcc"/><text x="10" y="-4" class="nodelabel cell_vcc" s:attribute="name">VCC</text><path d="M0,0 H20 L10,15 Z M10,15 V30" class="cell_vcc"/></g><g id="cell_vcc2" transform="translate(277,117.99999999999997)" s:height="30" s:type="vcc" s:width="20"><s:alias val="vcc"/><text x="10" y="-4" class="nodelabel cell_vcc2" s:attribute="name">VCC</text><path d="M0,0 H20 L10,15 Z M10,15 V30" class="cell_vcc2"/></g><g id="cell_gnd" transform="translate(150,238)" s:height="30" s:type="gnd" s:width="20"><s:alias val="gnd"/><text x="30" y="20" class="nodelabel cell_gnd" s:attribute="name">GND</text><path d="M0,0 H20 M3,5 H17 M7,10 H13 M10,0 V-15" class="cell_gnd"/></g><g id="cell_gnd2" transform="translate(278,295)" s:height="30" s:type="gnd" s:width="20"><s:alias val="gnd"/><text x="30" y="20" class="nodelabel cell_gnd2" s:attribute="name">GND</text><path d="M0,0 H20 M3,5 H17 M7,10 H13 M10,0 V-15" class="cell_gnd2"/></g><line x1="117" x2="127" y1="32" y2="32" class="net_2 width_1" style="stroke-width:1"/><line x1="127" x2="127" y1="32" y2="47" class="net_2 width_1" style="stroke-width:1"/><line x1="42" x2="52" y1="107" y2="107" class="net_3 width_1" style="stroke-width:1"/><line x1="52" x2="52" y1="107" y2="107" class="net_3 width_1" style="stroke-width:1"/><line x1="52" x2="62" y1="107" y2="107" class="net_3 width_1" style="stroke-width:1"/><line x1="185" x2="185" y1="80.9" y2="87" class="net_6 width_1" style="stroke-width:1"/><line x1="127" x2="127" y1="97" y2="107" class="net_5 width_1" style="stroke-width:1"/><line x1="127" x2="165" y1="107" y2="107" class="net_5 width_1" style="stroke-width:1"/><line x1="102" x2="112" y1="107" y2="107" class="net_5 width_1" style="stroke-width:1"/><line x1="112" x2="112" y1="107" y2="107" class="net_5 width_1" style="stroke-width:1"/><line x1="112" x2="127" y1="107" y2="107" class="net_5 width_1" style="stroke-width:1"/><line x1="127" x2="127" y1="107" y2="107" class="net_5 width_1" style="stroke-width:1"/><line x1="127" x2="165" y1="107" y2="107" class="net_5 width_1" style="stroke-width:1"/><circle cx="127" cy="107" r="2" style="fill:#000" class="net_5 width_1"/><line x1="185" x2="185" y1="127" y2="158" class="net_7 width_1" style="stroke-width:1"/><line x1="185" x2="160" y1="158" y2="158" class="net_7 width_1" style="stroke-width:1"/><line x1="160" x2="160" y1="158" y2="168" class="net_7 width_1" style="stroke-width:1"/><circle cx="185" cy="158" r="2" style="fill:#000" class="net_7 width_1"/><line x1="185" x2="185" y1="127" y2="169" class="net_7 width_1" style="stroke-width:1"/><line x1="185" x2="195" y1="169" y2="169" class="net_7 width_1" style="stroke-width:1"/><line x1="288" x2="288" y1="182" y2="210" class="net_4 width_1" style="stroke-width:1"/><line x1="288" x2="298" y1="210" y2="210" class="net_4 width_1" style="stroke-width:1"/><circle cx="288" cy="210" r="2" style="fill:#000" class="net_4 width_1"/><line x1="298" x2="288" y1="210" y2="210" class="net_4 width_1" style="stroke-width:1"/><line x1="288" x2="288" y1="210" y2="225" class="net_4 width_1" style="stroke-width:1"/><circle cx="288" cy="210" r="2" style="fill:#000" class="net_4 width_1"/><line x1="287" x2="287" y1="148" y2="155" class="net_10 width_1" style="stroke-width:1"/><line x1="160" x2="160" y1="218" y2="223" class="net_8 width_1" style="stroke-width:1"/><line x1="288" x2="288" y1="275" y2="280" class="net_12 width_1" style="stroke-width:1"/><line x1="245" x2="255" y1="169" y2="169" class="net_9 width_1" style="stroke-width:1"/><line x1="255" x2="255" y1="169" y2="169" class="net_9 width_1" style="stroke-width:1"/><line x1="255" x2="265" y1="169" y2="169" class="net_9 width_1" style="stroke-width:1"/></svg>